<?xml version="1.0" standalone="no"?>
<!DOCTYPE svg PUBLIC "-//W3C//DTD SVG 20010904//EN"
 "http://www.w3.org/TR/2001/REC-SVG-20010904/DTD/svg10.dtd">
<svg version="1.0" xmlns="http://www.w3.org/2000/svg"
 width="1627.505169pt" height="1032.719481pt" viewBox="0 0 1627.505169 1032.719481"
 preserveAspectRatio="xMidYMid meet">
<metadata>
Created by potrace 1.10, written by Peter Selinger 2001-2011
</metadata>
<g transform="translate(-241.287673,1241.863555) scale(0.100000,-0.100000)"
fill="#000000" stroke="none">
<path d="M2493 12405 c-17 -13 -17 -36 6 -340 6 -77 13 -268 15 -425 5 -348
23 -824 37 -1020 16 -221 24 -1260 10 -1372 -11 -93 -34 -351 -51 -588 -18
-244 -29 -661 -30 -1120 0 -256 -3 -503 -5 -550 -21 -387 -38 -634 -46 -680
-6 -30 -13 -183 -15 -340 -5 -281 5 -423 36 -525 5 -16 26 -95 46 -175 20 -80
41 -161 46 -180 6 -19 13 -80 17 -135 6 -92 8 -100 30 -111 13 -7 32 -26 43
-42 19 -30 67 -55 91 -47 7 2 111 14 232 25 121 11 247 25 280 31 68 11 595
22 638 13 19 -5 27 -13 27 -28 1 -36 48 -76 90 -76 30 0 62 37 58 66 l-3 26
435 3 c239 2 485 7 545 10 490 26 1535 44 1535 27 0 -4 -4 -21 -9 -38 -5 -17
-5 -37 0 -46 20 -37 42 -232 44 -396 1 -101 6 -177 12 -183 19 -19 76 -6 91
21 18 34 9 264 -18 472 -7 54 -10 104 -6 113 3 8 1 26 -4 40 l-10 25 73 1
c173 2 405 -3 577 -12 385 -20 550 -30 725 -44 318 -26 455 -34 705 -45 345
-15 1081 -39 1360 -45 129 -2 288 -8 353 -11 l119 -7 -5 -26 c-3 -14 1 -69 9
-121 18 -123 18 -258 -1 -357 -18 -94 -20 -194 -3 -211 7 -7 19 -12 28 -12 32
0 49 34 55 105 4 39 11 92 16 119 18 96 6 364 -23 486 -2 12 8 15 62 12 194
-8 520 -23 880 -41 694 -35 818 -41 1045 -46 407 -10 1012 -47 1310 -80 159
-18 479 -42 678 -51 144 -7 148 -8 143 -28 -3 -12 4 -74 15 -139 22 -131 29
-346 15 -468 -7 -65 -6 -78 9 -92 26 -27 62 -21 80 12 12 25 28 154 34 285 1
29 -23 280 -35 365 l-7 44 79 -6 c44 -3 174 -11 289 -17 116 -6 383 -22 595
-35 212 -14 581 -29 820 -35 239 -6 536 -18 660 -26 124 -7 283 -14 353 -14
112 0 409 -24 426 -35 4 -2 87 -8 186 -14 99 -6 214 -13 256 -16 64 -4 79 -2
97 14 27 23 28 58 3 91 -18 22 -26 24 -93 23 -95 -2 -515 25 -582 38 -28 5
-139 12 -246 16 l-196 6 -13 51 c-8 30 -14 123 -16 226 -1 96 -7 204 -13 240
-6 36 -16 128 -22 205 -17 223 -30 352 -46 463 -8 57 -19 178 -24 270 -5 92
-17 244 -25 337 -9 94 -21 240 -26 325 -5 85 -13 200 -18 255 -4 55 -6 105 -4
110 2 6 16 15 31 22 15 6 61 25 102 43 41 17 100 42 130 55 30 12 98 40 150
60 52 20 113 45 135 55 94 42 251 85 450 125 84 17 125 36 125 59 0 26 -41 66
-68 66 -40 0 -336 -75 -417 -105 -38 -15 -81 -30 -95 -35 -24 -8 -254 -103
-322 -133 -91 -41 -220 -88 -226 -83 -7 8 -7 15 -22 461 -7 210 -8 370 -3 385
5 14 9 94 8 178 0 84 3 156 7 158 4 3 8 20 8 39 0 19 4 36 9 39 12 8 23 73 16
95 -8 26 -58 45 -97 37 -85 -18 -209 -28 -378 -31 -102 -2 -246 -9 -320 -15
-74 -7 -171 -13 -215 -14 -91 -1 -140 -18 -150 -49 -16 -53 -26 -496 -18 -847
7 -372 6 -850 -2 -858 -3 -3 -150 -54 -327 -113 -368 -124 -427 -135 -498 -99
-48 25 -132 105 -170 162 -14 21 -28 38 -32 38 -5 0 -8 5 -8 11 0 5 -17 36
-38 67 -21 31 -49 77 -62 102 -39 76 -77 153 -93 190 -8 19 -27 61 -41 93 -14
32 -26 60 -26 62 0 3 -42 92 -94 198 -51 105 -101 210 -110 232 -52 121 -71
161 -82 175 -6 8 -17 32 -23 52 -14 43 -13 44 88 173 142 179 343 389 531 554
47 41 92 82 100 91 8 9 23 21 32 26 9 5 40 32 70 59 29 28 78 71 108 95 30 25
57 47 60 50 3 3 37 32 75 64 82 67 160 135 224 192 73 65 190 151 250 183 84
44 137 49 206 17 31 -14 75 -40 98 -58 43 -35 62 -48 200 -141 99 -66 154 -81
262 -71 82 8 249 63 315 103 8 6 44 27 80 47 36 21 95 57 131 81 37 24 69 43
72 43 9 0 240 156 284 191 23 19 87 70 144 114 56 44 169 145 251 225 137 134
186 186 368 399 36 41 77 86 93 99 45 40 31 82 -29 82 -21 0 -41 -9 -60 -28
-39 -37 -128 -135 -189 -207 -118 -139 -345 -370 -421 -426 -29 -23 -54 -45
-54 -50 0 -5 -6 -9 -14 -9 -8 0 -16 -3 -18 -8 -5 -13 -150 -126 -228 -179 -88
-60 -313 -198 -421 -259 -111 -63 -230 -105 -319 -111 -89 -6 -123 5 -208 70
-141 107 -212 155 -282 190 -36 18 -62 22 -135 22 -81 0 -97 -3 -155 -32 -69
-34 -135 -81 -234 -166 -95 -81 -193 -164 -231 -196 -35 -28 -149 -125 -170
-144 -11 -10 -37 -33 -58 -50 -21 -18 -53 -45 -71 -62 -18 -16 -59 -52 -91
-80 -218 -185 -483 -452 -623 -627 -47 -60 -89 -108 -94 -108 -5 0 -18 21 -28
48 -11 26 -29 64 -40 85 -11 22 -20 43 -20 48 0 5 -18 48 -41 96 -37 80 -68
146 -104 228 -7 17 -27 60 -44 96 -17 36 -31 69 -31 73 0 4 -15 40 -34 79 -37
80 -53 117 -110 250 -7 17 -23 53 -35 80 -11 26 -30 68 -42 95 -11 26 -38 85
-59 132 -21 47 -48 108 -60 135 -34 76 -100 207 -121 237 -11 14 -19 31 -19
36 0 13 -47 99 -106 197 -47 78 -99 114 -165 115 -59 0 -183 -69 -265 -147
-80 -76 -117 -122 -195 -238 -29 -44 -55 -82 -59 -85 -3 -3 -32 -43 -63 -90
-95 -143 -195 -281 -204 -281 -4 0 -11 5 -15 13 -12 22 -48 106 -48 112 0 3
-18 48 -41 98 -67 153 -127 309 -168 435 -44 135 -108 339 -135 433 -34 116
-57 183 -67 195 -5 5 -9 17 -9 27 0 10 -4 26 -10 36 -15 27 -65 141 -95 217
-15 39 -39 94 -52 123 -12 29 -36 92 -52 140 -45 134 -64 180 -111 274 -48 97
-103 161 -176 204 -90 53 -212 34 -304 -46 -19 -17 -69 -58 -110 -92 -64 -52
-231 -199 -264 -234 -43 -44 -183 -198 -197 -217 -119 -151 -300 -372 -318
-387 -4 -3 -26 -30 -51 -60 -24 -30 -54 -64 -65 -76 -11 -11 -74 -76 -140
-145 -65 -68 -176 -183 -245 -254 -69 -72 -168 -177 -220 -235 -52 -57 -137
-147 -187 -200 l-93 -95 -2 85 c-3 116 0 243 8 380 5 94 2 138 -15 240 -12 69
-28 183 -36 255 -9 71 -28 180 -43 240 -24 99 -29 110 -51 113 -13 2 -28 -1
-33 -6 -6 -6 -17 -7 -27 -2 -40 20 -149 32 -203 21 -57 -11 -405 -8 -636 6
-188 12 -287 3 -336 -31 -21 -14 -46 -26 -55 -26 -9 0 -24 -13 -33 -28 -13
-22 -15 -36 -8 -68 21 -89 30 -543 17 -844 -25 -580 -30 -660 -64 -900 -9 -63
-19 -200 -22 -303 l-6 -189 -25 42 c-28 46 -55 81 -115 148 -65 73 -142 93
-183 49 -12 -13 -22 -33 -22 -46 0 -23 -41 -177 -61 -228 -18 -46 -36 -121
-59 -243 -12 -63 -27 -135 -34 -160 -32 -108 -40 -130 -46 -130 -12 0 -49 129
-70 242 -6 29 -21 94 -35 143 -25 92 -46 175 -91 350 -13 55 -33 127 -44 160
-67 208 -107 349 -140 485 -24 99 -68 233 -102 310 -70 158 -90 208 -120 295
-17 49 -36 104 -43 120 -7 17 -28 73 -46 125 -18 52 -37 109 -43 125 -21 57
-100 180 -150 234 -54 56 -100 84 -176 107 -69 21 -196 4 -280 -37 -36 -18
-67 -35 -70 -38 -3 -4 -23 -18 -45 -32 -62 -40 -173 -148 -319 -309 -215 -239
-483 -499 -822 -799 -99 -88 -340 -228 -424 -246 -94 -21 -157 2 -254 94 -64
61 -106 85 -183 106 -6 2 -27 30 -46 62 -120 202 -189 312 -313 498 -76 116
-145 222 -153 237 -8 15 -22 37 -33 47 -10 11 -18 23 -18 26 0 6 -117 177
-181 265 -22 30 -58 80 -79 110 -22 30 -74 96 -116 145 -41 50 -89 110 -106
135 -104 149 -131 180 -157 180 -56 0 -68 -48 -22 -89 15 -14 41 -46 57 -71
16 -25 31 -47 34 -50 3 -3 22 -30 42 -61 21 -31 67 -94 104 -140 117 -149 184
-237 184 -244 0 -3 28 -45 63 -93 35 -48 85 -122 112 -165 93 -144 120 -185
226 -344 58 -87 115 -174 125 -193 10 -19 21 -37 24 -40 4 -3 34 -52 68 -110
l63 -104 -68 -34 c-128 -63 -255 -183 -348 -327 -17 -27 -57 -84 -88 -125 -31
-41 -57 -81 -57 -87 0 -7 -4 -13 -9 -13 -5 0 -28 -26 -51 -57 -24 -32 -87
-112 -140 -178 -53 -66 -127 -163 -164 -215 -37 -52 -72 -102 -79 -110 -12
-16 -64 -92 -82 -122 -5 -9 -26 -43 -45 -75 -19 -32 -43 -67 -53 -78 -19 -20
-19 -16 -14 295 7 325 26 676 51 930 8 80 18 177 21 215 9 108 6 1070 -5 1255
-12 218 -18 372 -26 620 -3 113 -7 211 -9 218 -3 7 -5 133 -5 280 -1 253 -11
473 -29 626 -5 41 -4 83 3 106 13 52 -3 71 -56 68 -22 -1 -47 -7 -55 -13z
m9096 -1036 c17 -6 31 -15 31 -20 0 -5 6 -9 13 -9 41 0 146 -189 211 -382 13
-40 43 -118 66 -173 23 -55 45 -111 49 -125 5 -14 17 -45 29 -70 31 -68 96
-235 126 -325 15 -44 31 -89 36 -100 5 -11 22 -67 39 -125 65 -223 163 -507
196 -570 8 -14 44 -99 80 -190 37 -91 73 -178 81 -194 15 -31 19 -82 7 -88
-12 -5 -73 -95 -73 -106 0 -6 -4 -12 -8 -14 -8 -3 -31 -40 -80 -128 -14 -25
-48 -83 -77 -130 -28 -47 -57 -96 -65 -109 -8 -14 -18 -30 -22 -35 -24 -35
-135 -200 -143 -214 -5 -9 -13 -19 -16 -22 -6 -5 -135 -184 -161 -224 -7 -11
-34 -47 -59 -81 -26 -35 -61 -83 -78 -108 -17 -25 -37 -51 -44 -59 -7 -7 -57
-74 -112 -148 -54 -74 -114 -153 -132 -175 -18 -22 -72 -89 -120 -150 -47 -60
-105 -130 -127 -155 -64 -71 -89 -102 -116 -140 -13 -19 -29 -40 -35 -47 -5
-6 -26 -35 -45 -63 -38 -56 -104 -149 -117 -165 -47 -57 -139 -186 -151 -212
-30 -63 -52 -54 -117 47 -62 98 -130 245 -166 361 -73 235 -214 651 -238 704
-16 34 -68 183 -122 350 -169 524 -361 633 -623 355 l-66 -70 0 485 0 485 83
87 c117 123 157 165 367 393 111 120 144 155 354 370 73 74 183 194 246 265
63 72 117 132 120 135 3 3 17 21 31 40 15 19 37 46 49 60 12 14 39 45 59 70
20 25 38 47 41 50 3 3 21 25 40 50 81 107 258 294 351 370 29 24 61 52 69 60
24 24 213 175 235 188 26 15 64 15 104 1z m-2481 -757 c-8 -9 -6 -18 7 -32 20
-22 67 -26 111 -10 15 6 28 9 31 7 7 -8 33 -173 33 -214 0 -40 36 -268 44
-282 11 -17 3 -704 -9 -783 -6 -38 -18 -59 -60 -105 -134 -146 -623 -629 -757
-748 -77 -68 -161 -127 -215 -152 -60 -26 -161 -41 -207 -29 l-26 6 0 198 c0
137 6 242 20 347 43 330 62 729 64 1322 1 249 5 455 8 458 3 4 36 11 74 16 37
5 69 11 71 13 2 1 187 2 412 2 329 -1 407 -3 399 -14z m-2748 -262 c101 -65
205 -252 266 -477 19 -73 107 -305 150 -398 36 -78 93 -250 120 -365 33 -136
56 -216 104 -370 69 -216 109 -365 165 -605 14 -60 41 -175 61 -255 20 -80 45
-185 55 -235 21 -100 33 -115 90 -115 47 0 74 30 82 93 3 24 16 65 27 93 26
59 72 236 95 359 24 132 104 397 121 402 9 2 44 -45 105 -140 17 -26 56 -69
87 -97 l55 -49 -8 -188 c-10 -208 -11 -343 -5 -693 2 -150 -1 -258 -8 -300
-20 -108 -30 -199 -37 -336 l-7 -131 -67 -71 c-37 -40 -71 -72 -77 -72 -16 0
-91 79 -104 110 -7 16 -16 30 -20 30 -3 0 -28 44 -54 98 -87 177 -104 207
-128 219 -37 20 -88 15 -135 -13 -46 -26 -112 -91 -113 -109 0 -16 -165 -172
-190 -180 -34 -11 -101 39 -140 106 -19 32 -38 59 -42 59 -5 0 -8 4 -8 10 0 5
-14 33 -31 62 -33 54 -77 141 -109 213 -26 58 -183 376 -267 540 -68 134 -183
372 -183 380 0 2 -20 48 -45 101 -25 53 -45 98 -45 100 0 2 -9 23 -20 47 -11
23 -42 105 -68 182 -27 77 -58 160 -69 185 -11 25 -30 72 -43 105 -36 92 -88
188 -116 213 -33 29 -109 30 -163 2 -21 -10 -79 -61 -127 -111 -49 -51 -114
-117 -144 -147 l-55 -55 -6 139 c-9 197 -30 254 -94 254 -18 0 -39 7 -46 16
-11 14 -26 15 -85 10 -39 -4 -85 -11 -102 -16 -18 -5 -107 -18 -199 -30 -93
-11 -203 -30 -246 -41 -70 -18 -95 -20 -242 -13 -180 8 -172 5 -214 78 -24 42
-22 58 5 31 34 -33 126 -66 191 -67 71 -1 171 28 248 72 28 15 83 44 123 64
39 20 72 41 72 45 0 5 36 35 81 68 44 32 103 81 132 109 29 27 59 54 69 60 58
32 631 604 765 763 69 82 237 221 316 261 78 40 85 42 154 37 59 -3 80 -9 123
-37z m7137 -517 c17 -21 48 -67 69 -103 88 -155 114 -203 114 -210 0 -4 22
-54 49 -111 67 -142 100 -216 121 -269 10 -25 29 -70 43 -100 14 -30 42 -95
63 -145 20 -49 57 -130 81 -180 23 -49 43 -94 43 -100 0 -5 18 -46 39 -90 22
-44 46 -96 54 -115 9 -19 26 -58 38 -85 12 -28 28 -63 35 -80 6 -16 48 -108
93 -204 44 -96 81 -178 81 -181 0 -3 -8 -15 -18 -26 -10 -10 -66 -84 -126
-164 -337 -453 -447 -577 -586 -660 -105 -62 -143 -65 -204 -18 -23 17 -58 56
-78 87 -38 58 -168 322 -168 341 0 6 -9 30 -20 52 -11 23 -20 48 -20 55 0 7
-4 21 -9 31 -11 19 -44 109 -61 162 -37 119 -79 242 -84 247 -3 4 -6 14 -6 23
0 9 -7 31 -16 49 -9 18 -22 54 -30 79 -14 51 -85 254 -134 387 -33 88 -162
469 -168 494 -5 24 24 91 40 91 4 0 8 6 8 14 0 8 4 16 8 18 4 2 33 39 63 83
30 44 76 110 102 147 26 37 47 71 47 77 0 5 4 11 9 13 5 2 31 37 58 79 67 103
163 219 210 254 21 16 40 32 43 37 3 4 30 21 60 38 73 40 113 35 157 -17z
m-9617 -745 c10 -18 24 -38 29 -45 6 -7 11 -15 11 -18 0 -3 18 -35 40 -71 22
-36 40 -69 40 -73 0 -4 -13 -6 -29 -3 -21 3 -37 -4 -62 -26 -29 -26 -33 -35
-29 -68 4 -40 4 -140 -2 -1044 -2 -289 0 -556 4 -595 22 -217 38 -544 43 -875
3 -209 11 -401 17 -433 13 -68 3 -571 -16 -817 l-7 -86 -222 4 c-233 4 -379
-4 -662 -38 -93 -11 -206 -20 -250 -20 l-80 0 -13 53 c-6 29 -12 64 -12 77 0
14 -7 50 -16 80 -48 173 -98 378 -114 465 -24 130 -27 535 -5 730 29 258 46
668 55 1338 0 11 8 17 23 17 13 0 32 10 43 23 24 28 134 193 134 201 0 10 178
272 222 325 23 30 54 68 68 86 14 18 53 67 88 109 34 42 62 78 62 82 0 3 6 11
13 19 6 7 41 54 77 105 172 243 278 377 332 421 53 42 169 109 190 109 4 0 17
-15 28 -32z m5429 -435 c1 -236 -2 -462 -5 -504 l-6 -76 -87 -97 c-47 -54 -99
-114 -114 -134 -28 -36 -45 -57 -116 -138 -20 -22 -61 -69 -91 -104 -30 -35
-62 -71 -70 -80 -8 -8 -28 -31 -44 -50 -173 -210 -247 -287 -396 -414 -100
-85 -234 -215 -313 -305 -26 -30 -48 -48 -48 -40 -4 38 4 124 19 214 14 82 17
174 17 500 0 220 4 474 9 565 l9 165 66 3 c171 8 296 74 482 253 31 30 130
124 220 209 89 85 177 169 193 186 17 17 85 86 150 153 66 66 120 121 122 121
2 0 3 -192 3 -427z m3322 204 c6 -23 55 -168 109 -322 54 -154 101 -291 105
-305 4 -14 13 -38 21 -55 7 -16 25 -68 40 -115 14 -47 32 -98 39 -115 7 -16
27 -73 44 -125 64 -198 104 -316 116 -345 37 -92 56 -138 85 -210 47 -119 127
-259 180 -314 48 -50 133 -91 189 -91 77 0 224 75 317 162 75 70 273 294 283
322 2 5 15 22 28 35 12 14 23 29 23 32 0 3 12 19 26 35 14 16 44 56 67 89 101
148 177 232 177 195 0 -5 18 -49 41 -97 23 -49 45 -97 49 -108 18 -43 75 -166
132 -285 33 -69 69 -145 80 -170 11 -25 32 -70 45 -100 14 -30 32 -73 41 -95
55 -139 193 -350 292 -446 104 -102 157 -123 285 -116 93 6 87 4 530 148 82
27 158 49 167 49 16 0 18 -13 20 -127 8 -703 8 -1285 -2 -1493 -9 -203 -26
-380 -38 -392 -7 -7 -296 6 -372 17 -19 3 -174 12 -345 20 -170 8 -386 22
-480 30 -93 7 -226 17 -295 20 -189 10 -561 35 -595 40 -66 11 -432 45 -485
45 -31 0 -61 5 -68 12 -7 7 -12 42 -12 86 0 78 -21 271 -46 430 -8 51 -17 137
-20 190 -4 61 -14 117 -27 152 -11 30 -21 78 -21 105 -1 28 -4 55 -8 61 -13
19 -55 22 -110 7 -76 -20 -452 -8 -608 19 -283 49 -299 50 -364 34 -38 -10
-67 -24 -78 -38 -9 -12 -15 -25 -13 -28 1 -3 -1 -124 -6 -270 -8 -256 -19
-385 -41 -480 -6 -25 -13 -83 -17 -130 l-6 -85 -85 3 c-47 1 -170 7 -275 12
-737 39 -1199 59 -1610 70 -487 14 -826 28 -833 34 -3 3 1 18 8 33 7 16 14 53
15 83 1 30 7 114 14 185 6 72 16 227 21 345 5 118 16 253 24 300 11 59 19 210
25 495 6 226 13 475 17 555 4 80 7 390 8 690 l1 545 25 35 c66 94 159 189 215
221 83 48 131 36 195 -49 19 -26 38 -49 41 -52 5 -5 58 -115 79 -165 4 -11 43
-127 85 -257 43 -131 83 -248 90 -261 6 -12 14 -31 17 -42 3 -11 18 -51 32
-90 15 -38 40 -113 57 -165 17 -52 48 -147 69 -210 21 -63 52 -159 69 -213 63
-197 202 -435 278 -475 12 -7 30 -12 40 -12 27 0 73 23 73 36 0 7 6 14 14 17
8 3 27 27 42 54 24 43 100 150 115 163 3 3 21 28 39 55 67 99 264 361 315 420
55 64 225 276 312 391 122 161 403 544 461 629 23 33 62 87 87 120 24 33 48
67 52 75 4 8 24 40 44 71 37 55 126 206 167 284 41 76 156 244 164 239 4 -3
12 -24 19 -47z m-7466 -54 c3 -32 8 -129 11 -216 l5 -158 -40 -42 c-136 -142
-201 -203 -286 -268 -16 -13 -32 -26 -35 -29 -3 -3 -29 -21 -58 -39 -43 -27
-58 -32 -87 -27 -19 4 -35 10 -35 15 0 4 -8 16 -17 27 -46 50 -100 128 -163
234 -24 41 -47 77 -50 80 -3 3 -13 21 -22 40 -26 51 -73 137 -85 152 -6 7 -23
38 -39 68 -15 30 -34 63 -42 72 -29 35 -6 41 132 33 122 -6 136 -5 206 18 41
14 127 32 190 41 63 9 160 23 215 31 99 15 145 21 177 24 13 1 18 -11 23 -56z
m589 -65 c34 -46 113 -227 192 -443 61 -169 81 -221 113 -293 44 -100 212
-449 266 -552 60 -114 225 -448 265 -535 71 -156 155 -306 208 -372 45 -56
128 -97 181 -90 83 11 146 59 281 215 64 73 99 94 124 73 15 -12 76 -132 76
-148 0 -15 120 -207 148 -236 70 -74 145 -77 222 -8 19 17 39 31 43 31 5 0 6
-78 3 -172 -23 -725 -25 -777 -42 -863 -10 -53 -19 -157 -21 -254 l-4 -163
-72 6 c-370 30 -1457 42 -2047 21 -369 -12 -385 -12 -383 2 2 7 5 70 8 140 3
70 8 182 11 248 4 66 8 359 9 650 2 292 9 692 14 890 13 408 6 784 -20 1112
-5 70 -12 191 -16 269 l-6 141 39 34 c21 19 92 90 159 158 121 124 176 169
207 170 9 1 28 -14 42 -31z m-1637 -48 c15 -27 31 -50 36 -50 4 0 7 -5 7 -10
0 -6 20 -43 43 -83 24 -39 70 -121 102 -182 55 -105 150 -255 225 -357 41 -55
99 -88 157 -88 81 0 212 89 401 272 46 44 84 79 86 77 11 -11 36 -289 43 -469
9 -227 9 -926 0 -1290 -5 -184 -14 -865 -21 -1517 l-1 -52 -50 -6 c-73 -9
-1092 -11 -1101 -3 -4 4 1 43 10 85 11 51 16 113 14 178 -1 55 1 172 5 260 4
89 2 216 -3 285 -5 69 -14 271 -19 450 -14 483 -20 605 -37 825 -30 386 -19
1668 15 1708 26 33 58 21 88 -33z m13043 -424 c0 -29 3 -56 7 -60 4 -4 9 -177
10 -384 2 -207 7 -447 13 -532 5 -85 10 -185 10 -223 l0 -68 -77 -35 c-74 -34
-342 -130 -503 -179 -41 -13 -133 -44 -204 -69 -71 -25 -134 -46 -140 -46 -8
0 -11 84 -11 267 0 148 -1 444 -2 658 -1 215 0 411 2 436 7 114 17 207 24 218
15 24 172 40 576 60 121 6 229 12 240 14 46 6 55 -3 55 -57z m-7857 -768 c4
-240 3 -460 -2 -508 -5 -47 -12 -285 -16 -530 -4 -305 -11 -478 -21 -550 -8
-58 -21 -231 -30 -385 -8 -154 -22 -332 -30 -395 -9 -63 -19 -147 -22 -187 -4
-40 -12 -77 -18 -83 -8 -8 -111 -6 -365 5 -195 8 -383 17 -419 20 -258 20
-445 37 -450 40 -4 2 -3 28 1 57 4 29 13 109 19 178 29 334 36 484 47 1052 l6
316 46 50 c25 27 80 87 121 133 111 124 188 197 285 275 48 38 97 80 109 93
11 13 44 49 72 80 28 31 77 88 109 126 33 39 61 72 64 75 9 7 86 98 241 280
45 52 111 128 148 169 37 40 71 82 76 92 5 10 12 19 16 19 4 0 10 -190 13
-422z m7902 -640 c6 -32 23 -259 30 -413 4 -71 12 -182 20 -245 8 -63 19 -194
25 -290 12 -191 35 -424 50 -498 5 -26 14 -141 20 -256 6 -115 13 -213 16
-217 15 -25 23 -183 14 -279 -6 -58 -11 -127 -13 -155 l-2 -50 -50 1 c-28 0
-239 6 -470 14 -231 7 -464 14 -518 14 l-97 1 6 45 c3 25 17 62 31 82 21 31
24 44 18 75 -4 21 -9 421 -11 888 -1 468 -6 878 -10 912 -6 62 -6 63 22 74 56
22 431 151 584 200 85 28 191 66 235 85 44 18 83 34 87 34 4 0 10 -10 13 -22z
m-4595 -1236 c51 -12 127 -16 360 -17 l295 -1 7 -120 c4 -65 12 -137 18 -159
28 -109 70 -439 70 -556 0 -68 -2 -77 -20 -82 -11 -3 -113 1 -227 9 -115 7
-314 16 -443 19 -129 3 -286 8 -347 11 l-113 6 0 26 c0 15 11 81 25 147 13 66
25 154 25 195 0 41 5 140 11 220 6 80 11 168 11 195 0 28 4 64 9 81 9 28 16
33 62 42 63 13 168 6 257 -16z"/>
<path d="M2568 4741 c-37 -20 -50 -59 -35 -101 9 -26 2 -519 -9 -587 -5 -31
-2 -45 12 -62 23 -27 68 -27 94 -1 18 18 20 33 20 198 0 97 5 255 10 349 5 95
7 179 4 187 -11 28 -59 36 -96 17z"/>
<path d="M18598 4177 l-26 -22 -7 -235 c-3 -129 -10 -261 -16 -293 -12 -69 3
-166 28 -184 24 -18 79 -16 98 4 14 13 16 26 10 67 -6 41 -7 419 -2 620 1 27
-5 42 -18 52 -26 19 -36 18 -67 -9z"/>
<path d="M4304 3632 c-47 -7 -117 -35 -140 -55 -14 -12 -40 -46 -57 -74 -18
-29 -35 -53 -40 -53 -4 0 -21 -28 -38 -62 l-29 -63 6 -200 c5 -165 9 -202 22
-212 25 -20 66 -15 91 11 21 23 22 29 15 128 l-7 105 84 42 c85 43 129 79 129
104 0 22 -47 67 -69 67 -11 0 -41 -11 -67 -25 -26 -14 -49 -23 -51 -21 -7 7
33 88 66 133 43 59 76 67 233 59 120 -6 129 -5 148 14 11 11 20 24 20 30 0 18
-23 60 -34 61 -55 5 -267 13 -282 11z"/>
<path d="M4744 3565 c-9 -14 -14 -34 -11 -44 3 -14 -2 -21 -18 -25 -39 -10
-119 -91 -150 -153 -25 -51 -29 -69 -30 -149 0 -130 19 -157 121 -171 32 -4
60 0 106 17 l62 22 15 -20 c9 -11 34 -46 56 -78 72 -103 94 -124 129 -124 24
0 36 6 46 25 12 22 10 30 -11 72 -13 27 -47 82 -75 123 -28 41 -54 80 -57 87
-4 7 5 26 21 45 43 51 57 86 57 142 0 53 -24 146 -37 146 -4 0 -8 6 -8 13 0
21 -51 62 -98 81 -62 24 -98 21 -118 -9z m122 -133 c23 -35 26 -138 4 -152
-11 -7 -20 -3 -32 13 -10 12 -18 27 -18 34 0 6 -12 21 -26 32 -24 19 -25 22
-10 42 9 14 13 33 9 50 -5 28 -5 29 25 18 17 -6 39 -23 48 -37z m-146 -185 c0
-5 10 -22 21 -39 26 -36 16 -50 -38 -52 l-38 -1 -3 46 c-2 25 2 58 8 74 l11
30 19 -25 c11 -14 20 -29 20 -33z"/>
<path d="M8213 3409 c-89 -11 -246 -46 -294 -65 l-41 -17 7 -51 c13 -94 8
-216 -9 -235 -22 -24 -20 -53 5 -85 18 -23 21 -43 24 -163 2 -76 6 -146 10
-155 10 -26 79 -24 105 2 22 22 25 75 11 210 -8 81 -6 100 14 100 32 0 171 52
192 71 41 40 23 114 -31 124 -35 7 -65 -4 -115 -40 -19 -14 -42 -25 -52 -25
-17 0 -19 9 -19 85 l0 84 38 10 c54 14 243 41 290 41 25 0 44 -6 49 -14 4 -8
20 -17 34 -21 21 -5 31 -1 48 21 36 45 20 105 -32 124 -34 11 -142 11 -234 -1z"/>
<path d="M8563 3389 c-22 -12 -35 -42 -27 -64 6 -14 55 -35 81 -35 26 0 102
-40 139 -72 82 -72 109 -156 76 -231 -19 -44 -70 -100 -82 -92 -4 3 -21 33
-38 69 -43 91 -96 121 -135 78 -27 -29 -20 -68 23 -142 22 -38 40 -73 40 -79
0 -6 -18 -16 -40 -22 -47 -14 -58 -8 -93 56 -35 63 -41 115 -18 167 22 49 83
118 104 118 8 0 26 11 40 25 22 23 24 29 15 64 -13 52 -43 60 -104 29 -61 -30
-142 -109 -175 -169 -17 -33 -17 -185 0 -239 21 -65 76 -147 113 -170 43 -26
113 -26 179 0 28 12 53 19 54 18 1 -2 11 -24 23 -50 61 -133 64 -138 85 -139
39 -2 52 2 68 21 22 26 14 63 -36 163 l-38 78 30 32 c37 39 103 135 104 151 0
6 4 33 8 59 5 27 4 69 0 93 -10 53 -72 148 -128 196 -84 72 -214 114 -268 87z"/>
<path d="M12070 3306 c-68 -46 -96 -141 -82 -277 7 -74 7 -76 -20 -103 -41
-40 -39 -83 6 -101 33 -14 33 -15 40 -94 3 -44 3 -99 0 -121 -6 -36 -3 -45 22
-71 33 -35 47 -36 91 -6 28 19 33 28 33 63 0 22 -4 65 -9 95 -5 30 -12 78 -15
106 -6 61 -3 64 90 88 69 18 94 38 94 77 0 24 -6 32 -37 45 -34 14 -43 14 -96
0 -67 -18 -63 -22 -71 82 -4 64 -2 78 15 103 25 35 40 35 166 3 165 -41 230
-50 248 -35 8 7 15 23 15 35 0 37 -31 64 -85 75 -27 5 -99 21 -160 35 -142 32
-199 33 -245 1z"/>
<path d="M12798 3317 c-18 -7 -28 -19 -30 -36 -2 -21 -10 -27 -43 -33 -72 -15
-168 -137 -195 -248 -16 -68 -8 -228 15 -295 47 -137 159 -188 296 -136 60 23
70 21 88 -22 48 -112 83 -176 98 -179 31 -7 73 13 79 37 4 16 -10 64 -41 140
-47 116 -47 116 -28 138 11 12 31 35 45 51 14 16 40 56 57 90 26 52 31 74 31
134 0 67 -17 134 -45 171 -34 47 -137 139 -175 157 -101 48 -107 49 -152 31z
m91 -119 c24 -12 67 -44 95 -72 71 -70 92 -146 64 -227 -15 -45 -67 -121 -80
-117 -10 4 -88 144 -88 159 0 22 -65 111 -91 125 -26 13 -32 13 -57 0 -24 -12
-28 -21 -27 -50 0 -21 9 -45 22 -58 28 -30 134 -251 124 -260 -4 -4 -33 -13
-64 -19 -52 -11 -59 -10 -78 7 -43 38 -69 112 -69 192 0 123 34 201 105 243
33 20 55 55 55 90 0 23 16 21 89 -13z"/>
<path d="M9160 3247 c-44 -21 -89 -57 -95 -78 -11 -34 20 -69 61 -69 19 0 45
5 56 11 31 17 43 -4 42 -75 0 -51 -6 -73 -29 -112 -41 -69 -95 -184 -109 -229
-3 -11 -10 -49 -15 -85 -11 -81 6 -123 61 -151 31 -16 61 -19 181 -20 124 -1
149 1 176 17 36 21 40 50 12 85 -18 22 -27 24 -138 27 -65 1 -128 5 -140 7
-43 10 -28 72 67 269 50 105 52 113 52 192 0 120 -23 178 -84 210 -32 17 -63
17 -98 1z"/>
<path d="M5174 3144 c-29 -28 -29 -48 6 -164 10 -36 26 -90 34 -121 18 -65 48
-87 91 -67 21 10 25 18 25 58 0 25 -6 70 -14 100 -8 30 -20 84 -27 120 -6 36
-16 73 -21 83 -13 26 -64 22 -94 -9z"/>
<path d="M13322 3141 c-37 -28 -43 -36 -40 -64 4 -46 44 -66 93 -48 20 7 39
10 42 7 3 -3 -2 -23 -11 -46 -30 -75 -24 -93 58 -176 41 -42 76 -84 79 -95 6
-22 -3 -25 -108 -34 -75 -7 -105 -24 -105 -60 0 -43 34 -60 132 -64 147 -5
217 34 226 127 6 66 -17 112 -91 185 l-58 58 17 76 c16 72 16 78 -1 109 -21
40 -29 43 -119 50 -68 6 -73 5 -114 -25z"/>
<path d="M16595 3160 c-71 -3 -137 -9 -146 -15 -61 -38 -99 -131 -106 -263 -4
-66 -8 -84 -21 -89 -39 -14 -82 -55 -82 -79 0 -34 36 -67 66 -61 14 2 26 1 28
-2 3 -4 1 -52 -4 -106 -7 -82 -6 -104 6 -122 20 -31 73 -31 102 0 20 21 22 34
22 144 l0 121 74 27 c81 29 101 45 111 87 5 21 1 33 -19 52 -32 32 -49 32
-110 0 l-48 -26 3 91 c5 126 5 126 169 126 137 0 150 4 164 51 8 27 -20 60
-54 66 -14 2 -83 1 -155 -2z"/>
<path d="M17117 3092 c-21 -24 -22 -68 -1 -76 9 -3 28 -6 42 -6 45 0 130 -56
163 -108 28 -43 30 -52 25 -109 -5 -45 -15 -75 -39 -112 -17 -28 -37 -51 -43
-51 -13 0 -44 63 -44 90 0 10 -4 21 -9 25 -5 3 -15 29 -21 59 -17 84 -58 115
-106 81 -34 -23 -37 -67 -10 -139 13 -35 28 -72 34 -82 21 -42 42 -95 42 -110
0 -34 -103 -45 -159 -16 -56 28 -71 57 -78 155 -5 70 -3 95 12 134 21 54 75
113 105 113 23 0 50 36 50 68 0 75 -68 86 -148 23 -114 -91 -161 -215 -141
-377 12 -99 29 -143 67 -183 57 -59 190 -82 290 -52 33 10 46 11 55 2 6 -6 28
-61 48 -122 42 -127 56 -149 99 -149 43 0 61 32 50 91 -8 44 -55 173 -70 194
-4 6 -11 24 -14 40 -6 26 -2 35 25 60 35 34 88 113 109 165 9 21 15 65 14 107
-1 83 -22 134 -80 202 -70 81 -225 129 -267 83z"/>
<path d="M17598 3074 c-19 -10 -31 -28 -39 -57 -12 -43 -27 -96 -54 -180 -19
-60 -19 -100 0 -165 22 -72 42 -85 223 -137 41 -13 62 -24 62 -34 0 -9 7 -65
15 -126 8 -60 15 -140 15 -176 0 -80 22 -112 73 -107 62 6 68 63 41 347 -9 95
-13 198 -10 241 5 58 3 80 -9 97 -18 26 -59 37 -86 22 -26 -14 -52 -75 -45
-105 3 -12 2 -25 -2 -28 -12 -7 -109 20 -138 38 -31 21 -31 42 6 173 37 130
39 176 8 197 -27 19 -26 19 -60 0z"/>
</g>
</svg>
