<?xml version="1.0" standalone="no"?>
<!DOCTYPE svg PUBLIC "-//W3C//DTD SVG 20010904//EN"
 "http://www.w3.org/TR/2001/REC-SVG-20010904/DTD/svg10.dtd">
<svg version="1.0" xmlns="http://www.w3.org/2000/svg"
 width="1879.818099pt" height="258.520925pt" viewBox="0 0 1879.818099 258.520925"
 preserveAspectRatio="xMidYMid meet">
<metadata>
Created by potrace 1.10, written by Peter Selinger 2001-2011
</metadata>
<g transform="translate(-34.094606,406.349251) scale(0.100000,-0.100000)"
fill="#000000" stroke="none">
<path d="M1465 4060 c-23 -4 -31 -11 -33 -30 -2 -14 -12 -34 -22 -45 -18 -19
-25 -56 -36 -180 -3 -33 -10 -64 -15 -70 -12 -12 -12 -52 1 -60 6 -3 10 -28
10 -54 0 -54 15 -73 55 -73 48 0 54 14 58 145 3 129 21 241 40 254 7 5 210 5
452 0 242 -4 478 -7 525 -6 139 2 234 0 450 -11 113 -6 367 -15 565 -20 198
-5 374 -9 390 -10 17 0 68 -1 115 -1 98 1 193 1 285 1 36 0 90 0 120 1 128 0
367 1 390 0 52 0 137 -1 180 0 156 1 499 -2 960 -10 560 -10 766 -12 958 -10
149 1 143 1 300 0 72 -1 467 -3 877 -6 525 -3 756 -8 782 -16 20 -6 49 -9 65
-5 32 8 33 8 89 0 26 -4 44 -2 48 5 9 15 1392 16 1401 1 4 -6 108 -10 280 -10
186 0 276 -3 281 -11 4 -7 89 -10 272 -8 184 2 267 0 269 -8 2 -6 -10 -22 -27
-36 -16 -14 -30 -30 -30 -35 0 -5 -7 -15 -15 -22 -20 -17 -75 -132 -75 -158 0
-32 62 -49 96 -27 14 9 32 14 39 11 21 -8 31 -207 19 -414 -5 -88 -7 -193 -5
-237 0 -16 -4 -95 -9 -175 -6 -80 -15 -246 -20 -370 -5 -124 -14 -295 -20
-380 -6 -85 -13 -225 -16 -311 -4 -136 -3 -159 11 -173 40 -40 68 -12 78 76 4
40 12 109 18 153 5 44 14 132 19 195 5 63 14 169 19 235 6 66 13 224 16 350 3
127 9 237 13 245 10 22 24 360 25 630 l2 235 54 0 c40 0 56 4 65 17 12 20 14
16 -57 108 -27 34 -45 66 -40 69 4 4 145 3 313 -2 401 -11 1316 -10 1855 3
237 5 563 12 725 15 169 3 299 10 304 15 6 6 218 10 561 10 335 0 555 4 561
10 5 5 251 10 624 11 668 1 639 4 610 -52 -27 -50 -41 -217 -25 -296 4 -17 16
-39 26 -49 17 -15 20 -16 44 0 14 10 25 26 25 39 0 12 7 33 16 46 15 21 15 26
-1 61 -16 36 -16 42 0 102 9 34 19 74 22 88 2 14 9 35 15 46 11 24 -8 70 -43
105 -20 20 -83 27 -94 9 -8 -13 -252 -13 -260 0 -8 13 -52 13 -60 1 -3 -6
-184 -10 -447 -11 -275 0 -446 -4 -452 -10 -6 -6 -210 -10 -551 -10 -336 0
-545 -4 -551 -10 -5 -5 -130 -12 -289 -15 -154 -3 -460 -10 -680 -15 -523 -14
-1752 -14 -2070 0 -137 5 -376 13 -530 16 -156 3 -284 9 -289 14 -6 6 -137 10
-322 10 -198 0 -315 4 -319 10 -9 14 -1447 14 -1462 -1 -7 -7 -43 -8 -104 -4
-52 3 -131 6 -176 7 -46 0 -89 1 -95 1 -7 0 -544 4 -1193 8 -649 4 -1236 11
-1305 14 -69 3 -681 7 -1360 10 -679 2 -1345 9 -1480 15 -294 12 -874 28
-1285 35 -165 3 -309 9 -320 14 -24 12 -168 19 -210 11z"/>
<path d="M555 2790 c-3 -5 -21 -10 -38 -10 -45 -1 -110 -38 -146 -84 -34 -43
-39 -67 -16 -86 23 -19 60 -4 94 38 31 40 96 70 126 58 20 -7 13 -62 -17 -120
-22 -45 -43 -107 -52 -155 -7 -38 14 -91 52 -133 22 -24 33 -28 83 -28 42 0
68 6 100 25 55 31 71 31 105 0 15 -14 32 -25 39 -25 7 0 26 -7 43 -15 39 -20
70 -12 121 32 40 34 41 36 41 97 0 52 -5 71 -33 116 -29 49 -36 55 -70 58 -27
2 -39 -1 -43 -13 -4 -8 -25 -24 -49 -35 -23 -10 -48 -27 -56 -36 -7 -9 -31
-28 -53 -43 -21 -14 -50 -34 -65 -43 -34 -23 -74 -23 -94 0 -23 25 -22 33 18
119 25 54 35 90 35 125 0 26 5 56 11 66 9 14 7 27 -7 57 -18 38 -21 40 -71 43
-28 2 -54 -2 -58 -8z m425 -310 c23 -23 28 -98 8 -118 -31 -31 -89 -1 -69 37
6 11 11 31 11 45 0 31 9 56 21 56 5 0 18 -9 29 -20z"/>
<path d="M2888 2783 c-9 -2 -22 -21 -29 -41 -7 -20 -20 -50 -29 -67 -9 -16
-19 -58 -22 -93 -7 -71 -17 -88 -58 -97 -35 -8 -82 -53 -78 -74 3 -12 17 -16
63 -16 l60 0 7 -55 c11 -81 32 -151 51 -165 9 -7 17 -17 17 -22 0 -17 47 -43
78 -43 37 0 52 17 52 58 0 28 -5 36 -30 45 -24 9 -35 24 -51 67 -12 30 -25 71
-29 90 -4 19 -9 42 -11 50 -3 12 8 15 65 13 38 -2 74 -7 80 -13 15 -15 52 -12
66 5 10 12 10 21 0 44 -13 31 -52 51 -101 51 -15 0 -39 4 -53 10 -34 12 -34
49 -2 121 34 80 39 105 20 123 -15 16 -32 18 -66 9z"/>
<path d="M1184 2702 c-12 -7 -15 -26 -35 -212 -6 -58 -15 -113 -20 -122 -5
-10 -9 -35 -9 -56 0 -53 29 -82 81 -82 l41 0 -2 93 c-1 50 3 133 9 182 15 111
14 187 -2 197 -15 10 -49 10 -63 0z"/>
<path d="M1363 2668 c-14 -23 -33 -250 -22 -270 16 -30 76 -49 132 -42 57 8
63 3 72 -68 8 -55 32 -78 81 -78 50 0 61 22 40 78 -10 26 -25 68 -33 94 -9 26
-31 61 -50 80 l-34 33 -39 -23 c-46 -26 -44 -26 -64 -6 -23 22 -20 59 9 104
29 45 29 50 13 85 -9 21 -18 25 -54 25 -24 0 -46 -6 -51 -12z"/>
<path d="M15782 2648 c-7 -7 -12 -31 -12 -54 0 -37 3 -43 28 -51 26 -9 81 2
98 20 4 4 33 7 65 7 48 0 60 -4 73 -22 13 -19 13 -25 0 -56 -8 -19 -12 -37
-10 -40 3 -2 -2 -19 -11 -36 -9 -17 -22 -56 -29 -86 -19 -79 -12 -84 103 -77
87 5 93 4 118 -19 47 -43 117 -26 148 36 7 14 19 25 27 25 12 0 15 -14 15 -62
0 -68 11 -86 46 -81 34 4 60 66 66 157 3 42 11 95 19 119 8 23 14 58 14 77 0
35 0 35 -45 35 -56 0 -62 -10 -71 -123 -5 -61 -11 -87 -21 -91 -25 -10 -33 3
-33 51 0 30 -7 55 -21 74 -19 27 -26 30 -67 27 -45 -3 -48 -5 -68 -48 -28 -59
-55 -82 -91 -78 -31 3 -33 20 -6 73 17 34 29 141 20 177 -11 44 -62 58 -210
58 -90 0 -137 -4 -145 -12z"/>
<path d="M18431 2642 c-23 -11 -37 -27 -43 -47 -18 -68 14 -82 98 -41 42 21
52 22 69 12 45 -30 18 -92 -52 -122 -28 -12 -33 -20 -33 -47 0 -62 52 -117
112 -117 33 0 80 -39 76 -64 -2 -17 -13 -23 -53 -29 -100 -17 -136 -30 -152
-54 -12 -18 -13 -29 -5 -47 10 -24 58 -41 68 -25 3 5 24 9 46 9 45 0 87 11
162 44 l48 21 32 -38 c44 -52 77 -67 153 -67 67 0 123 20 123 44 0 7 7 19 15
26 26 22 45 72 44 119 -2 85 -71 178 -134 180 -12 1 -26 6 -32 12 -5 5 -30 9
-54 7 -38 -3 -45 -7 -49 -28 -3 -14 -18 -51 -34 -82 -34 -72 -63 -79 -93 -21
-14 27 -29 39 -54 46 -41 10 -79 44 -79 69 0 9 10 24 23 33 25 16 67 87 67
113 0 29 -37 79 -71 96 -43 22 -153 21 -198 -2z m592 -359 c16 -19 20 -39 18
-86 -1 -31 -49 -67 -89 -67 -68 0 -105 56 -62 95 11 10 20 23 20 28 0 41 83
63 113 30z"/>
<path d="M2035 2610 c-3 -5 -19 -10 -34 -10 -35 0 -91 -27 -91 -44 0 -7 -9
-21 -19 -30 -10 -10 -21 -34 -24 -54 -3 -20 -10 -55 -16 -77 -24 -94 -24 -94
4 -150 14 -30 32 -55 39 -55 7 0 21 -9 31 -20 10 -11 26 -20 35 -20 9 0 32 -8
51 -17 64 -33 190 -22 215 18 3 6 16 14 29 19 26 10 35 41 42 154 3 49 1 82
-6 89 -6 6 -11 20 -11 32 0 30 -76 100 -153 140 -72 38 -82 40 -92 25z m53
-105 c20 -9 56 -37 80 -63 42 -46 43 -49 37 -97 -3 -27 -9 -60 -12 -73 -6 -24
-49 -52 -82 -52 -32 0 -132 28 -148 42 -24 20 -12 131 20 195 34 67 46 72 105
48z"/>
<path d="M3222 2608 c-16 -16 -16 -240 -1 -343 10 -66 14 -76 35 -81 12 -3 32
-3 43 1 18 5 21 15 21 55 0 27 5 52 10 55 6 3 10 17 10 30 0 13 -4 27 -10 30
-6 4 -10 60 -10 136 l0 129 -43 0 c-24 0 -48 -5 -55 -12z"/>
<path d="M17435 2610 c-3 -5 -19 -10 -36 -10 -38 0 -63 -14 -121 -70 -41 -37
-48 -50 -48 -82 0 -49 37 -116 111 -200 57 -64 71 -99 48 -114 -6 -3 -54 -9
-107 -13 -88 -5 -98 -8 -108 -29 -27 -54 19 -88 103 -78 157 18 171 23 219 73
27 28 39 33 79 33 25 0 56 -5 68 -12 12 -6 62 -15 111 -19 49 -5 94 -13 99
-18 10 -10 -34 -132 -55 -155 -12 -15 -10 -100 4 -114 7 -7 31 -12 55 -12 43
0 63 17 63 55 0 9 9 28 20 42 11 14 20 38 20 53 0 32 33 112 54 129 9 8 35 10
78 5 52 -5 69 -3 98 13 60 34 86 107 57 161 -7 12 -44 38 -82 57 -75 38 -134
45 -156 19 -7 -9 -23 -20 -34 -24 -13 -5 -26 -24 -33 -47 -16 -53 -47 -79
-104 -86 -59 -8 -73 6 -64 67 5 32 3 54 -9 75 -14 28 -20 31 -65 31 -71 0 -96
-15 -125 -77 -20 -41 -31 -53 -48 -53 -24 0 -87 57 -87 77 0 7 -18 33 -41 59
-22 26 -45 59 -50 72 -8 22 -6 29 18 48 15 13 33 23 39 24 6 0 23 9 37 20 27
22 130 29 142 10 12 -19 64 -11 75 11 28 51 -33 89 -142 89 -42 0 -80 -4 -83
-10z m260 -380 c0 -29 -32 -41 -41 -16 -9 24 4 48 23 44 12 -2 18 -12 18 -28z
m435 -5 c19 -22 8 -48 -25 -56 -58 -16 -96 11 -75 52 13 23 81 27 100 4z"/>
<path d="M16800 2530 c-8 -5 -43 -10 -77 -10 -57 0 -63 -2 -88 -32 -77 -92
-71 -141 25 -205 35 -24 73 -43 85 -43 60 0 74 -61 16 -70 -70 -10 -67 -62 6
-88 39 -15 43 -14 95 11 56 28 78 56 78 103 0 31 -26 84 -42 84 -6 0 -19 6
-27 14 -9 7 -42 21 -73 30 -32 9 -70 27 -85 40 l-27 23 34 18 c36 19 112 33
218 42 72 5 81 16 57 62 -15 31 -16 31 -98 31 -45 0 -89 -5 -97 -10z"/>
<path d="M2498 2433 c-27 -14 -48 -30 -48 -35 0 -6 -13 -26 -30 -45 -26 -29
-30 -41 -30 -94 0 -48 3 -61 18 -66 9 -3 25 -13 34 -21 33 -28 112 -62 144
-62 18 0 64 16 102 35 54 27 71 41 76 61 11 43 -12 59 -60 43 -22 -7 -44 -17
-51 -22 -21 -15 -110 -11 -137 7 -53 34 -21 100 55 112 48 8 69 26 69 59 0 17
-9 29 -30 40 -39 20 -57 18 -112 -12z"/>
</g>
</svg>
