<?xml version="1.0" standalone="no"?>
<!DOCTYPE svg PUBLIC "-//W3C//DTD SVG 20010904//EN"
 "http://www.w3.org/TR/2001/REC-SVG-20010904/DTD/svg10.dtd">
<svg version="1.0" xmlns="http://www.w3.org/2000/svg"
 width="2406.721874pt" height="903.538128pt" viewBox="0 0 2406.721874 903.538128"
 preserveAspectRatio="xMidYMid meet">
<metadata>
Created by potrace 1.10, written by Peter Selinger 2001-2011
</metadata>
<g transform="translate(-75.110280,978.667171) scale(0.100000,-0.100000)"
fill="#000000" stroke="none">
<path d="M1910 9780 c-8 -5 -29 -10 -46 -10 -57 0 -94 -19 -101 -52 -3 -16
-14 -34 -23 -41 -13 -9 -20 -32 -24 -77 -17 -172 -27 -318 -31 -455 -3 -82 -7
-168 -10 -190 -19 -134 -27 -253 -35 -515 -5 -162 -14 -353 -20 -425 -6 -71
-15 -184 -20 -250 -6 -66 -15 -205 -20 -310 -9 -185 -17 -276 -40 -480 -23
-199 -31 -314 -38 -540 -4 -126 -10 -235 -15 -242 -4 -6 -10 -355 -13 -775 -3
-420 -9 -807 -14 -862 -6 -78 -5 -108 7 -143 13 -37 13 -52 4 -84 -7 -22 -9
-44 -5 -50 10 -17 4 -907 -6 -934 -5 -14 -9 -49 -8 -77 1 -79 -17 -195 -41
-267 -29 -84 -26 -105 17 -109 53 -5 68 16 76 108 3 44 11 92 17 107 5 15 12
87 15 162 3 74 8 139 11 145 11 17 4 981 -7 1011 -5 14 -7 32 -3 38 5 7 11
356 15 777 4 421 12 860 17 975 22 452 21 438 41 625 6 47 15 137 20 200 6 63
15 162 21 220 5 58 14 195 19 305 5 110 14 241 20 290 13 117 29 348 40 605 5
113 14 257 20 320 6 63 13 183 15 265 7 216 34 473 60 578 8 29 49 57 84 57
11 0 22 4 25 9 3 4 96 9 206 10 111 0 210 6 220 11 12 6 29 6 50 -1 23 -9 42
-8 75 1 32 9 52 9 77 1 18 -6 87 -12 153 -13 73 -1 136 -7 160 -15 30 -11 86
-14 230 -12 129 2 201 0 225 -9 19 -6 71 -12 115 -12 177 -1 378 0 730 4 607
7 1463 3 1490 -8 10 -3 53 -1 96 5 73 11 80 11 99 -6 l21 -19 -22 -17 c-23
-17 -23 -11 2 -134 21 -100 31 -215 40 -465 35 -958 39 -1250 19 -1425 -13
-116 -15 -314 -5 -609 5 -152 4 -186 -10 -222 -9 -24 -15 -56 -13 -71 3 -24 8
-28 40 -31 35 -3 38 -1 55 40 22 48 22 139 4 458 -13 219 -13 197 -1 315 9 85
29 426 30 490 0 11 -5 92 -11 180 -6 88 -15 369 -20 625 -10 565 -17 741 -29
755 -5 6 -7 36 -5 65 3 55 3 55 38 58 20 2 82 -2 139 -9 56 -6 195 -15 308
-20 113 -5 261 -13 330 -18 199 -16 413 -31 575 -41 504 -31 683 -43 880 -60
72 -6 173 -13 225 -16 52 -2 120 -6 150 -10 30 -3 120 -6 200 -7 80 -1 152 -7
160 -12 9 -6 134 -10 292 -11 152 -1 281 -5 287 -8 5 -4 140 -6 300 -7 236 0
299 -3 334 -15 32 -12 64 -14 133 -9 63 4 99 2 120 -7 18 -8 75 -13 149 -13
137 0 140 -2 106 -76 -15 -31 -22 -74 -26 -149 -6 -108 -17 -237 -34 -395 -12
-103 -28 -224 -62 -447 -24 -161 -42 -1278 -24 -1472 5 -49 3 -92 -3 -115 -6
-20 -13 -91 -16 -159 l-5 -123 34 -16 c32 -16 36 -15 55 2 20 19 21 21 20 218
-7 1013 3 1531 30 1657 6 30 15 93 20 140 5 47 14 114 20 150 6 36 15 108 20
160 5 52 14 124 20 160 6 36 14 99 16 140 3 41 10 79 15 85 5 5 9 27 9 50 0
23 4 45 9 50 6 6 11 35 13 65 3 52 4 55 28 52 14 -2 72 -7 130 -10 58 -4 112
-12 120 -17 14 -9 95 -15 450 -36 168 -9 316 -19 585 -39 83 -7 204 -13 270
-14 66 -1 127 -6 135 -12 8 -5 116 -13 240 -17 124 -4 340 -12 480 -17 443
-17 774 -25 815 -20 22 3 81 1 130 -3 50 -4 109 -8 133 -7 89 0 114 -1 377
-11 149 -5 389 -14 535 -19 684 -25 810 -30 1030 -40 263 -11 462 -23 655 -40
72 -7 180 -13 240 -14 61 -1 117 -6 125 -11 8 -6 76 -13 150 -18 74 -4 194
-12 265 -18 72 -5 162 -11 201 -13 39 -2 78 -7 85 -12 16 -10 331 -26 487 -24
146 1 145 2 138 -123 -4 -56 -8 -194 -11 -307 -7 -274 -13 -435 -25 -615 -6
-82 -13 -377 -16 -654 -3 -278 -9 -512 -14 -520 -4 -9 -9 -167 -11 -351 l-3
-335 27 -9 c23 -8 31 -6 49 12 21 21 22 29 24 314 1 161 3 327 3 368 1 41 1
116 0 165 0 50 0 173 1 275 1 102 1 203 1 225 0 22 4 117 9 210 6 94 12 298
15 455 3 157 10 297 14 312 5 14 10 99 10 188 1 95 6 171 12 183 6 11 9 38 6
59 -3 24 0 50 8 66 8 15 16 35 19 45 5 15 22 17 165 17 90 0 172 -5 188 -11
16 -6 138 -12 291 -14 159 -2 277 -8 298 -15 28 -10 42 -8 79 5 24 10 52 14
62 11 18 -7 486 -8 559 -1 22 2 52 9 67 14 18 7 57 7 119 0 51 -5 191 -9 311
-9 175 1 230 -2 275 -15 31 -9 69 -14 85 -11 16 3 54 -1 84 -10 36 -10 70 -14
98 -9 28 4 63 0 100 -10 31 -9 63 -14 71 -11 9 3 41 -1 71 -10 34 -10 71 -14
96 -10 23 4 58 2 77 -4 39 -12 213 -37 336 -49 44 -4 87 -11 95 -16 8 -5 55
-12 104 -16 116 -9 301 -34 389 -54 39 -8 119 -15 180 -16 60 0 121 -5 135
-11 14 -5 62 -11 106 -13 115 -4 183 -14 243 -36 29 -10 61 -19 71 -19 37 0
49 -30 55 -140 3 -58 10 -181 16 -275 6 -93 11 -199 11 -234 -1 -35 6 -86 13
-112 9 -30 13 -68 9 -102 -4 -37 0 -70 11 -105 12 -36 16 -77 14 -144 -1 -51
2 -100 7 -108 8 -12 25 -356 24 -487 -1 -190 15 -696 26 -818 3 -33 8 -166 13
-295 4 -129 12 -242 17 -250 10 -15 25 -393 24 -616 -1 -88 3 -130 15 -158 21
-49 20 -139 0 -200 -13 -39 -16 -75 -12 -184 4 -105 2 -147 -10 -182 -11 -35
-13 -80 -10 -205 3 -88 1 -171 -3 -185 -5 -14 -11 -176 -13 -360 -3 -184 -10
-369 -16 -410 -6 -41 -15 -104 -20 -140 -5 -36 -14 -90 -21 -120 -8 -35 -14
-207 -18 -475 -4 -308 -9 -426 -19 -442 -21 -38 -15 -71 18 -88 39 -20 63 -19
85 6 17 18 18 24 6 52 -21 51 -24 86 -11 126 8 24 13 138 15 346 1 171 8 348
14 395 6 47 15 128 19 180 5 52 11 102 15 110 4 8 10 134 13 280 15 747 20
906 30 930 7 16 10 78 7 170 -3 113 0 155 12 189 18 53 20 184 2 214 -13 24
-27 272 -31 577 -2 112 -7 200 -15 222 -8 25 -11 89 -8 200 2 89 0 173 -4 185
-5 13 -11 85 -15 160 -3 76 -9 143 -13 148 -3 6 -9 181 -13 390 -3 209 -7 390
-7 403 -1 56 -2 105 -1 215 1 86 -3 132 -16 169 -12 37 -15 68 -11 114 4 45 2
76 -9 106 -10 29 -14 61 -10 98 3 30 1 73 -5 95 -12 43 -26 248 -37 566 -4
126 -11 201 -19 210 -22 26 -152 85 -208 93 -22 4 -89 10 -150 14 -60 4 -116
11 -123 16 -8 5 -55 10 -105 11 -141 5 -295 21 -367 39 -63 16 -197 35 -290
40 -25 2 -61 7 -80 11 -19 4 -53 9 -75 10 -81 6 -202 22 -213 29 -17 10 -156
29 -232 31 -36 1 -85 7 -109 14 -23 7 -50 10 -59 6 -8 -3 -37 2 -65 11 -34 11
-64 14 -98 10 -33 -5 -67 -1 -105 10 -31 9 -70 14 -87 11 -18 -2 -57 2 -87 10
-34 9 -105 14 -185 14 -71 0 -161 0 -200 1 -38 0 -96 0 -128 -1 -31 -1 -66 3
-77 9 -28 15 -160 12 -211 -5 -38 -13 -122 -14 -574 -10 -763 7 -1067 14
-1090 25 -22 10 -342 31 -551 35 -72 1 -137 6 -145 11 -8 5 -72 12 -144 16
-71 5 -177 13 -235 19 -58 6 -150 12 -206 13 -56 2 -107 7 -115 12 -8 5 -95
12 -194 16 -99 4 -229 12 -290 18 -247 23 -462 33 -1235 60 -157 5 -386 14
-510 20 -296 14 -765 28 -1290 40 -234 5 -537 14 -675 20 -137 6 -316 12 -396
14 -81 2 -155 7 -165 11 -11 5 -93 13 -184 17 -91 5 -228 13 -305 18 -77 5
-216 14 -310 20 -93 6 -237 15 -320 21 -82 5 -182 11 -220 12 -39 2 -77 7 -85
12 -8 5 -53 11 -100 12 -167 4 -315 18 -339 32 -15 8 -42 12 -75 8 -30 -3 -71
1 -101 10 -37 12 -75 14 -146 9 -75 -5 -106 -2 -140 10 -36 13 -89 15 -294 14
-137 -1 -295 3 -350 9 -55 6 -185 10 -290 10 -104 -1 -233 4 -285 11 -55 7
-130 9 -180 6 -62 -5 -96 -3 -125 7 -28 10 -93 15 -214 16 -96 1 -179 5 -185
9 -6 4 -67 10 -136 15 -69 4 -181 12 -250 17 -162 13 -397 27 -635 40 -104 6
-251 14 -325 20 -74 5 -211 14 -305 20 -93 6 -237 15 -320 20 -82 5 -258 11
-390 14 -144 2 -252 9 -269 16 -21 8 -255 10 -831 10 -604 -1 -812 1 -842 10
-34 11 -49 10 -89 -4 -69 -23 -449 -23 -518 0 -40 14 -80 16 -240 12 -146 -4
-200 -2 -231 9 -21 7 -75 13 -120 13 -44 0 -253 2 -465 5 -245 3 -390 1 -400
-5z"/>
<path d="M12595 7471 c-6 -5 -21 -11 -35 -13 -21 -2 -26 -9 -28 -40 -6 -70 65
-76 131 -12 30 30 35 39 26 55 -10 20 -76 27 -94 10z"/>
<path d="M13544 7406 c-66 -36 -74 -77 -19 -103 34 -16 36 -16 58 5 13 12 28
22 34 22 13 0 43 33 43 48 0 14 -53 42 -77 41 -10 -1 -28 -6 -39 -13z"/>
<path d="M14553 7306 c-34 -31 -36 -36 -25 -60 17 -37 49 -41 109 -13 91 42
105 65 53 92 -50 26 -95 19 -137 -19z"/>
<path d="M15277 7214 c-69 -69 14 -115 103 -57 33 22 40 32 38 53 -3 23 -7 25
-59 28 -49 3 -59 0 -82 -24z"/>
<path d="M16546 7144 c-24 -23 -19 -54 11 -86 49 -51 143 -33 143 27 0 18 -12
29 -52 49 -60 30 -80 32 -102 10z"/>
<path d="M4255 6213 c-60 -18 -85 -38 -85 -68 0 -26 29 -55 54 -55 10 0 40 12
66 26 28 15 59 24 76 22 26 -3 29 -7 32 -46 2 -24 -1 -49 -6 -55 -4 -7 -14
-32 -21 -57 -7 -25 -16 -58 -21 -75 -14 -47 -23 -141 -16 -169 4 -15 14 -26
29 -28 38 -5 119 21 147 47 28 26 75 34 82 13 3 -7 4 -41 3 -76 -1 -35 3 -66
9 -71 25 -19 70 -21 116 -6 37 12 52 24 64 49 8 17 25 41 37 52 28 25 69 107
69 137 0 34 -30 57 -76 57 -21 0 -54 9 -72 20 -41 25 -74 25 -97 0 -10 -11
-22 -20 -28 -20 -5 0 -30 -17 -56 -39 -55 -45 -83 -61 -109 -61 -26 0 -33 20
-16 51 7 13 13 38 14 55 0 17 3 34 7 38 15 15 33 84 33 131 0 66 -17 122 -40
135 -27 14 -136 10 -195 -7z m525 -392 c-1 -34 -45 -96 -71 -99 -59 -7 -57 63
3 125 l33 34 17 -22 c10 -11 18 -29 18 -38z"/>
<path d="M5009 6187 c-19 -18 -18 -539 1 -562 18 -22 53 -18 78 8 22 23 22 24
5 78 -14 44 -18 95 -18 269 l-1 215 -26 3 c-14 2 -32 -3 -39 -11z"/>
<path d="M5173 6148 c-30 -47 -43 -204 -21 -255 19 -45 49 -73 78 -73 14 0 31
-5 38 -12 15 -15 16 -80 2 -94 -11 -11 0 -86 19 -136 12 -32 44 -37 72 -12 16
15 18 29 12 125 -4 70 -2 113 5 121 5 7 12 47 14 88 l3 75 -42 -1 c-34 -1 -47
-6 -63 -27 -41 -51 -73 -23 -61 53 4 25 13 55 19 67 19 34 -8 93 -42 93 -14 0
-28 -6 -33 -12z"/>
<path d="M6388 6123 c-9 -10 -19 -29 -23 -43 -8 -25 -9 -46 -21 -270 -6 -128
-9 -135 -82 -177 -36 -21 -47 -24 -68 -15 -22 11 -24 17 -24 82 0 69 1 71 29
81 53 19 52 67 -1 87 -44 16 -86 -9 -117 -71 -21 -43 -22 -53 -12 -86 6 -21
11 -48 11 -60 0 -36 39 -101 66 -111 45 -18 100 -12 131 14 15 12 38 28 51 35
20 10 23 9 32 -13 12 -32 42 -48 82 -44 53 5 57 29 14 91 -28 41 -36 61 -31
77 6 19 13 21 58 20 72 -3 74 -3 97 22 18 19 18 23 5 38 -10 11 -39 20 -76 24
-33 3 -65 8 -70 12 -16 10 -10 137 10 194 25 72 17 124 -20 128 -15 2 -32 -4
-41 -15z"/>
<path d="M5787 6096 c-57 -61 -88 -141 -109 -276 -11 -74 -11 -187 1 -276 0
-6 19 -17 41 -24 36 -12 48 -11 98 4 70 22 106 54 142 128 34 71 70 178 70
212 0 14 5 28 10 31 25 15 0 149 -33 183 -13 12 -31 16 -69 15 -27 -1 -66 4
-85 12 -44 19 -40 19 -66 -9z m158 -92 c13 -14 16 -32 12 -98 -5 -104 -51
-219 -108 -271 -47 -42 -86 -47 -95 -10 -10 40 14 217 39 285 9 25 17 51 17
59 0 8 7 23 17 33 21 23 95 25 118 2z"/>
<path d="M6785 6060 c-11 -13 -18 -33 -17 -53 2 -30 3 -101 2 -179 0 -18 4
-98 9 -178 5 -80 9 -164 10 -187 1 -23 8 -49 17 -57 13 -14 19 -14 42 -2 l26
14 -1 316 c-1 230 -5 321 -13 332 -18 20 -54 17 -75 -6z"/>
<path d="M11000 5865 c-19 -7 -51 -14 -71 -14 -28 -1 -40 -8 -60 -33 -77 -105
-82 -119 -82 -263 1 -188 17 -220 107 -220 76 1 126 33 160 102 32 65 55 68
69 9 8 -32 16 -41 54 -58 43 -19 47 -19 90 -3 31 12 51 29 69 56 43 68 59 50
68 -75 4 -54 9 -103 12 -107 9 -15 72 -10 88 7 22 21 20 42 -9 89 -16 25 -25
55 -25 81 l0 41 63 9 c58 8 62 11 65 36 3 22 -2 30 -23 38 -14 5 -39 10 -54
10 -16 0 -34 6 -41 14 -15 20 -8 180 10 223 13 29 12 34 -5 52 -19 22 -79 29
-90 11 -14 -23 -18 -159 -5 -190 12 -30 11 -32 -21 -59 -30 -25 -32 -31 -22
-53 10 -22 7 -28 -34 -61 -51 -41 -90 -47 -116 -19 -28 31 -20 58 27 98 50 41
76 88 58 106 -11 11 -89 2 -98 -13 -3 -5 -17 -9 -30 -9 l-26 0 4 89 c2 64 -1
93 -11 105 -16 19 -71 20 -121 1z m44 -81 c21 -20 21 -133 0 -193 -22 -63 -61
-133 -90 -159 -33 -29 -54 -18 -71 39 -19 63 -16 123 7 164 11 20 20 44 20 54
0 23 81 111 103 111 8 0 23 -7 31 -16z"/>
<path d="M9770 5846 c-96 -35 -134 -60 -143 -94 -17 -69 35 -82 107 -27 26 19
50 35 54 35 5 0 14 -11 20 -25 10 -21 6 -36 -27 -107 -47 -103 -61 -208 -30
-239 15 -15 28 -17 71 -12 29 3 57 9 63 14 5 5 19 9 32 9 19 0 25 -8 35 -46
17 -60 34 -69 95 -45 59 22 73 48 97 178 l18 92 -29 25 c-39 35 -74 33 -117
-8 -20 -18 -36 -40 -36 -47 0 -15 -95 -69 -122 -69 -32 0 -37 32 -14 80 42 90
55 143 52 209 -6 90 -38 110 -126 77z m290 -366 c0 -19 -24 -60 -35 -60 -7 0
-19 7 -26 16 -11 14 -10 19 10 35 25 20 51 25 51 9z"/>
<path d="M11707 5800 c-35 -33 -40 -42 -31 -57 6 -10 20 -20 30 -22 32 -6 54
-32 54 -66 0 -17 -3 -35 -7 -39 -10 -10 -33 -78 -33 -100 0 -10 -13 -44 -28
-75 -38 -74 -49 -181 -22 -214 18 -21 18 -21 55 -4 29 14 50 17 90 12 41 -6
55 -3 68 10 36 35 6 71 -66 81 -47 7 -47 7 -47 45 0 21 4 40 9 43 5 3 11 20
14 38 2 18 16 60 31 93 41 96 30 233 -23 277 -33 26 -47 23 -94 -22z"/>
<path d="M10393 5788 c-6 -7 -13 -44 -17 -83 -3 -38 -8 -97 -12 -130 -5 -52
-3 -64 16 -87 12 -17 31 -28 45 -28 47 0 58 -26 52 -116 -5 -70 -3 -84 12 -98
25 -23 74 -20 96 5 17 18 18 23 5 52 -7 18 -16 70 -19 117 -3 47 -10 91 -14
98 -5 6 -25 12 -46 12 -20 0 -42 5 -49 12 -14 14 -16 80 -2 94 5 5 11 43 12
84 l3 75 -36 3 c-21 2 -40 -2 -46 -10z"/>
<path d="M17344 5756 c-45 -11 -88 -27 -97 -35 -21 -17 -22 -55 -1 -75 25 -26
58 -19 91 19 23 25 40 35 61 35 45 0 82 -46 52 -65 -5 -3 -10 -20 -10 -37 0
-18 -4 -45 -9 -62 -5 -17 -18 -66 -28 -109 -15 -70 -16 -81 -2 -105 33 -61
112 -71 165 -21 24 23 53 23 64 -1 4 -8 14 -28 21 -43 30 -63 76 -57 151 21
50 52 58 74 65 177 3 58 0 76 -16 103 -18 28 -26 32 -64 32 -56 0 -105 -32
-132 -85 -11 -22 -28 -49 -38 -60 -9 -11 -31 -37 -48 -57 -23 -28 -39 -38 -61
-38 l-29 0 6 58 c4 31 15 82 26 112 10 30 20 90 21 133 3 75 2 80 -25 103 -33
29 -55 29 -163 0z m457 -290 c9 -19 7 -32 -13 -71 -13 -26 -33 -54 -45 -62
-20 -13 -23 -12 -37 9 -21 31 -6 95 29 126 33 28 53 28 66 -2z"/>
<path d="M10229 5744 c-9 -12 -13 -61 -14 -187 -1 -95 -5 -188 -9 -208 -10
-44 8 -62 56 -57 l33 3 2 145 c1 80 5 172 9 205 5 52 3 64 -16 88 -24 31 -42
34 -61 11z"/>
<path d="M18490 5707 c-14 -6 -27 -12 -29 -14 -2 -1 -3 -95 -2 -209 l2 -206
-28 -53 c-27 -53 -27 -54 -9 -74 26 -29 66 -26 112 8 55 40 70 61 77 105 10
63 26 73 84 51 26 -10 57 -26 68 -35 11 -10 30 -23 42 -29 27 -14 100 -15 108
-1 12 20 38 9 76 -29 52 -55 97 -63 158 -28 52 29 64 59 31 77 -15 8 -30 8
-51 1 -37 -13 -76 0 -90 32 -8 18 -5 31 16 69 15 26 35 48 48 52 20 5 57 55
57 77 0 11 -54 39 -76 39 -25 0 -83 -68 -114 -137 -15 -33 -37 -66 -48 -72
-28 -15 -57 -14 -72 3 -9 12 -4 28 25 80 35 62 35 66 21 99 -36 86 -168 42
-150 -50 7 -37 -18 -65 -55 -61 -25 3 -26 6 -36 93 -14 123 -44 188 -96 209
-22 9 -40 16 -42 15 -1 0 -13 -5 -27 -12z m92 -214 c21 -19 26 -111 6 -131
-19 -19 -38 -14 -38 10 0 12 -5 36 -12 54 -9 27 -9 38 2 59 16 30 18 30 42 8z"/>
<path d="M17916 5692 c-3 -5 0 -53 6 -108 6 -54 12 -163 13 -241 1 -79 3 -144
6 -145 60 -37 86 -37 100 0 8 19 8 36 0 58 -6 17 -11 46 -11 65 0 19 -7 54
-16 79 -13 36 -14 67 -9 158 5 83 4 116 -5 127 -13 16 -75 21 -84 7z"/>
<path d="M18086 5688 c-15 -54 -22 -146 -17 -213 l6 -80 45 -23 c49 -24 51
-27 76 -125 14 -55 22 -71 41 -78 33 -12 46 -11 67 4 17 12 16 16 -7 67 -13
30 -27 86 -30 123 -3 37 -9 72 -12 77 -4 6 -26 10 -50 10 -24 0 -47 6 -52 13
-11 18 -7 108 7 151 11 34 10 40 -11 62 -24 26 -57 32 -63 12z"/>
<path d="M19343 5625 c-25 -11 -33 -20 -33 -40 0 -30 30 -45 90 -45 30 0 40
-4 45 -20 7 -22 -18 -70 -35 -70 -16 0 -41 -46 -34 -63 3 -8 22 -26 42 -40 28
-18 40 -36 50 -70 14 -46 14 -46 -20 -79 -18 -19 -39 -46 -47 -61 -13 -24 -12
-29 4 -47 18 -20 61 -26 80 -12 30 21 55 68 55 102 0 48 24 72 45 44 8 -10 12
-27 9 -36 -10 -32 8 -89 32 -105 19 -12 30 -13 56 -4 40 14 108 79 108 102 0
10 8 24 18 31 38 28 56 192 27 248 -20 39 -44 44 -98 20 -44 -19 -127 -102
-127 -126 0 -6 -8 -19 -19 -28 -17 -16 -20 -16 -35 -1 -9 9 -16 24 -16 34 0 9
-7 26 -15 37 -20 27 -18 53 6 73 15 12 22 29 23 60 1 36 -4 47 -28 66 -54 43
-127 55 -183 30z m423 -250 c8 -33 -3 -87 -28 -141 -26 -53 -47 -63 -71 -33
-21 26 -16 69 14 111 10 15 19 31 19 35 0 17 31 53 45 53 8 0 17 -11 21 -25z"/>
<path d="M9403 3289 c-29 -11 -40 -30 -47 -84 -4 -27 -10 -79 -14 -115 -5 -36
-17 -82 -27 -103 -15 -31 -17 -43 -8 -66 6 -17 7 -35 2 -42 -5 -8 -9 -53 -9
-100 0 -94 -4 -102 -57 -113 -41 -9 -55 -27 -51 -68 3 -29 7 -33 33 -36 66 -6
75 -11 75 -42 0 -16 -4 -32 -10 -35 -6 -4 -10 -70 -10 -165 0 -95 -4 -161 -10
-165 -5 -3 -10 -30 -10 -59 0 -30 -7 -70 -16 -91 -8 -20 -14 -53 -12 -73 3
-36 4 -37 43 -37 32 0 41 5 51 25 36 77 50 149 60 305 4 55 11 105 16 112 5 6
8 67 7 135 l-2 123 59 16 c32 8 67 19 77 24 11 4 74 5 142 2 139 -6 155 1 155
62 0 41 -37 58 -91 42 -20 -6 -79 -11 -132 -11 -53 0 -99 -4 -102 -10 -9 -15
-81 -12 -94 4 -9 10 -11 62 -8 178 5 186 17 275 38 289 8 6 170 9 415 7 431
-3 434 -3 434 48 0 50 -47 67 -113 39 -27 -11 -92 -14 -315 -14 -154 0 -293 4
-309 9 -39 12 -136 18 -160 9z"/>
<path d="M10806 3180 c-16 -5 -42 -25 -58 -44 -16 -19 -37 -38 -48 -41 -10 -3
-21 -19 -25 -35 -3 -16 -12 -33 -19 -39 -42 -35 -136 -304 -136 -390 0 -25 -8
-64 -18 -86 -11 -25 -16 -62 -15 -100 1 -33 -3 -73 -8 -90 -6 -21 -4 -45 6
-79 8 -28 13 -64 9 -81 -4 -25 12 -108 42 -208 3 -9 24 -27 47 -38 23 -12 49
-27 57 -34 8 -7 41 -21 73 -31 49 -15 65 -16 103 -6 24 7 61 12 82 12 20 0 51
9 69 19 17 11 48 23 67 27 20 3 52 19 72 35 41 33 47 34 62 17 9 -13 13 -28
31 -141 10 -62 43 -183 69 -257 9 -25 17 -55 18 -66 1 -12 12 -40 23 -62 12
-23 21 -50 21 -60 0 -28 32 -52 69 -52 41 0 49 21 23 63 -10 18 -34 77 -51
130 -18 53 -37 99 -42 102 -5 4 -9 19 -9 36 0 16 -8 55 -18 86 -25 76 -52 192
-52 220 0 12 -4 25 -10 28 -25 15 -9 60 35 99 37 33 53 60 84 136 21 52 44
127 51 165 7 39 16 83 21 99 14 44 11 167 -5 217 -7 24 -21 70 -30 102 -25 85
-101 168 -170 184 -75 18 -198 8 -247 -20 -41 -23 -46 -35 -29 -68 14 -26 64
-25 124 2 63 28 115 19 167 -28 22 -20 39 -41 39 -48 0 -7 7 -19 16 -26 30
-25 57 -129 56 -214 -1 -104 -37 -311 -58 -336 -8 -8 -14 -25 -14 -36 0 -29
-54 -85 -74 -77 -13 5 -16 22 -16 84 0 44 -4 82 -10 85 -5 3 -10 22 -10 40 0
36 -17 119 -29 144 -4 8 -20 19 -35 24 -24 8 -32 5 -54 -17 -25 -24 -26 -28
-13 -58 22 -57 36 -112 58 -236 3 -18 9 -35 14 -38 5 -3 9 -32 9 -64 0 -53 -3
-61 -27 -77 -37 -25 -90 -47 -192 -79 -77 -25 -88 -26 -135 -15 -114 27 -135
39 -163 94 -22 44 -27 70 -32 162 -10 178 9 380 43 474 9 24 16 54 16 66 0 12
9 34 20 48 11 14 20 36 20 50 0 13 9 36 20 50 11 14 20 32 20 41 0 8 8 21 18
28 9 7 25 25 35 40 9 15 35 37 57 48 22 11 44 29 50 39 14 26 13 64 -2 79 -14
14 -21 14 -62 2z"/>
<path d="M12196 3172 c-3 -5 -5 -24 -4 -43 3 -107 10 -661 10 -754 -1 -60 -1
-153 -1 -205 0 -52 0 -108 0 -125 -11 -327 -21 -511 -31 -560 -6 -33 -12 -76
-13 -95 -2 -33 0 -35 34 -38 56 -5 66 15 75 148 4 63 8 416 9 785 1 455 6 701
14 768 7 54 10 105 7 113 -6 15 -91 20 -100 6z"/>
<path d="M905 2251 c-11 -5 -35 -10 -53 -10 -45 -1 -67 -15 -86 -52 -20 -40
-20 -44 0 -63 24 -25 55 -19 103 19 31 25 54 35 78 35 58 0 73 -14 73 -70 0
-27 -4 -52 -10 -55 -5 -3 -10 -22 -10 -41 0 -19 -11 -57 -25 -84 -39 -77 -52
-128 -58 -221 -5 -74 -3 -89 11 -102 15 -14 22 -14 69 2 28 10 73 35 99 56 55
45 70 41 95 -24 8 -24 22 -47 30 -52 8 -5 50 -9 94 -9 l80 0 40 51 c22 28 51
62 63 76 13 14 30 50 38 80 16 63 19 196 4 224 -17 31 -64 51 -96 39 -15 -6
-46 -8 -70 -4 -78 11 -75 14 -191 -192 -34 -62 -126 -146 -154 -142 -33 4 -34
26 -5 89 13 30 27 70 29 89 3 19 16 62 31 95 21 49 26 76 26 146 0 111 -11
123 -113 126 -40 2 -81 -1 -92 -6z m558 -288 c9 -9 17 -30 17 -47 0 -39 -33
-132 -60 -168 -11 -15 -20 -32 -20 -37 0 -15 -54 -41 -84 -41 -35 0 -58 37
-50 79 4 17 11 34 15 37 5 3 9 13 9 23 0 9 14 30 30 46 21 20 30 38 30 61 0
65 63 91 113 47z"/>
<path d="M1708 2193 c-14 -34 -19 -122 -19 -303 0 -165 5 -236 20 -273 10 -25
15 -28 48 -25 38 3 38 4 41 50 2 26 -4 62 -12 83 -23 53 -22 313 0 377 8 26
14 61 12 80 -3 30 -6 33 -41 36 -33 3 -38 0 -49 -25z"/>
<path d="M2815 2205 c-16 -8 -43 -14 -58 -15 -32 0 -97 -31 -144 -69 l-33 -26
0 -103 c0 -107 6 -129 47 -173 46 -50 73 -117 73 -184 0 -34 -5 -66 -12 -73
-7 -7 -33 -12 -59 -12 -56 0 -99 -14 -99 -33 0 -35 103 -93 143 -81 35 10 86
52 102 84 23 44 19 163 -6 240 -21 59 -68 142 -90 155 -13 9 -11 99 3 130 17
37 58 55 127 55 88 0 111 11 111 55 0 31 -4 37 -36 50 -20 8 -37 15 -38 14 0
0 -14 -7 -31 -14z"/>
<path d="M3907 2199 c-22 -13 -22 -53 0 -74 14 -14 28 -16 80 -11 45 5 72 2
98 -8 34 -15 35 -16 35 -74 0 -69 -6 -76 -75 -93 -62 -16 -75 -25 -75 -54 0
-28 43 -65 75 -65 36 0 75 -37 75 -71 0 -17 5 -39 11 -51 11 -20 7 -37 -26
-113 -19 -43 -65 -83 -100 -87 -60 -6 -38 -81 28 -91 43 -6 88 22 127 79 61
90 70 118 70 204 0 82 -12 123 -44 149 -26 22 -20 73 14 111 26 31 29 43 30
102 0 77 -3 80 -106 122 -65 26 -189 40 -217 25z"/>
<path d="M1945 2140 c-29 -32 -45 -199 -30 -315 10 -72 25 -85 102 -85 l64 0
-2 -82 c-3 -88 4 -122 29 -150 17 -20 30 -22 52 -8 12 7 15 32 16 107 0 54 6
122 13 150 19 83 -16 121 -81 89 -37 -19 -89 -21 -106 -4 -14 14 -16 102 -3
126 5 10 12 49 16 88 6 59 4 73 -10 87 -22 22 -38 21 -60 -3z"/>
<path d="M4458 2099 c-30 -15 -46 -35 -73 -89 -57 -114 -68 -155 -67 -263 0
-59 4 -103 11 -110 6 -6 11 -27 11 -47 0 -57 23 -80 78 -80 48 0 58 4 131 53
74 50 144 168 172 294 16 70 -1 132 -48 173 -33 30 -46 34 -90 30 -12 -1 -30
8 -40 20 -30 36 -45 39 -85 19z m132 -125 c47 -44 50 -49 50 -98 0 -68 -36
-142 -102 -212 -46 -49 -56 -55 -87 -52 l-36 3 1 115 c1 125 12 190 38 219 9
9 16 21 16 26 0 16 33 45 52 45 10 0 41 -21 68 -46z"/>
<path d="M3500 1838 c-14 -5 -36 -7 -49 -5 -14 3 -31 3 -38 0 -15 -6 -53 -87
-53 -112 0 -9 -4 -21 -9 -26 -5 -6 -12 -30 -15 -55 -9 -81 -18 -120 -27 -126
-5 -3 -9 -38 -9 -79 0 -41 -4 -77 -10 -80 -5 -3 -10 -47 -10 -97 0 -51 -5
-105 -11 -122 -17 -49 2 -86 44 -86 41 0 69 28 87 85 7 22 16 48 21 57 5 10 9
31 9 47 0 17 5 33 11 37 7 4 10 37 7 93 l-3 86 55 5 c30 3 71 14 90 26 l35 20
-1 95 c0 126 -28 218 -70 235 -19 8 -37 9 -54 2z m13 -100 c20 -15 40 -118 31
-155 -14 -54 -65 -46 -90 14 -17 40 -10 116 13 138 18 18 24 19 46 3z"/>
<path d="M3095 1806 c-39 -17 -72 -55 -77 -85 -2 -17 -13 -28 -37 -36 -19 -6
-39 -18 -44 -27 -17 -26 0 -65 33 -76 23 -8 30 -17 30 -36 0 -14 4 -27 9 -31
5 -3 12 -19 16 -35 8 -37 32 -51 88 -51 51 -1 81 10 129 48 43 35 38 60 -8 48
-16 -4 -50 -9 -75 -12 -37 -4 -47 -1 -53 12 -9 23 1 36 67 89 l57 47 0 60 0
60 -42 19 c-51 23 -54 23 -93 6z m63 -109 c3 -22 -2 -29 -24 -37 -48 -19 -74
25 -31 55 31 21 51 15 55 -18z"/>
<path d="M21942 1519 c-23 -12 -55 -38 -70 -60 -15 -21 -35 -40 -45 -43 -14
-3 -18 -13 -15 -43 3 -35 6 -38 35 -41 27 -3 34 1 49 30 20 41 54 78 70 78 20
0 37 -55 25 -78 -6 -12 -11 -29 -11 -38 0 -10 -8 -27 -18 -38 -10 -12 -26 -41
-35 -66 -9 -25 -27 -61 -39 -80 -12 -19 -23 -48 -24 -65 -2 -16 -6 -47 -9 -67
-13 -89 84 -104 175 -28 50 42 84 51 94 25 3 -8 8 -37 12 -65 8 -61 27 -75 87
-65 57 10 74 19 130 74 67 63 77 87 77 174 0 86 -14 107 -72 107 -20 0 -53 7
-73 16 -45 18 -85 7 -85 -24 0 -20 -29 -52 -47 -52 -6 0 -34 -27 -63 -61 -67
-76 -85 -86 -111 -63 -28 25 -17 68 44 179 46 83 61 125 65 181 5 73 -7 101
-53 120 -44 18 -42 18 -93 -7z m397 -385 c18 -22 19 -30 8 -54 -18 -42 -86
-112 -105 -108 -34 6 -20 127 20 176 17 20 55 14 77 -14z"/>
<path d="M22789 1484 c-19 -24 -56 -214 -64 -336 l-7 -108 61 0 61 0 1 -77 c1
-127 10 -167 38 -171 33 -5 68 5 74 23 4 8 0 30 -8 49 -17 40 -20 117 -6 132
12 11 18 165 7 182 -11 17 -62 15 -93 -5 -24 -16 -26 -16 -39 2 -18 24 -9 82
17 111 11 11 19 33 19 50 1 16 7 40 15 54 24 43 19 77 -15 95 -37 19 -44 19
-61 -1z"/>
<path d="M23327 1463 c-24 -38 -26 -51 -30 -199 -3 -88 -10 -184 -16 -214 -7
-30 -14 -73 -17 -95 -3 -22 -14 -57 -25 -78 -23 -41 -20 -78 8 -109 22 -24 36
-23 91 9 62 34 140 110 157 151 11 26 20 32 45 32 16 0 38 -4 48 -9 66 -33
103 -46 142 -51 40 -4 45 -8 50 -34 3 -16 17 -38 32 -49 23 -18 32 -19 70 -9
24 6 64 14 90 17 37 5 60 16 100 51 67 57 76 73 53 91 -16 11 -24 10 -54 -9
-120 -73 -183 -86 -189 -37 -2 21 6 35 39 63 24 20 51 36 60 36 46 0 48 85 3
96 -34 9 -129 -54 -151 -101 -20 -42 -46 -52 -79 -31 -24 16 -24 17 -8 49 9
18 28 44 42 59 24 26 24 28 8 53 -15 22 -23 25 -75 25 -51 0 -61 -3 -75 -25
-9 -13 -16 -31 -16 -39 0 -7 -9 -24 -20 -37 -19 -23 -21 -23 -34 -6 -11 14
-13 41 -9 117 7 114 -6 177 -44 212 -14 13 -29 33 -34 45 -11 30 -50 54 -98
60 -37 5 -41 3 -64 -34z m114 -109 c36 -44 71 -196 50 -217 -6 -6 -11 -27 -11
-47 0 -36 -44 -120 -89 -168 -18 -20 -24 -22 -38 -11 -11 10 -14 24 -9 58 3
24 10 49 15 55 5 6 11 79 12 161 2 115 6 154 17 168 19 21 36 22 53 1z"/>
<path d="M24297 1474 c-15 -15 -27 -32 -27 -39 0 -23 35 -42 89 -48 65 -8 81
-20 81 -61 0 -36 -15 -56 -41 -56 -28 0 -49 -28 -49 -64 0 -38 10 -49 62 -65
44 -14 68 -44 68 -83 0 -71 -56 -115 -130 -103 -32 5 -46 3 -61 -11 -26 -23
-24 -35 9 -67 37 -35 55 -34 149 9 117 53 123 61 123 158 -1 75 -3 84 -30 116
-30 34 -39 77 -21 95 6 6 11 48 12 94 3 94 -4 106 -70 116 -20 3 -49 10 -66
16 -60 22 -70 21 -98 -7z"/>
<path d="M24725 1404 c-9 -9 -14 -21 -11 -28 26 -61 28 -83 10 -132 -9 -27
-21 -74 -25 -104 -16 -113 -45 -244 -59 -269 -14 -27 -3 -50 28 -58 51 -12 66
11 81 127 18 142 27 184 44 217 11 22 19 67 23 131 5 84 3 102 -11 116 -21 21
-59 21 -80 0z"/>
<path d="M22618 1383 c-24 -6 -29 -30 -38 -172 -9 -142 -21 -212 -44 -257 -31
-60 15 -108 78 -84 25 9 26 13 25 82 -1 101 17 266 35 319 21 60 20 96 -3 109
-20 10 -25 11 -53 3z"/>
</g>
</svg>
