<?xml version="1.0" standalone="no"?>
<!DOCTYPE svg PUBLIC "-//W3C//DTD SVG 20010904//EN"
 "http://www.w3.org/TR/2001/REC-SVG-20010904/DTD/svg10.dtd">
<svg version="1.0" xmlns="http://www.w3.org/2000/svg"
 width="2202.981490pt" height="798.244368pt" viewBox="0 0 2202.981490 798.244368"
 preserveAspectRatio="xMidYMid meet">
<metadata>
Created by potrace 1.10, written by Peter Selinger 2001-2011
</metadata>
<g transform="translate(-78.991198,1069.890282) scale(0.100000,-0.100000)"
fill="#000000" stroke="none">
<path d="M978 10684 c-33 -18 -35 -34 -7 -60 15 -14 44 -21 108 -27 47 -4 120
-12 161 -18 41 -6 163 -14 270 -17 107 -4 200 -10 206 -14 7 -4 96 -8 200 -9
112 -1 198 -5 214 -12 16 -7 154 -12 400 -13 229 -2 388 -7 409 -13 20 -6 111
-10 210 -9 118 0 186 -3 206 -11 21 -9 98 -12 265 -10 173 2 245 -1 274 -10
26 -9 70 -12 135 -9 52 3 109 1 126 -5 37 -12 257 -28 430 -31 72 -1 137 -6
145 -12 15 -9 470 -23 745 -23 97 0 152 -4 180 -14 27 -10 84 -15 163 -16 68
0 128 -4 135 -8 14 -9 203 -20 572 -33 258 -10 496 -22 740 -40 77 -6 396 -13
709 -16 326 -3 577 -9 587 -15 11 -5 347 -9 846 -9 455 0 834 -4 842 -9 10 -6
11 -20 6 -52 -16 -94 -27 -267 -36 -544 -8 -298 -10 -358 -10 -397 1 -47 -19
-266 -29 -325 -26 -162 -31 -192 -40 -253 -5 -36 -14 -90 -21 -120 -8 -35 -15
-224 -20 -525 -4 -258 -12 -594 -17 -745 -8 -239 -7 -277 6 -292 20 -24 55
-23 77 2 15 17 17 29 10 77 -20 155 -21 213 -5 398 6 72 15 326 20 565 9 459
16 556 60 770 7 30 16 116 21 190 5 74 14 182 20 240 5 58 14 224 19 370 4
146 13 299 19 340 7 41 15 111 20 155 5 44 13 94 18 110 l9 30 115 2 c63 1
188 -2 279 -8 91 -7 218 -11 283 -10 84 2 133 -2 174 -14 46 -14 94 -16 262
-14 122 2 212 -1 221 -6 14 -9 503 -22 1155 -29 149 -2 290 -8 315 -14 32 -8
59 -8 95 0 28 6 175 13 330 14 154 2 494 8 755 14 903 20 1087 15 2380 -60
395 -23 945 -47 1225 -53 127 -3 243 -11 258 -16 19 -7 155 -11 383 -11 195 0
360 -3 367 -7 7 -4 163 -11 347 -15 640 -14 1170 -50 1725 -118 44 -5 125 -14
180 -20 122 -12 225 -25 330 -40 252 -36 353 -49 470 -60 50 -5 131 -14 180
-20 50 -7 160 -14 245 -16 85 -1 182 -4 215 -6 58 -3 60 -2 63 23 2 19 -4 33
-24 48 -25 20 -38 21 -231 21 -112 -1 -209 2 -215 7 -7 4 -55 11 -108 16 -255
23 -327 31 -515 57 -112 16 -325 42 -480 60 -49 6 -126 15 -170 20 -173 21
-265 31 -390 40 -71 6 -175 15 -230 20 -207 21 -368 31 -630 40 -148 6 -387
15 -530 20 -143 6 -449 15 -680 20 -518 12 -877 25 -1100 40 -93 6 -276 15
-405 20 -221 10 -316 15 -700 40 -271 18 -1073 49 -1215 48 -478 -4 -1142 -18
-1240 -26 -171 -14 -1098 -13 -1245 0 -63 6 -279 12 -480 12 -273 1 -377 5
-413 15 -35 10 -98 13 -251 9 -130 -3 -211 -1 -227 6 -31 14 -372 26 -829 29
-243 2 -372 7 -385 14 -15 8 -244 12 -783 11 -419 0 -767 4 -774 9 -7 4 -260
11 -563 15 -302 4 -626 12 -720 18 -93 5 -287 14 -430 20 -255 10 -400 18
-700 40 -82 6 -199 12 -260 13 -60 1 -117 7 -125 12 -18 12 -326 25 -672 30
-136 1 -256 6 -265 11 -17 7 -245 22 -443 28 -52 1 -113 8 -134 16 -27 9 -64
10 -123 6 -66 -6 -95 -4 -135 10 -43 14 -83 16 -277 12 -182 -4 -235 -2 -270
10 -33 11 -77 14 -190 10 -109 -4 -156 -2 -185 8 -30 11 -117 14 -385 14 -190
-1 -391 4 -446 10 -55 6 -130 8 -167 4 -39 -3 -81 -1 -100 5 -18 6 -100 13
-183 15 -257 9 -597 37 -638 54 -37 15 -56 15 -89 -4z"/>
<path d="M943 10538 c-4 -7 -9 -58 -10 -113 -1 -55 -7 -156 -13 -225 -6 -69
-15 -204 -20 -300 -5 -96 -14 -258 -20 -360 -9 -173 -12 -428 -9 -717 5 -387
0 -610 -30 -1483 -6 -151 -15 -315 -21 -365 -30 -249 -39 -660 -20 -870 6 -71
15 -215 20 -320 23 -491 30 -628 40 -735 6 -63 16 -169 22 -235 13 -150 16
-908 4 -955 -5 -19 -10 -125 -11 -235 -1 -123 -6 -211 -14 -228 -26 -65 0
-111 59 -105 27 2 35 9 48 42 14 35 13 43 -2 90 -22 73 -23 360 -1 414 20 46
20 91 5 652 -5 184 -14 389 -20 455 -19 226 -30 400 -40 620 -5 121 -15 294
-21 385 -21 325 -11 1007 15 1049 5 8 11 78 12 155 8 348 23 836 28 886 4 30
8 354 11 720 3 366 9 738 15 828 5 89 14 233 20 320 5 86 14 213 20 282 19
229 22 318 10 339 -12 24 -64 29 -77 9z"/>
<path d="M5446 10288 c-20 -28 -20 -53 0 -111 11 -34 14 -65 10 -114 -10 -112
-25 -337 -36 -533 -5 -102 -15 -230 -20 -285 -6 -55 -15 -167 -20 -250 -5 -82
-14 -195 -20 -250 -16 -151 -29 -389 -40 -700 -13 -391 -28 -567 -59 -680 -19
-71 -14 -104 16 -116 16 -6 36 -6 52 -1 21 7 26 16 28 48 2 21 8 71 14 109 6
39 15 212 20 385 5 173 13 387 18 475 6 88 13 205 16 260 3 55 8 116 11 135
15 93 26 233 32 410 4 107 11 201 16 209 5 8 11 46 12 85 3 66 7 129 34 511
13 181 13 208 5 277 -5 41 -3 68 7 95 21 52 14 63 -37 63 -34 0 -47 -5 -59
-22z"/>
<path d="M17872 9924 c-25 -17 -28 -45 -10 -77 14 -25 24 -133 38 -407 5 -102
14 -257 20 -345 6 -88 11 -196 10 -240 -2 -334 -2 -608 0 -642 5 -73 0 -261
-10 -343 -6 -52 -15 -237 -19 -410 -5 -188 -13 -337 -21 -370 -16 -70 -24
-313 -11 -337 5 -10 6 -25 1 -33 -4 -8 -9 -62 -11 -120 l-4 -105 35 -3 c28 -2
41 3 60 23 21 23 24 33 22 103 -1 42 -7 89 -13 103 -13 34 -6 270 11 329 8 29
16 158 21 360 4 173 13 358 19 410 7 52 11 158 11 235 -5 757 -11 1213 -17
1230 -4 11 -11 124 -16 250 -4 127 -9 261 -11 299 -2 65 -4 71 -32 88 -37 22
-45 22 -73 2z"/>
<path d="M22714 9648 c-14 -27 -15 -38 -4 -85 14 -54 10 -234 -10 -503 -5 -69
-10 -136 -11 -150 -1 -14 1 -41 5 -61 5 -25 3 -45 -5 -60 -8 -13 -15 -53 -16
-89 -3 -100 -20 -251 -33 -295 -17 -58 -30 -172 -39 -325 -4 -74 -13 -148 -20
-165 -7 -17 -12 -70 -12 -125 2 -180 -17 -715 -29 -850 -6 -74 -9 -187 -7
-250 4 -82 1 -132 -10 -174 -12 -48 -13 -66 -3 -102 10 -34 10 -54 1 -86 -8
-31 -10 -162 -7 -448 3 -223 6 -414 6 -425 1 -11 -1 -110 -3 -220 -3 -143 0
-216 9 -255 13 -56 23 -430 23 -915 0 -132 5 -285 11 -340 20 -183 30 -771 15
-883 -9 -66 -2 -95 29 -115 19 -13 27 -14 41 -3 15 11 18 33 22 127 10 301 -3
773 -24 849 -5 19 -10 220 -12 445 -1 246 -6 423 -12 442 -6 18 -8 100 -6 195
2 105 -1 175 -8 198 -7 21 -10 80 -8 145 2 61 4 121 4 135 1 14 0 142 -1 285
-1 143 -1 271 -1 285 1 14 -2 90 -5 170 -3 82 -1 232 6 345 7 110 14 283 16
385 5 212 20 687 32 965 4 109 13 202 20 218 7 16 12 59 11 95 -1 66 10 174
31 302 25 156 31 202 38 320 4 69 12 132 17 140 5 8 11 67 12 130 10 465 19
677 33 708 14 32 14 35 -9 53 -36 29 -68 25 -87 -13z"/>
<path d="M1310 9564 c-25 -7 -54 -14 -65 -14 -82 -1 -138 -58 -100 -100 25
-27 68 -25 101 5 15 14 33 25 41 25 7 0 22 5 33 12 13 9 27 9 47 2 26 -9 28
-14 31 -67 3 -48 -1 -62 -20 -85 -13 -15 -31 -48 -42 -72 -23 -56 -33 -77 -53
-115 -24 -43 -29 -144 -9 -182 14 -28 20 -31 85 -37 52 -5 78 -3 106 8 21 9
55 16 75 16 l38 0 6 -62 c13 -159 27 -183 104 -183 27 0 47 5 49 12 3 7 22 23
44 35 21 12 39 25 39 29 0 4 11 21 25 38 16 19 29 50 35 86 5 30 12 60 15 65
10 16 -14 49 -48 66 -18 9 -42 28 -54 42 -32 38 -107 37 -153 -1 -17 -15 -44
-30 -58 -33 -15 -3 -37 -10 -50 -15 -13 -5 -33 -9 -45 -9 -13 0 -28 -5 -34
-11 -6 -6 -26 -9 -44 -7 -33 3 -34 4 -37 52 -3 48 9 87 54 166 7 14 32 61 54
106 l41 81 -16 44 c-9 24 -19 55 -22 69 -3 14 -10 31 -16 38 -13 16 -100 14
-157 -4z m465 -560 c21 -14 25 -24 25 -63 0 -64 -40 -111 -93 -111 l-37 0 0
72 c0 60 4 76 22 95 25 27 49 29 83 7z"/>
<path d="M3577 9373 c-4 -3 -7 -23 -7 -42 0 -20 -6 -46 -14 -57 -13 -19 -17
-47 -32 -249 -4 -60 -10 -85 -25 -100 -11 -11 -39 -49 -62 -85 -23 -36 -50
-66 -60 -68 -30 -6 -47 17 -47 64 0 36 5 46 29 63 16 12 34 21 40 21 6 0 11
13 11 29 0 73 -97 70 -146 -4 -31 -48 -17 -244 19 -267 7 -4 26 -8 44 -8 44 0
149 87 161 133 11 43 48 50 62 12 5 -14 10 -42 10 -61 0 -29 5 -37 35 -51 30
-14 39 -15 76 -3 81 27 94 73 23 78 -47 3 -65 26 -67 83 l-2 34 85 10 c81 10
85 11 88 36 6 54 -44 72 -121 45 -36 -13 -39 -13 -53 10 -12 17 -14 37 -10 71
3 27 9 75 12 107 3 37 14 75 29 101 29 49 31 68 9 89 -15 16 -75 22 -87 9z"/>
<path d="M6010 9349 c-36 -4 -82 -12 -102 -18 -51 -16 -98 -57 -98 -86 0 -24
23 -55 41 -55 5 0 41 21 80 46 81 52 126 57 121 15 -1 -14 -9 -38 -17 -54 -8
-17 -15 -35 -15 -40 0 -6 -9 -20 -20 -32 -28 -29 -60 -121 -60 -168 0 -46 24
-91 57 -106 37 -17 100 -13 145 9 62 30 86 26 78 -15 -4 -20 24 -101 38 -112
9 -7 43 -13 77 -13 52 0 65 4 95 29 19 15 48 56 64 89 37 78 29 102 -44 135
-28 12 -53 30 -56 40 -3 9 -13 17 -22 18 -49 3 -89 -5 -107 -20 -40 -35 -162
-84 -196 -79 -46 7 -45 30 5 127 85 169 100 237 58 274 -24 20 -48 23 -122 16z
m389 -450 c19 -34 7 -77 -25 -91 -23 -11 -29 -9 -45 11 -22 26 -25 81 -7 99
20 20 61 10 77 -19z"/>
<path d="M2117 9313 c-12 -22 -31 -94 -38 -148 -5 -33 -13 -85 -19 -115 -14
-72 -31 -252 -25 -267 2 -7 20 -13 39 -13 50 0 90 49 81 99 -4 20 -11 40 -16
45 -12 13 -12 53 1 61 6 3 10 40 10 80 0 51 7 92 20 127 22 59 25 90 10 119
-10 18 -54 27 -63 12z"/>
<path d="M2256 9304 c-10 -9 -16 -33 -16 -62 0 -26 -5 -67 -11 -91 -7 -32 -7
-59 2 -95 16 -66 19 -69 76 -84 26 -8 53 -15 58 -17 18 -5 38 -93 31 -139 -6
-40 -4 -48 23 -78 l29 -33 36 18 c41 19 42 22 19 67 -9 18 -17 61 -18 95 -1
34 -10 75 -18 91 -9 16 -21 39 -26 52 -8 15 -19 22 -40 22 -67 0 -106 34 -83
71 7 10 12 31 12 46 1 16 7 39 15 53 8 14 14 34 15 46 0 46 -71 72 -104 38z"/>
<path d="M4179 9285 c-22 -12 -27 -23 -33 -76 -8 -79 -8 -368 1 -437 5 -44 10
-55 33 -67 25 -13 29 -12 45 5 15 16 17 30 11 83 -3 34 -6 135 -7 224 0 128 3
168 15 192 20 38 20 56 0 75 -19 19 -31 19 -65 1z"/>
<path d="M2974 9243 l-101 -35 -26 -54 c-23 -47 -27 -67 -27 -147 0 -96 11
-140 56 -228 34 -68 60 -77 145 -50 82 26 116 58 151 141 61 145 72 225 47
326 -10 37 -18 48 -50 64 -51 26 -76 24 -195 -17z m132 -31 c25 -16 34 -55 34
-141 0 -75 -4 -100 -25 -145 -37 -80 -114 -136 -148 -107 -8 6 -19 30 -27 53
-7 24 -17 55 -22 69 -5 14 -8 58 -6 98 l3 72 45 24 c25 13 57 29 73 36 15 7
27 18 27 25 0 7 6 15 13 17 17 8 21 8 33 -1z"/>
<path d="M6946 9238 c-9 -12 -16 -31 -16 -41 0 -11 -7 -34 -16 -53 -11 -22
-14 -49 -11 -81 13 -119 41 -183 80 -183 13 0 31 -6 42 -13 16 -12 17 -24 12
-96 -5 -77 -4 -83 20 -111 28 -34 62 -39 86 -12 21 23 21 33 0 70 -15 26 -15
34 -3 71 12 36 12 50 -1 99 -14 52 -18 57 -44 60 -66 6 -72 10 -89 63 -12 37
-14 55 -7 62 6 6 11 22 11 37 1 14 7 36 15 50 8 14 14 35 15 47 0 50 -66 72
-94 31z"/>
<path d="M6735 9210 c-13 -14 -20 -39 -22 -73 -1 -29 -7 -83 -12 -122 -6 -38
-14 -99 -19 -135 -5 -36 -15 -79 -23 -97 -12 -28 -11 -34 6 -52 11 -13 31 -21
52 -21 44 0 54 25 58 145 3 101 12 170 25 200 12 28 21 138 12 152 -15 24 -57
25 -77 3z"/>
<path d="M7667 9199 c-13 -19 -34 -53 -46 -76 -11 -23 -25 -44 -31 -48 -5 -3
-10 -17 -10 -31 0 -14 -8 -41 -19 -62 -10 -21 -23 -82 -30 -142 -11 -102 -11
-107 13 -165 20 -49 31 -62 59 -73 32 -13 38 -12 93 16 58 30 120 86 163 150
12 17 29 32 37 32 21 0 34 -42 24 -84 -6 -27 -2 -52 15 -104 21 -64 25 -68 76
-94 63 -32 83 -34 107 -10 25 23 80 62 88 62 4 0 15 -7 24 -15 9 -8 43 -18 76
-21 50 -5 62 -3 76 13 17 19 17 20 -5 40 -12 12 -31 23 -42 25 -19 3 -26 22
-42 102 l-6 29 51 -5 c40 -4 55 -1 67 12 20 22 19 33 -4 54 -12 11 -27 15 -44
11 -42 -11 -67 10 -67 55 0 21 5 42 10 45 6 3 10 21 10 39 0 19 12 59 26 89
18 41 24 69 22 104 -3 46 -4 48 -36 51 -48 5 -75 -22 -67 -65 4 -22 0 -44 -15
-72 -11 -22 -20 -50 -20 -61 0 -12 -4 -29 -10 -39 -5 -10 -11 -74 -14 -142 -5
-160 -15 -191 -65 -214 -52 -23 -88 -7 -107 50 -30 87 -10 135 62 155 25 7 48
19 51 26 7 19 -15 53 -40 59 -29 8 -106 -27 -135 -59 -51 -59 -68 -14 -32 84
13 36 20 80 20 126 0 63 -3 76 -29 112 -38 52 -46 56 -106 58 -27 1 -66 5 -86
9 -33 7 -38 4 -62 -26z m178 -89 c9 -18 15 -56 15 -100 0 -60 -5 -82 -35 -145
-49 -103 -142 -181 -185 -155 -13 8 -8 171 7 236 11 46 59 150 81 177 10 11
29 17 58 17 38 0 45 -4 59 -30z"/>
<path d="M8701 9054 c-12 -15 -21 -35 -21 -45 0 -24 43 -35 76 -20 32 14 64
-1 64 -32 1 -30 -62 -155 -80 -162 -24 -8 -114 -197 -106 -221 3 -11 19 -33
34 -47 40 -39 133 -41 212 -4 113 51 106 83 -17 73 -92 -8 -113 -1 -113 39 0
12 18 43 40 68 22 25 40 52 40 60 0 9 8 22 19 29 35 25 61 93 61 160 0 76 -16
103 -68 118 -69 19 -118 13 -141 -16z"/>
<path d="M18275 9027 c-22 -5 -64 -14 -94 -21 -60 -12 -77 -30 -67 -69 9 -36
57 -46 92 -18 18 14 41 21 70 21 42 0 44 -1 44 -29 0 -34 -30 -91 -70 -136
-43 -47 -50 -68 -50 -150 0 -67 3 -79 25 -100 20 -21 34 -25 84 -25 33 0 63 5
66 10 3 6 19 10 34 10 27 0 29 -4 42 -62 21 -96 80 -138 126 -89 10 10 28 24
41 30 28 15 72 100 72 140 0 16 5 33 10 36 14 8 13 114 -1 154 -14 40 -39 50
-103 42 -42 -5 -51 -10 -67 -39 -27 -51 -96 -122 -118 -122 -11 0 -23 -4 -26
-10 -11 -18 -73 -12 -79 8 -12 37 18 110 79 197 22 32 37 145 24 181 -12 35
-77 55 -134 41z m355 -412 c0 -12 -7 -43 -16 -69 -30 -86 -94 -87 -94 0 0 37
6 49 41 86 39 41 41 42 55 24 8 -11 14 -29 14 -41z"/>
<path d="M18851 8884 c-17 -22 -20 -35 -14 -85 3 -36 2 -69 -5 -82 -6 -12 -13
-44 -16 -72 -3 -27 -10 -93 -15 -145 -9 -87 -9 -97 8 -114 17 -17 22 -17 50
-5 17 8 34 23 38 34 4 11 6 79 5 151 -2 96 2 142 13 174 8 23 15 68 15 100 0
51 -2 58 -22 64 -34 9 -35 8 -57 -20z"/>
<path d="M19012 8888 c-7 -7 -12 -29 -12 -49 0 -20 -7 -56 -15 -79 -8 -23 -15
-57 -15 -76 0 -18 -5 -44 -11 -58 -10 -21 -8 -33 12 -73 l24 -48 64 -5 c74 -6
94 -23 72 -64 -10 -18 -11 -37 -5 -73 l9 -48 50 0 50 0 -1 45 c-6 183 -10 213
-33 232 -25 20 -56 24 -66 8 -9 -14 -58 -13 -73 2 -21 21 -14 110 13 166 14
29 25 62 25 75 0 44 -59 74 -88 45z"/>
<path d="M19557 8893 c-12 -12 -7 -51 10 -82 17 -29 17 -31 -2 -63 -11 -18
-23 -62 -27 -98 -14 -124 -25 -185 -41 -232 -16 -43 -16 -48 0 -78 17 -31 17
-32 -1 -43 -47 -29 -69 -54 -63 -71 6 -15 16 -17 55 -13 57 5 147 39 177 67
12 11 26 20 32 20 7 0 21 14 33 30 38 53 92 30 120 -50 7 -19 25 -51 41 -70
l29 -34 82 2 c45 1 87 7 95 13 20 17 41 3 45 -28 2 -23 13 -33 58 -55 63 -31
92 -35 110 -13 7 8 23 15 36 15 14 0 49 14 80 31 43 25 54 36 52 53 -5 32 -51
33 -108 2 -58 -31 -79 -32 -114 -5 -22 17 -26 29 -26 68 0 44 2 48 33 62 26
11 32 20 32 44 0 27 -3 30 -37 33 -46 4 -56 -2 -102 -56 -23 -28 -36 -54 -36
-72 l0 -28 -77 5 c-43 3 -82 9 -87 14 -16 14 2 36 49 59 l46 22 -3 51 c-2 40
-8 54 -29 69 -25 19 -27 19 -65 2 -21 -10 -49 -27 -61 -37 -17 -15 -27 -17
-50 -10 -26 9 -28 14 -35 84 -16 185 -29 218 -112 298 -20 19 -36 40 -36 47 0
29 -83 67 -103 47z m135 -213 c23 -46 27 -68 28 -137 0 -100 -11 -126 -61
-149 -29 -12 -39 -23 -39 -39 0 -25 -28 -41 -43 -26 -7 7 -7 18 0 33 7 13 12
38 12 56 0 18 4 39 9 45 13 16 24 87 26 177 3 118 23 130 68 40z"/>
<path d="M20897 8593 c-14 -13 -6 -70 11 -86 22 -21 49 -21 82 -2 44 25 72 18
123 -31 26 -26 47 -52 47 -58 0 -37 -82 -93 -120 -81 -34 11 -50 -5 -50 -49 0
-55 13 -66 75 -66 41 0 56 -5 73 -23 25 -26 30 -95 10 -115 -19 -19 -58 -14
-90 13 -35 30 -69 32 -91 7 -40 -44 -13 -82 74 -102 71 -16 139 -7 191 26 31
20 38 30 38 57 0 46 -36 139 -60 156 -25 17 -26 62 -1 85 24 22 34 87 21 134
-11 42 -80 115 -123 131 -31 12 -200 15 -210 4z"/>
<path d="M11797 8573 c-13 -12 -7 -72 9 -87 9 -10 33 -16 59 -16 39 0 46 4 60
30 19 37 19 45 -1 64 -16 16 -114 23 -127 9z"/>
<path d="M21442 8542 c-17 -17 -19 -39 -21 -187 -1 -93 -4 -172 -7 -176 -4 -7
-9 -35 -20 -114 -7 -52 12 -81 48 -72 14 4 29 14 32 23 11 28 28 216 22 240
-4 13 -2 33 3 46 4 13 11 69 15 124 6 86 4 104 -9 118 -21 21 -41 20 -63 -2z"/>
<path d="M12408 8489 c-24 -13 -23 -56 1 -69 27 -14 124 -13 139 2 21 21 13
47 -18 63 -33 17 -96 19 -122 4z"/>
<path d="M13417 8403 c-38 -16 -55 -47 -43 -79 5 -13 15 -15 54 -10 26 4 80
10 120 14 70 7 91 18 92 49 0 6 -7 19 -16 27 -21 21 -154 20 -207 -1z"/>
<path d="M14527 8344 c-30 -30 -35 -39 -26 -55 7 -14 21 -19 49 -19 21 0 42 5
45 10 3 6 15 10 26 10 29 0 79 28 79 45 0 21 -52 45 -97 45 -31 0 -46 -7 -76
-36z"/>
<path d="M15549 8349 c-8 -5 -30 -9 -50 -9 -61 0 -111 -64 -77 -98 19 -19 78
-14 102 8 12 12 34 31 49 43 19 15 26 28 22 39 -8 21 -28 29 -46 17z"/>
<path d="M16428 8259 c-22 -12 -23 -52 -2 -73 11 -11 35 -16 79 -16 44 0 68 5
79 16 21 21 20 51 -1 62 -28 15 -136 22 -155 11z"/>
<path d="M17196 8135 c-35 -32 -33 -78 3 -83 13 -2 28 1 34 7 6 6 24 11 40 11
39 0 67 17 67 40 0 54 -95 70 -144 25z"/>
<path d="M9110 4808 c-14 -7 -70 -15 -125 -19 -55 -5 -129 -13 -165 -20 -36
-6 -87 -12 -115 -14 -27 -1 -63 -8 -78 -14 -16 -6 -49 -11 -75 -11 -26 0 -81
-7 -122 -16 -41 -8 -109 -19 -150 -24 -92 -10 -141 -20 -156 -31 -6 -5 -60
-25 -120 -44 -60 -20 -114 -41 -121 -48 -11 -12 -11 -21 13 -313 5 -58 4 -63
-22 -83 -14 -11 -39 -21 -54 -21 -31 0 -70 -37 -70 -67 0 -11 9 -28 19 -37 18
-17 21 -17 56 0 54 26 71 12 67 -57 -1 -30 -6 -146 -10 -259 -4 -133 -11 -213
-19 -227 -28 -49 -2 -93 55 -93 27 0 34 5 47 36 13 31 13 39 -1 74 -11 28 -14
55 -9 92 3 29 8 150 11 268 3 118 9 219 15 226 5 6 28 17 51 24 24 7 63 20 88
28 50 16 123 31 185 37 65 6 95 21 95 48 0 13 -8 31 -18 40 -30 28 -75 23
-228 -24 -17 -5 -38 -9 -47 -9 -9 0 -31 -9 -49 -20 -18 -11 -45 -20 -60 -20
l-28 0 0 138 0 138 33 31 c19 19 53 37 87 46 76 21 198 47 239 52 19 3 48 9
65 14 17 5 69 12 116 15 47 3 105 11 130 17 25 5 86 14 135 19 50 5 117 15
150 20 78 15 109 15 174 0 30 -6 63 -9 75 -6 27 7 62 84 48 106 -11 19 -78 23
-112 8z"/>
<path d="M9485 4655 c-52 -57 -142 -247 -164 -346 -6 -26 -16 -59 -22 -75 -23
-59 -33 -164 -32 -339 0 -207 7 -281 27 -304 7 -9 26 -40 40 -69 29 -57 43
-66 134 -85 49 -10 60 -9 135 17 45 16 89 35 97 41 8 7 42 26 75 43 33 17 73
47 88 66 15 20 34 36 41 36 13 0 36 -41 36 -64 0 -8 7 -19 14 -26 8 -6 23 -33
32 -58 23 -60 58 -117 103 -164 27 -29 43 -38 68 -38 39 0 53 22 30 48 -35 38
-69 91 -113 177 -25 50 -54 99 -63 110 -10 11 -23 39 -31 62 -12 38 -11 44 9
71 11 17 21 37 21 45 0 8 9 26 20 40 23 28 49 104 72 207 11 51 13 108 9 261
l-6 195 -37 75 c-51 103 -65 114 -142 113 -33 0 -77 -5 -96 -10 -30 -8 -35
-14 -35 -39 l0 -30 67 0 c60 0 70 -3 97 -29 28 -27 39 -53 70 -172 14 -54 14
-260 0 -321 -31 -133 -68 -246 -87 -265 -17 -17 -49 1 -55 30 -2 15 -16 58
-30 96 -15 38 -29 97 -33 130 -4 34 -13 69 -22 79 -31 36 -92 8 -92 -42 0 -29
49 -171 66 -191 8 -9 21 -40 30 -70 9 -30 25 -62 35 -72 33 -29 24 -71 -23
-110 -67 -53 -116 -83 -210 -129 -84 -42 -89 -43 -125 -30 -51 18 -70 37 -101
96 -67 129 -53 515 25 668 7 15 27 67 42 115 33 101 72 163 130 210 44 36 50
52 25 76 -30 31 -74 20 -119 -29z"/>
<path d="M10836 4628 c-13 -41 -18 -120 -20 -353 -7 -536 -16 -778 -31 -824
-31 -93 -10 -146 57 -139 l33 3 2 220 c1 220 17 681 28 828 3 46 1 85 -5 97
-7 14 -6 30 6 58 8 22 14 57 12 78 -3 37 -5 39 -41 42 -24 2 -39 -1 -41 -10z"/>
</g>
</svg>
