<?xml version="1.0" standalone="no"?>
<!DOCTYPE svg PUBLIC "-//W3C//DTD SVG 20010904//EN"
 "http://www.w3.org/TR/2001/REC-SVG-20010904/DTD/svg10.dtd">
<svg version="1.0" xmlns="http://www.w3.org/2000/svg"
 width="1636.989069pt" height="316.842984pt" viewBox="0 0 1636.989069 316.842984"
 preserveAspectRatio="xMidYMid meet">
<metadata>
Created by potrace 1.10, written by Peter Selinger 2001-2011
</metadata>
<g transform="translate(-149.040630,511.842984) scale(0.100000,-0.100000)"
fill="#000000" stroke="none">
<path d="M7515 5110 c-3 -5 -37 -31 -76 -55 -38 -25 -69 -52 -69 -59 0 -7 -9
-21 -20 -31 -47 -43 -6 -114 110 -190 116 -75 141 -81 178 -42 39 41 21 86
-35 88 -24 1 -107 62 -111 81 -4 23 16 27 103 17 44 -4 214 -8 377 -8 186 -1
299 -5 303 -11 4 -6 65 -10 150 -10 85 0 146 4 150 10 3 6 26 10 50 10 24 0
47 -4 50 -10 4 -6 162 -10 440 -10 278 0 436 -4 440 -10 4 -6 75 -10 180 -10
105 0 176 -4 180 -10 4 -6 78 -10 190 -10 101 0 186 -4 189 -9 3 -5 137 -9
298 -10 173 -1 297 -6 302 -11 6 -6 29 -10 52 -10 24 0 46 -4 49 -10 4 -6 58
-10 130 -10 72 0 126 -4 130 -10 4 -6 78 -10 189 -10 100 0 186 -4 191 -9 6
-5 44 -12 85 -15 110 -7 172 -16 195 -26 11 -5 65 -12 120 -14 55 -3 138 -10
185 -16 47 -6 119 -13 160 -16 227 -13 240 -15 240 -38 0 -15 -15 -33 -44 -53
-38 -27 -44 -37 -48 -73 -11 -114 61 -84 210 88 49 57 55 97 20 128 -57 49
-175 114 -230 128 -15 3 -38 20 -50 36 -27 37 -60 39 -87 3 -24 -29 -21 -55
12 -90 17 -20 18 -23 4 -29 -8 -3 -25 0 -37 6 -12 7 -77 16 -144 21 -437 35
-479 39 -491 50 -5 5 -78 9 -161 9 -91 0 -155 4 -159 10 -4 6 -58 10 -130 10
-72 0 -126 4 -130 10 -3 6 -52 10 -110 10 -58 0 -107 4 -110 10 -4 6 -88 10
-220 10 -132 0 -216 4 -220 10 -4 6 -82 10 -200 10 -118 0 -196 4 -200 10 -4
6 -78 10 -190 10 -112 0 -186 4 -190 10 -4 6 -182 10 -500 10 -318 0 -496 4
-500 10 -4 6 -141 10 -379 10 -272 0 -375 3 -384 12 -9 9 -17 9 -36 -1 -16 -9
-36 -11 -58 -6 -18 5 -80 9 -138 9 l-105 1 0 50 0 50 -47 3 c-25 2 -49 -2 -53
-8z"/>
<path d="M1707 4575 c-30 -15 -97 -116 -97 -146 0 -15 -12 -71 -26 -125 -15
-55 -30 -126 -34 -159 -9 -70 -22 -106 -44 -124 -19 -16 -21 -62 -4 -79 7 -7
31 -12 55 -12 l43 0 30 65 c19 42 30 82 30 111 0 24 7 55 15 67 8 12 33 83 56
157 25 83 49 142 61 152 18 16 23 16 56 2 25 -10 73 -15 159 -15 68 -1 126 -5
129 -10 8 -13 68 -11 81 2 9 9 26 9 69 0 34 -6 160 -11 310 -11 158 0 255 -4
259 -10 8 -13 72 -13 80 0 7 11 104 8 122 -3 7 -4 22 -3 34 4 16 8 36 8 82 -1
48 -9 65 -9 84 1 19 10 31 10 57 1 22 -8 122 -12 314 -12 176 0 283 -4 287
-10 9 -15 268 -13 283 2 10 10 17 10 32 0 24 -14 96 -16 105 -2 3 6 21 10 40
10 19 0 37 -4 40 -10 4 -6 135 -10 360 -10 225 0 356 -4 360 -10 4 -6 84 -10
209 -10 118 0 206 -4 212 -10 6 -6 159 -11 379 -14 444 -6 625 -14 642 -27 7
-7 114 -10 285 -9 150 1 279 1 285 1 10 -1 12 -33 11 -123 0 -68 5 -152 11
-188 7 -36 15 -120 18 -188 4 -122 4 -123 30 -133 36 -13 50 -6 70 35 14 29
14 40 4 62 -8 19 -9 30 -1 38 13 13 13 49 0 62 -8 8 -13 280 -7 394 2 33 4 35
32 32 17 -2 116 -6 220 -8 105 -3 194 -9 200 -15 5 -5 120 -9 270 -9 153 0
265 -4 271 -10 5 -5 95 -12 199 -14 369 -11 480 -16 500 -26 12 -6 272 -12
675 -15 360 -2 747 -9 860 -15 113 -6 300 -13 415 -15 116 -3 219 -10 230 -15
11 -5 101 -12 200 -15 99 -3 272 -7 385 -11 113 -3 209 -10 214 -15 6 -5 52
-9 102 -9 57 0 95 -4 100 -11 4 -8 65 -10 198 -8 186 4 191 3 188 -16 -1 -11
-2 -45 0 -75 1 -30 2 -129 2 -220 1 -140 -2 -172 -18 -211 -32 -77 -1 -131 54
-91 59 44 73 124 73 407 0 114 5 203 10 206 13 9 180 -2 191 -12 6 -5 124 -9
262 -9 158 0 255 -4 259 -10 4 -6 85 -10 210 -10 125 0 206 -4 210 -10 4 -6
75 -10 180 -10 105 0 176 -4 180 -10 4 -6 88 -10 220 -10 132 0 216 -4 220
-10 4 -6 58 -10 129 -10 67 0 126 -4 131 -9 10 -9 223 -18 625 -28 102 -2 189
-8 194 -13 6 -6 70 -10 142 -10 78 0 135 -4 139 -10 3 -6 44 -10 90 -10 46 0
87 -5 90 -10 4 -6 65 -10 150 -10 85 0 146 -4 150 -10 3 -6 43 -10 89 -10 45
0 86 -4 91 -9 6 -6 62 -12 125 -15 136 -5 208 -14 235 -26 11 -6 97 -12 190
-14 94 -2 208 -10 255 -16 47 -7 132 -13 190 -13 l105 -2 3 -39 c2 -21 -4 -56
-12 -77 -9 -22 -16 -53 -16 -69 0 -16 -7 -55 -17 -87 -9 -32 -20 -96 -24 -143
-4 -47 -11 -103 -14 -126 -8 -48 10 -123 31 -131 9 -3 27 6 44 22 22 21 29 39
33 79 6 62 22 147 38 201 6 22 15 66 20 98 5 31 13 83 18 115 5 31 13 78 17
105 3 26 11 50 15 53 18 11 8 56 -16 78 -14 13 -40 27 -58 31 -47 10 -295 23
-582 30 -137 4 -254 11 -260 16 -5 5 -51 9 -101 9 -51 0 -96 4 -99 10 -4 6
-65 10 -150 10 -85 0 -146 4 -150 10 -3 5 -44 10 -90 10 -46 0 -87 4 -90 10
-4 6 -62 10 -140 10 -78 0 -136 4 -140 10 -4 6 -68 10 -160 10 -92 0 -156 4
-160 10 -4 6 -75 10 -180 10 -105 0 -176 4 -180 10 -4 6 -75 10 -180 10 -105
0 -176 4 -180 10 -4 6 -54 10 -119 10 -65 0 -116 4 -122 10 -8 8 -19 7 -38 -1
-20 -10 -29 -10 -38 -1 -8 8 -56 12 -144 12 -78 0 -135 4 -139 10 -4 6 -88 10
-219 10 -123 0 -216 4 -222 10 -5 5 -126 12 -279 15 -494 9 -669 16 -681 26
-7 5 -147 9 -352 10 -207 0 -344 4 -347 9 -4 6 -62 10 -130 10 -72 0 -126 4
-130 10 -4 6 -75 10 -180 10 -105 0 -176 4 -180 10 -4 6 -88 10 -219 10 -123
0 -216 4 -222 10 -5 5 -119 12 -259 14 -138 3 -347 10 -465 16 -118 6 -489 13
-825 15 -375 3 -618 9 -630 15 -11 5 -99 12 -195 15 -426 12 -516 17 -524 25
-6 6 -112 10 -251 10 -141 0 -245 4 -251 10 -9 9 -200 15 -784 25 -163 3 -304
9 -315 15 -11 5 -108 12 -215 15 -480 12 -575 16 -584 25 -14 14 -42 12 -66
-2 -15 -10 -26 -10 -53 0 -22 8 -106 12 -253 12 -133 0 -224 4 -230 10 -6 6
-169 10 -442 10 -262 1 -434 5 -437 10 -8 13 -192 13 -200 0 -3 -5 -35 -10
-70 -10 -35 0 -67 5 -70 10 -4 6 -108 10 -280 10 -172 0 -276 4 -280 10 -4 6
-191 10 -529 10 -314 0 -526 4 -532 9 -5 6 -107 11 -229 12 -121 1 -227 5
-235 9 -24 12 -241 17 -263 5z"/>
<path d="M3161 3415 c-24 -13 -60 -39 -80 -58 -20 -19 -44 -37 -53 -40 -10 -4
-18 -12 -18 -18 0 -7 -18 -31 -40 -55 -22 -24 -40 -52 -40 -61 0 -10 -8 -23
-19 -30 -44 -28 -45 -249 0 -289 10 -9 19 -27 19 -38 0 -22 93 -119 137 -144
28 -15 259 -17 268 -2 3 6 21 10 40 10 19 0 37 5 40 10 3 6 39 10 79 10 70 0
73 1 109 38 20 21 37 47 37 57 0 11 4 26 9 33 13 22 -27 123 -66 163 -20 21
-52 41 -76 48 -23 7 -56 17 -73 22 -17 5 -55 9 -85 9 -45 0 -60 -4 -77 -23
-46 -49 -23 -87 53 -88 122 -1 195 -33 195 -84 0 -44 -92 -105 -159 -105 -22
0 -43 -4 -46 -10 -9 -14 -105 -12 -161 2 -83 22 -151 110 -161 204 -11 103 6
138 135 274 88 93 134 114 181 80 39 -27 67 -25 88 6 15 23 15 29 2 52 -27 49
-167 65 -238 27z"/>
<path d="M8415 3340 c-10 -11 -22 -41 -27 -68 -18 -95 -21 -107 -39 -140 -11
-18 -19 -39 -19 -46 0 -7 -22 -59 -50 -115 -27 -56 -50 -109 -50 -119 0 -27
-25 -90 -43 -110 -9 -10 -17 -23 -17 -28 0 -5 -9 -20 -20 -34 -22 -28 -26 -60
-8 -78 7 -7 35 -12 64 -12 l52 0 5 43 c21 169 82 252 183 245 40 -2 50 -7 60
-28 13 -26 30 -102 43 -185 11 -78 30 -109 69 -113 18 -2 40 2 48 9 17 14 19
80 2 97 -9 9 -8 17 2 37 13 23 11 28 -17 58 -21 21 -33 46 -36 72 -3 22 -10
58 -17 80 -7 22 -16 72 -21 110 -39 316 -49 345 -114 345 -19 0 -39 -8 -50
-20z m66 -245 c3 -55 3 -106 1 -112 -5 -15 -102 -18 -102 -3 0 5 11 43 25 84
14 41 25 85 25 99 0 28 9 39 30 35 12 -3 16 -24 21 -103z"/>
<path d="M8861 3126 c-7 -9 -12 -60 -11 -142 0 -71 -1 -173 -1 -227 -2 -112 6
-127 61 -127 58 0 65 16 65 149 l0 116 60 0 c33 0 86 8 118 18 70 23 89 13 86
-42 -2 -32 8 -78 42 -187 5 -17 9 -38 9 -47 0 -24 74 -97 98 -97 43 0 48 64 9
124 -8 11 -17 37 -21 56 -4 19 -11 58 -17 85 -6 28 -13 83 -17 123 -6 61 -11
77 -31 93 -25 20 -86 26 -96 9 -3 -5 -21 -10 -39 -10 -19 0 -50 -7 -69 -15
-71 -29 -108 -13 -122 53 -12 57 -95 103 -124 68z"/>
<path d="M3898 3053 c-25 -27 -52 -66 -59 -88 -7 -22 -17 -44 -21 -49 -14 -17
-8 -65 12 -98 11 -18 20 -42 20 -54 0 -23 29 -54 51 -54 18 0 86 -24 95 -33 4
-4 30 -7 59 -7 46 0 55 4 88 38 20 21 37 43 37 49 0 6 7 16 14 23 8 6 16 30
18 53 l3 42 50 0 49 0 12 -58 c7 -38 21 -68 38 -86 14 -15 26 -32 26 -38 0
-17 100 -63 138 -63 44 0 67 13 125 68 33 33 47 54 47 73 0 15 7 40 15 55 8
16 15 34 15 39 0 6 -7 23 -15 39 -8 15 -15 35 -15 42 0 33 -51 98 -92 120 -36
19 -82 18 -99 -2 -7 -9 -23 -20 -35 -24 -12 -5 -28 -21 -36 -36 -16 -33 -67
-49 -157 -49 l-64 0 -14 39 c-25 74 -70 103 -131 86 -27 -7 -43 -6 -66 5 -45
23 -58 19 -108 -32z m696 -86 c9 -7 21 -30 26 -52 16 -70 -30 -185 -73 -185
-24 0 -77 31 -77 45 0 7 -7 18 -16 26 -23 19 -9 57 37 104 21 23 39 46 39 52
0 22 38 29 64 10z m-502 -69 c17 -2 24 -10 26 -32 6 -48 -5 -71 -41 -84 -50
-18 -63 -15 -107 24 -35 32 -40 42 -40 79 0 26 6 50 16 59 14 15 20 14 69 -13
29 -16 64 -31 77 -33z"/>
<path d="M5035 3060 c-16 -10 -39 -19 -50 -19 -11 -1 -45 -27 -75 -58 -81 -86
-92 -111 -68 -156 19 -33 100 -117 114 -117 6 0 17 -7 24 -15 22 -27 73 -45
125 -45 31 0 74 -9 105 -22 62 -26 82 -18 91 33 3 19 13 54 22 79 27 74 23
121 -15 156 -18 17 -45 36 -60 42 -25 10 -28 17 -28 62 0 45 -3 51 -30 65 -39
20 -118 18 -155 -5z m109 -84 c8 -14 8 -20 -1 -23 -27 -10 -63 -46 -63 -63 0
-29 24 -41 67 -34 52 8 75 -13 71 -65 -3 -32 -7 -37 -45 -50 -40 -14 -43 -14
-105 18 -77 40 -118 77 -118 107 0 23 70 94 93 94 6 0 23 9 37 20 29 23 49 22
64 -4z"/>
<path d="M13655 3050 c-3 -5 -17 -10 -30 -10 -32 0 -48 -31 -39 -75 4 -22 2
-41 -6 -50 -8 -9 -10 -27 -6 -47 19 -88 18 -119 -4 -172 -17 -42 -19 -59 -11
-74 6 -12 11 -75 11 -144 0 -83 4 -128 12 -136 21 -21 75 -14 96 12 17 22 18
37 14 136 -4 124 5 150 57 150 14 1 37 7 51 15 14 8 34 14 45 15 20 0 95 67
95 85 0 5 10 19 22 32 19 20 20 27 10 43 -7 11 -12 36 -12 55 0 19 -6 45 -12
58 -25 44 -82 97 -104 97 -13 0 -26 5 -29 10 -3 6 -39 10 -80 10 -41 0 -77 -4
-80 -10z m171 -122 c57 -56 40 -118 -47 -174 -42 -26 -74 -31 -86 -11 -4 6 -8
35 -9 62 -1 28 -5 67 -9 87 -11 52 5 68 68 68 43 0 55 -5 83 -32z"/>
<path d="M10744 3029 c-15 -16 -16 -24 -6 -39 7 -11 12 -35 12 -54 0 -19 5
-38 10 -41 6 -4 10 -59 10 -133 0 -123 -1 -127 -27 -154 -32 -34 -68 -36 -84
-7 -6 12 -28 39 -48 59 -78 81 -111 147 -111 226 0 35 -5 47 -24 60 -61 39
-110 -17 -101 -118 3 -37 0 -69 -10 -92 -10 -23 -15 -69 -15 -129 l0 -95 30
-12 c25 -10 34 -10 55 4 24 16 25 20 19 80 -4 42 -3 66 4 70 18 11 61 -23 82
-63 18 -37 48 -66 87 -88 51 -29 193 -6 193 31 0 7 9 21 20 31 18 17 20 31 20
181 0 98 -4 165 -10 169 -5 3 -10 28 -10 55 0 39 -4 52 -22 64 -30 21 -51 20
-74 -5z"/>
<path d="M9632 3017 c-28 -30 -28 -38 3 -67 23 -22 28 -22 64 -10 23 7 56 10
82 6 24 -4 64 -9 89 -12 68 -9 82 -26 74 -93 -9 -81 -25 -94 -97 -86 -88 11
-140 -19 -121 -69 5 -12 17 -17 43 -16 61 3 62 2 55 -27 -4 -16 -13 -37 -20
-48 -26 -37 -17 -68 34 -115 53 -51 83 -70 110 -70 10 0 23 -5 29 -11 7 -7 29
-4 73 10 35 12 69 21 76 21 26 0 32 60 8 84 -14 14 -19 14 -51 1 -42 -18 -76
-19 -106 -4 -73 38 -88 95 -39 143 27 25 33 26 93 20 60 -6 65 -5 89 20 31 34
20 56 -39 75 -33 10 -41 17 -36 30 4 9 9 40 12 69 6 50 4 55 -28 88 -43 45
-82 64 -130 64 -21 0 -41 5 -44 10 -3 6 -50 10 -104 10 -89 0 -99 -2 -119 -23z"/>
<path d="M14833 2978 c-17 -18 -23 -40 -27 -103 -3 -44 -10 -118 -16 -165 -21
-166 -23 -266 -4 -322 9 -28 17 -70 18 -94 1 -32 8 -52 29 -75 24 -28 31 -30
65 -25 105 18 162 27 212 34 44 6 57 12 69 33 8 14 11 34 7 44 -6 16 -18 17
-137 13 l-130 -6 -11 27 c-22 57 -23 118 -8 296 19 235 25 290 32 301 11 17
-30 64 -56 64 -12 0 -32 -10 -43 -22z"/>
<path d="M14286 2908 c-3 -40 -10 -111 -16 -158 -6 -47 -14 -150 -16 -230 -5
-130 -3 -152 17 -215 12 -38 23 -76 25 -82 9 -33 104 -67 119 -43 3 6 17 10
29 10 13 0 29 7 36 15 19 22 147 85 174 85 31 0 46 18 46 55 0 54 -30 67 -102
42 -20 -7 -45 -20 -55 -28 -41 -35 -115 -70 -141 -67 l-27 3 4 265 c2 146 7
273 12 282 13 25 11 112 -3 126 -7 7 -31 12 -54 12 l-42 0 -6 -72z"/>
<path d="M16156 2898 c-24 -33 -1 -60 63 -75 66 -14 153 -57 194 -94 18 -16
58 -52 91 -81 64 -58 83 -89 121 -200 21 -60 24 -80 15 -102 -5 -15 -10 -42
-10 -60 0 -42 -56 -96 -130 -126 -30 -12 -88 -37 -129 -56 -82 -39 -138 -59
-192 -68 -49 -9 -66 -29 -51 -61 11 -23 17 -25 81 -25 52 0 80 5 106 20 20 11
43 20 53 20 16 0 56 14 170 59 92 36 122 51 122 60 0 19 45 79 63 84 14 4 17
18 19 84 2 131 -3 185 -23 220 -10 18 -19 42 -19 51 0 10 -18 36 -40 57 -22
21 -40 43 -40 48 0 12 -152 167 -163 167 -6 0 -18 7 -26 15 -9 8 -48 30 -86
50 -86 44 -164 49 -189 13z"/>
<path d="M15624 2836 c-23 -12 -58 -35 -78 -51 -101 -82 -113 -95 -125 -137
-7 -24 -17 -57 -22 -74 -5 -17 -9 -43 -9 -59 0 -46 40 -147 74 -187 17 -20 41
-51 54 -67 18 -24 31 -31 57 -31 19 0 37 -4 40 -10 3 -5 38 -10 77 -10 62 0
79 4 133 35 72 40 88 56 83 86 -6 43 -30 45 -92 5 -36 -23 -68 -36 -90 -36
-39 0 -146 45 -146 61 0 6 -14 30 -31 54 -65 90 -43 210 49 275 26 18 64 35
87 38 22 2 52 11 68 19 24 12 27 19 27 63 l0 50 -57 -1 c-39 -1 -72 -8 -99
-23z"/>
<path d="M16227 2768 c-13 -10 -17 -37 -21 -133 -3 -66 -8 -162 -12 -214 -8
-132 16 -178 78 -147 21 11 24 20 31 131 5 66 9 168 10 227 1 91 -2 110 -18
128 -21 23 -44 26 -68 8z"/>
</g>
</svg>
