<?xml version="1.0" standalone="no"?>
<!DOCTYPE svg PUBLIC "-//W3C//DTD SVG 20010904//EN"
 "http://www.w3.org/TR/2001/REC-SVG-20010904/DTD/svg10.dtd">
<svg version="1.0" xmlns="http://www.w3.org/2000/svg"
 width="2579.778291pt" height="2437.888793pt" viewBox="0 0 2579.778291 2437.888793"
 preserveAspectRatio="xMidYMid meet">
<metadata>
Created by potrace 1.10, written by Peter Selinger 2001-2011
</metadata>
<g transform="translate(-688.221709,2485.888793) scale(0.100000,-0.100000)"
fill="#000000" stroke="none">
<path d="M9463 24846 c-13 -6 -23 -14 -23 -18 0 -4 -11 -18 -25 -30 -35 -33
-67 -124 -60 -170 4 -24 1 -47 -9 -67 -20 -38 -20 -74 0 -113 13 -25 15 -50
10 -133 -5 -81 -3 -111 10 -141 11 -27 14 -53 9 -89 -4 -36 -1 -62 11 -90 12
-29 14 -54 9 -99 -4 -46 -2 -71 10 -100 14 -32 16 -60 11 -142 -5 -80 -3 -110
10 -140 13 -30 15 -62 10 -161 -4 -97 -2 -131 10 -160 10 -24 14 -51 10 -78
-5 -28 -1 -54 10 -80 10 -26 14 -52 10 -80 -5 -28 -1 -54 10 -80 12 -31 15
-58 10 -130 -5 -72 -3 -99 10 -130 12 -29 14 -54 9 -100 -5 -46 -2 -72 10
-103 10 -23 14 -49 11 -58 -3 -9 5 -54 20 -100 14 -46 23 -92 20 -102 -3 -9 5
-53 19 -96 13 -43 22 -82 20 -87 -3 -4 -1 -19 5 -34 5 -14 12 -43 15 -64 2
-21 9 -51 15 -67 6 -15 9 -38 6 -50 -3 -12 1 -39 10 -60 12 -30 15 -58 10
-129 -5 -72 -3 -99 10 -130 12 -31 15 -58 10 -130 -5 -72 -3 -99 10 -130 12
-31 15 -58 10 -130 -5 -72 -3 -99 10 -130 11 -28 14 -53 9 -90 -4 -35 -1 -62
10 -87 20 -50 21 -215 0 -265 -12 -29 -15 -101 -15 -419 0 -340 2 -387 17
-419 15 -32 16 -39 3 -68 -23 -49 -27 -635 -5 -689 13 -33 15 -122 14 -641 -1
-331 -4 -613 -8 -627 -4 -14 -3 -38 2 -54 7 -21 6 -36 -5 -60 -12 -24 -14 -62
-11 -175 4 -116 1 -152 -12 -187 -14 -37 -15 -90 -12 -426 2 -210 7 -408 11
-438 4 -30 8 -107 9 -170 1 -66 8 -131 15 -153 10 -27 12 -69 8 -151 -5 -92
-3 -121 10 -152 22 -52 54 -167 48 -175 -2 -4 3 -26 12 -50 10 -31 13 -61 9
-99 -8 -70 9 -112 67 -165 74 -69 101 -78 146 -47 15 10 68 29 117 42 83 23
224 31 365 23 14 -1 124 1 244 3 181 5 226 3 260 -10 23 -8 61 -15 86 -15 25
0 65 -3 90 -6 25 -3 74 -6 110 -8 36 -1 75 -8 88 -16 17 -9 44 -11 96 -6 56 5
81 3 111 -10 31 -12 56 -15 110 -10 55 5 80 3 110 -10 29 -11 54 -14 88 -10
38 6 54 3 85 -15 32 -19 61 -26 177 -44 11 -1 37 -8 57 -15 21 -7 46 -10 57
-6 11 3 36 -1 56 -9 21 -9 47 -13 59 -10 12 3 53 -6 90 -20 38 -14 72 -23 77
-20 11 7 100 -22 149 -47 19 -11 41 -19 49 -19 7 0 36 -13 63 -30 61 -38 89
-38 145 0 24 17 48 30 52 30 18 0 41 38 41 68 0 17 5 34 10 37 23 14 -3 84
-51 140 -40 48 -52 86 -45 155 5 49 3 75 -9 103 -10 24 -13 50 -9 71 4 22 0
44 -11 66 -13 25 -15 47 -11 94 4 33 6 77 6 96 0 19 0 98 0 175 1 110 -2 148
-15 179 -12 28 -15 52 -10 87 5 35 2 61 -10 93 -10 25 -15 53 -11 62 3 9 -6
54 -20 101 -16 52 -23 95 -19 110 3 14 -1 46 -9 72 -31 99 -36 142 -30 255 6
94 4 121 -10 156 -10 25 -14 54 -11 73 4 20 0 47 -10 71 -11 27 -15 53 -11 81
5 27 1 54 -9 80 -9 21 -14 47 -11 57 2 11 -2 38 -10 61 -8 23 -13 50 -10 60 2
10 -2 37 -10 60 -8 23 -13 56 -9 73 3 18 -1 46 -10 68 -12 27 -14 53 -10 90 5
37 2 62 -10 90 -11 27 -15 53 -11 81 5 27 1 54 -9 79 -10 23 -14 49 -10 67 4
18 0 46 -10 74 -10 24 -15 51 -12 59 4 9 -1 35 -9 58 -10 29 -13 60 -9 93 5
36 2 61 -10 89 -13 30 -15 55 -10 100 4 46 2 71 -10 100 -13 30 -15 55 -10
100 4 46 2 71 -10 100 -11 27 -15 53 -11 81 5 27 1 54 -9 79 -10 22 -13 50
-10 69 4 20 0 47 -10 71 -10 24 -14 51 -11 71 4 19 0 47 -10 70 -10 26 -14 52
-10 80 4 26 1 54 -7 76 -8 18 -17 60 -20 92 -6 58 -5 59 24 69 27 9 30 14 27
46 -2 29 -8 37 -28 42 -17 4 -28 16 -33 35 -5 17 -12 42 -17 57 -4 15 -5 123
-2 241 4 189 3 220 -13 259 -13 34 -16 59 -10 123 5 63 3 88 -10 119 -10 23
-14 49 -10 67 4 18 0 46 -10 74 -12 30 -15 56 -11 81 5 22 2 53 -8 83 -25 79
-38 149 -31 171 4 12 -5 55 -20 102 -20 60 -25 93 -21 122 4 24 1 57 -8 85
-23 72 -38 149 -32 160 3 5 -1 28 -9 52 -11 30 -14 60 -10 94 5 36 2 61 -10
89 -13 30 -15 55 -10 100 4 46 2 71 -10 100 -11 27 -15 53 -11 81 5 28 1 54
-10 80 -12 29 -14 54 -9 99 4 46 2 71 -10 100 -12 27 -15 53 -10 82 4 28 2 51
-7 66 -9 17 -13 80 -13 223 -1 110 -5 214 -9 230 -5 17 -9 68 -10 115 -1 47
-7 98 -14 114 -7 16 -10 43 -7 60 4 19 0 46 -10 70 -12 27 -14 53 -10 90 5 36
2 62 -10 89 -10 25 -15 61 -14 100 2 36 -3 76 -11 95 -13 29 -12 36 4 66 17
31 17 36 2 65 -11 20 -15 43 -11 64 4 20 0 47 -10 71 -12 28 -15 53 -10 88 5
32 2 64 -8 96 -27 83 -39 151 -32 182 4 20 -2 56 -20 111 -17 53 -24 91 -20
112 4 22 -1 51 -14 85 -12 29 -21 67 -21 85 0 47 -62 107 -110 107 -19 0 -44
-7 -54 -15 -29 -22 -66 -18 -95 9 -36 33 -146 78 -205 83 -27 3 -68 0 -90 -7
-23 -7 -51 -14 -63 -15 -12 -2 -38 -8 -58 -15 -19 -6 -48 -9 -63 -5 -17 3 -44
-1 -67 -11 -26 -10 -52 -14 -80 -10 -28 5 -54 1 -80 -10 -29 -12 -54 -14 -101
-9 -45 5 -71 2 -99 -9 -50 -21 -228 -22 -277 -2 -26 11 -64 14 -160 10 -101
-4 -134 -2 -164 11 -27 11 -53 14 -89 10 -37 -5 -62 -2 -91 10 -30 12 -55 15
-111 9 -78 -7 -144 11 -223 61 -31 20 -52 25 -97 24 -32 -1 -68 -6 -80 -13z
m2240 -308 c3 -24 11 -70 16 -103 6 -33 13 -75 16 -94 3 -18 7 -37 10 -41 2
-4 7 -27 10 -50 3 -24 15 -75 26 -113 13 -45 18 -82 14 -106 -4 -23 0 -50 10
-75 9 -21 14 -49 11 -61 -3 -13 1 -40 10 -61 13 -30 15 -62 10 -161 -4 -97 -2
-131 11 -160 10 -26 13 -52 8 -88 -4 -36 -1 -62 10 -89 11 -27 15 -53 11 -81
-5 -28 -1 -54 10 -80 12 -30 14 -55 9 -110 -5 -54 -2 -79 10 -109 12 -29 15
-54 10 -91 -4 -36 -1 -62 10 -89 14 -32 16 -66 12 -194 -4 -122 -1 -163 10
-191 11 -26 13 -54 8 -106 -4 -52 -2 -81 10 -114 8 -24 13 -46 11 -48 -3 -3 2
-24 10 -46 12 -31 14 -65 9 -133 -4 -71 -2 -99 11 -129 11 -28 14 -53 9 -90
-4 -36 -1 -62 10 -90 12 -28 15 -53 11 -89 -5 -35 -2 -65 9 -95 8 -24 13 -46
11 -48 -3 -3 2 -24 10 -46 8 -23 12 -52 9 -65 -3 -12 -1 -31 4 -41 6 -10 13
-38 16 -61 3 -23 7 -45 10 -50 2 -4 7 -25 9 -47 3 -22 10 -53 16 -69 6 -16 9
-43 5 -61 -3 -20 0 -47 10 -70 11 -25 14 -52 10 -79 -4 -26 0 -53 10 -79 10
-23 14 -51 11 -70 -4 -19 0 -47 10 -70 8 -21 13 -48 10 -60 -3 -13 1 -39 9
-59 12 -28 15 -70 14 -169 -1 -73 2 -148 6 -167 5 -19 9 -102 10 -185 0 -99 5
-163 14 -189 9 -27 11 -61 7 -115 -6 -60 -3 -85 9 -116 12 -28 15 -53 11 -89
-5 -35 -2 -65 9 -95 8 -24 13 -46 11 -48 -3 -3 2 -24 10 -46 10 -26 13 -57 9
-83 -4 -26 0 -53 10 -78 9 -22 14 -49 11 -61 -3 -13 1 -40 10 -61 10 -25 14
-51 10 -79 -5 -28 -1 -54 10 -80 12 -31 15 -58 10 -130 -5 -72 -3 -99 10 -130
10 -26 14 -52 10 -80 -5 -28 -1 -54 10 -80 10 -26 14 -52 10 -80 -5 -28 -1
-54 10 -80 10 -26 14 -52 10 -80 -5 -27 -1 -54 9 -80 11 -24 14 -51 10 -71 -3
-21 0 -47 10 -71 10 -23 14 -51 10 -70 -3 -20 1 -47 10 -70 12 -28 15 -54 10
-98 -4 -44 -2 -70 10 -99 11 -27 15 -53 11 -81 -4 -26 -1 -57 9 -84 8 -24 13
-46 11 -48 -3 -3 2 -23 10 -46 9 -25 12 -57 9 -82 -4 -25 0 -56 9 -84 9 -24
14 -46 12 -48 -3 -3 2 -24 10 -46 12 -32 14 -67 10 -143 -5 -80 -3 -110 10
-140 10 -25 14 -51 10 -79 -5 -27 -1 -54 9 -79 9 -22 14 -49 11 -61 -3 -13 1
-40 10 -61 10 -25 14 -51 10 -79 -5 -27 -1 -54 9 -79 9 -22 14 -49 11 -61 -3
-13 1 -40 10 -61 10 -23 13 -50 9 -70 -3 -21 0 -47 10 -71 11 -25 14 -52 10
-79 -4 -26 0 -53 10 -78 13 -31 16 -77 14 -269 -2 -159 1 -241 9 -260 7 -16
12 -78 12 -143 l0 -114 -29 0 c-17 0 -33 5 -36 10 -3 6 -18 10 -32 10 -14 0
-42 4 -62 9 -20 5 -81 19 -136 31 -55 12 -121 28 -146 37 -28 8 -61 12 -80 8
-23 -4 -70 4 -147 25 -63 16 -128 32 -145 34 -18 3 -45 10 -61 16 -16 6 -48 8
-70 5 -27 -4 -54 -1 -80 10 -27 12 -53 14 -90 10 -36 -5 -62 -2 -89 9 -30 13
-61 15 -160 10 -100 -4 -129 -2 -161 11 -32 13 -57 15 -131 10 -67 -5 -99 -4
-116 5 -18 10 -131 13 -468 14 l-445 1 -7 30 c-4 17 -14 57 -23 90 -42 166
-57 235 -52 244 3 5 -1 28 -10 52 -11 34 -14 67 -9 144 6 81 4 107 -9 138 -14
31 -16 58 -10 152 6 95 4 122 -10 159 -16 42 -16 47 0 77 12 24 14 44 9 78 -4
25 -6 62 -5 81 1 19 3 171 4 336 2 215 6 311 15 332 10 24 12 128 8 464 -4
358 -3 439 9 467 18 44 20 510 2 544 -16 31 -16 1654 1 1684 17 32 14 164 -5
209 -12 30 -15 56 -10 110 5 54 3 80 -10 109 -13 31 -15 57 -9 120 5 63 3 88
-10 119 -13 31 -15 57 -10 130 5 73 3 99 -10 130 -13 31 -15 57 -10 140 6 82
4 108 -10 140 -10 23 -14 49 -10 65 4 15 -3 61 -18 116 -14 49 -30 113 -35
140 -6 28 -15 77 -22 110 -6 33 -16 77 -21 98 -6 21 -7 46 -4 57 3 10 -6 47
-20 82 -24 57 -26 71 -20 148 5 67 3 93 -10 124 -13 31 -15 57 -10 130 5 72 3
99 -10 129 -9 23 -13 50 -10 70 4 20 0 47 -10 71 -13 30 -15 55 -10 102 4 44
3 69 -7 86 -8 15 -13 67 -14 153 -1 72 -5 150 -9 175 -5 25 -7 90 -6 145 2 74
-2 110 -14 139 -13 30 -15 55 -10 100 4 45 2 71 -10 100 -12 27 -14 53 -10 90
5 36 2 62 -9 88 -12 29 -16 74 -16 193 l0 155 84 0 c53 0 97 -6 121 -16 28
-11 54 -13 105 -8 53 5 79 3 110 -10 34 -13 61 -15 141 -10 79 5 107 3 139
-10 58 -23 433 -23 488 0 28 12 55 14 112 9 41 -3 89 -2 105 3 17 5 38 6 49 2
10 -3 57 4 105 17 70 18 113 22 231 23 80 0 159 -4 176 -9 24 -7 41 -4 70 9
61 29 71 26 77 -22z"/>
<path d="M11953 19770 c-19 -8 -23 -17 -23 -53 l0 -44 51 -6 c60 -7 89 5 89
37 0 46 -70 85 -117 66z"/>
<path d="M11737 19757 c-10 -6 -20 -28 -23 -49 -6 -31 -3 -38 20 -53 47 -31
106 -4 106 49 0 27 -6 35 -35 49 -43 20 -46 21 -68 4z"/>
<path d="M11509 19735 c-57 -31 -57 -97 -1 -110 79 -17 131 66 69 110 -26 18
-35 18 -68 0z"/>
<path d="M12921 24826 c-54 -30 -66 -116 -31 -220 11 -33 20 -69 20 -80 0 -12
11 -42 25 -68 14 -26 25 -62 25 -80 0 -18 9 -61 19 -95 11 -35 17 -72 14 -83
-3 -11 4 -35 14 -53 11 -18 23 -50 27 -70 4 -21 16 -53 28 -73 15 -26 19 -44
14 -73 -4 -24 0 -55 9 -81 8 -24 13 -45 11 -48 -3 -2 -1 -15 5 -29 5 -13 11
-41 14 -62 2 -21 9 -51 15 -67 6 -16 9 -43 6 -60 -4 -18 0 -46 10 -69 8 -21
13 -48 10 -60 -3 -13 1 -40 10 -60 8 -21 13 -48 10 -60 -3 -13 1 -40 10 -60 8
-21 13 -49 9 -62 -3 -13 -1 -32 5 -42 5 -11 12 -39 15 -63 3 -23 14 -72 25
-107 10 -35 17 -68 15 -72 -3 -4 2 -26 11 -50 8 -24 12 -54 10 -65 -3 -12 1
-39 10 -59 8 -21 13 -48 10 -60 -3 -13 1 -40 10 -61 10 -23 13 -50 9 -70 -3
-21 0 -47 10 -71 12 -28 15 -54 10 -98 -4 -45 -2 -70 10 -100 13 -30 15 -55
10 -110 -5 -54 -2 -79 10 -109 10 -25 14 -51 11 -72 -4 -20 0 -48 10 -73 11
-29 14 -55 10 -85 -5 -34 -1 -66 19 -130 18 -58 24 -96 20 -119 -5 -23 2 -61
20 -121 16 -54 24 -97 20 -114 -3 -16 1 -44 10 -66 9 -22 14 -49 11 -61 -3
-13 1 -40 10 -60 8 -21 13 -48 10 -60 -3 -13 1 -40 10 -60 8 -21 13 -48 10
-60 -3 -13 1 -40 10 -61 11 -27 14 -53 9 -89 -4 -36 -1 -62 10 -90 12 -28 15
-53 10 -90 -4 -36 -1 -62 11 -90 12 -30 14 -55 9 -110 -5 -54 -2 -79 10 -109
13 -31 15 -57 10 -120 -5 -64 -3 -89 10 -121 13 -30 15 -55 10 -110 -5 -54 -2
-79 10 -110 13 -30 15 -55 10 -111 -5 -52 -3 -79 6 -96 13 -22 27 -115 32
-203 2 -22 8 -57 16 -78 7 -20 10 -50 6 -65 -3 -15 1 -47 10 -71 8 -24 13 -46
11 -48 -3 -3 2 -24 10 -46 9 -24 13 -56 9 -74 -3 -19 1 -47 10 -70 11 -25 14
-52 10 -79 -4 -26 0 -53 10 -78 9 -22 14 -49 11 -61 -3 -13 1 -40 10 -61 12
-28 14 -54 9 -98 -4 -46 -2 -71 10 -100 11 -27 15 -53 11 -81 -5 -28 -1 -54
10 -80 13 -31 15 -59 10 -141 -5 -80 -3 -110 10 -140 12 -29 14 -56 9 -118 -5
-64 -3 -89 10 -121 13 -30 15 -55 10 -110 -5 -54 -2 -79 10 -109 14 -32 16
-66 12 -194 -3 -120 -1 -163 10 -189 10 -24 13 -69 11 -156 -2 -88 2 -131 12
-154 12 -28 12 -35 -4 -65 -18 -33 -18 -36 -1 -68 13 -26 16 -46 10 -94 -4
-46 -2 -71 10 -100 14 -32 16 -62 11 -163 -4 -97 -2 -131 10 -160 10 -24 14
-51 10 -78 -5 -28 -1 -54 10 -80 12 -30 14 -56 9 -119 -5 -64 -3 -89 10 -120
13 -30 15 -55 10 -100 -4 -46 -2 -71 10 -100 12 -29 15 -54 10 -91 -4 -36 -1
-62 11 -90 12 -30 14 -55 9 -110 -5 -54 -2 -79 10 -109 14 -32 16 -60 11 -142
-5 -80 -3 -110 10 -140 12 -29 14 -56 9 -119 -5 -61 -3 -91 9 -121 8 -21 14
-52 14 -69 -2 -102 72 -235 132 -235 29 0 122 43 141 66 19 23 5 131 -25 191
-28 58 -34 114 -12 132 17 14 28 2 55 -61 11 -26 30 -52 42 -59 30 -16 163
-12 207 6 19 8 44 12 56 9 12 -3 39 2 60 11 21 9 49 14 61 11 13 -3 40 1 60
10 21 8 48 13 60 10 13 -3 40 1 60 10 25 10 51 13 75 9 27 -5 63 1 124 20 69
21 97 25 143 20 43 -5 68 -2 97 10 29 12 54 15 100 10 45 -5 71 -2 99 10 27
11 52 14 81 10 29 -5 55 -2 80 9 50 21 116 20 161 -1 31 -15 40 -15 68 -3 18
7 52 14 77 14 25 1 62 7 82 14 28 10 90 12 240 9 161 -3 210 -1 238 11 25 10
53 12 105 7 54 -5 79 -2 109 10 32 14 64 16 183 12 114 -4 152 -2 180 9 29 12
71 15 211 11 138 -3 183 -1 210 10 28 11 77 13 241 10 161 -3 214 -1 240 10
27 11 92 13 295 11 144 -1 275 2 292 6 17 4 42 3 55 -3 17 -6 35 -5 57 5 18 7
56 13 85 12 29 -1 67 4 85 12 29 13 36 13 68 -5 32 -17 38 -18 67 -4 25 11 91
14 302 16 187 1 283 5 312 14 36 11 49 11 80 -1 30 -11 99 -13 329 -11 222 2
297 0 315 -10 19 -10 128 -12 491 -10 404 2 471 0 497 -14 37 -19 108 -19 141
0 32 18 78 18 110 0 38 -22 369 -21 412 1 25 13 36 14 57 4 20 -9 292 -12
1117 -11 995 2 1095 0 1126 -15 32 -15 37 -15 66 0 39 20 109 21 155 1 24 -10
69 -15 130 -15 61 0 107 5 130 15 44 18 120 20 150 3 16 -9 137 -11 469 -10
384 3 452 1 483 -13 54 -22 252 -21 300 2 31 15 40 15 68 3 22 -9 80 -14 192
-14 118 -1 169 -5 192 -16 30 -13 36 -13 63 3 24 15 37 16 63 8 119 -36 158
-43 204 -36 26 4 64 7 83 6 19 -1 85 -1 145 -1 61 0 126 -6 145 -12 25 -8 133
-11 362 -10 264 2 333 0 361 -11 26 -12 71 -14 199 -10 127 3 173 1 199 -9 27
-11 83 -14 260 -11 191 4 233 2 265 -12 30 -12 56 -14 119 -9 64 5 88 3 120
-11 30 -12 55 -15 101 -10 45 5 72 2 98 -9 29 -12 63 -14 160 -10 98 4 131 2
160 -10 29 -12 62 -14 160 -10 96 4 131 2 159 -9 28 -12 66 -14 180 -10 119 4
151 2 183 -12 30 -12 55 -15 109 -10 54 5 80 3 110 -9 30 -13 59 -15 140 -10
82 4 110 2 141 -11 29 -12 54 -15 100 -10 44 4 72 2 97 -8 27 -12 65 -14 167
-10 105 3 140 1 171 -11 58 -23 632 -24 686 -1 28 12 56 14 118 9 103 -8 137
8 177 86 43 83 38 102 -51 195 -28 29 -37 60 -45 157 -2 21 -10 48 -18 60 -22
34 -48 117 -42 133 3 8 -5 38 -19 67 -38 82 -81 220 -79 254 2 21 -6 39 -23
58 -17 18 -25 38 -25 63 0 20 -9 67 -21 105 -11 39 -18 76 -15 84 3 7 -2 33
-10 56 -11 30 -14 61 -9 103 4 44 2 70 -10 99 -11 27 -15 53 -11 81 5 31 0 58
-19 110 -14 37 -24 74 -21 82 3 8 -6 42 -20 76 -20 48 -24 72 -20 108 4 29 1
61 -9 88 -8 24 -13 47 -10 52 3 4 -6 36 -20 71 -21 49 -25 73 -21 109 4 31 1
58 -9 83 -10 23 -14 50 -10 67 4 18 0 46 -10 74 -10 24 -15 51 -11 60 3 9 -5
55 -18 103 -35 125 -48 190 -42 201 3 5 -1 28 -10 52 -8 24 -13 52 -10 62 2
10 -2 37 -10 60 -8 23 -13 50 -10 60 2 10 -2 37 -10 60 -10 28 -13 59 -9 92 5
35 2 61 -10 88 -13 31 -15 59 -9 150 5 88 3 119 -9 146 -12 29 -14 71 -9 237
4 166 2 210 -11 250 -30 95 -39 155 -33 217 5 47 3 72 -9 101 -13 31 -15 58
-10 130 5 72 3 99 -9 129 -14 31 -15 59 -10 156 6 96 4 127 -9 158 -13 32 -14
70 -10 220 5 148 3 188 -9 220 -13 31 -14 78 -10 269 4 200 2 237 -12 275 -15
39 -16 80 -12 344 2 165 7 320 10 345 4 25 9 114 12 198 4 124 3 161 -10 192
-12 31 -14 68 -9 198 5 136 3 166 -11 202 -14 35 -15 62 -10 160 6 98 4 125
-10 159 -22 56 -23 275 -1 328 22 53 22 445 -1 498 -10 24 -13 51 -9 71 4 22
0 44 -10 63 -21 42 -19 72 10 137 35 79 33 133 -6 175 -16 17 -34 40 -40 51
-6 11 -21 18 -38 18 -39 0 -65 31 -57 67 5 21 2 33 -11 44 -30 25 -121 62
-137 56 -8 -3 -61 9 -118 28 -176 57 -254 76 -296 69 -25 -4 -51 0 -77 10 -26
11 -52 15 -80 10 -28 -4 -54 0 -81 11 -27 11 -53 14 -89 10 -37 -5 -62 -2 -90
9 -26 11 -52 15 -80 10 -28 -4 -54 0 -80 10 -26 11 -53 15 -79 11 -27 -4 -54
-1 -79 10 -23 9 -51 13 -70 10 -19 -4 -47 0 -70 10 -23 9 -51 13 -70 10 -19
-4 -47 0 -70 10 -23 9 -51 13 -70 10 -18 -4 -50 0 -74 9 -22 8 -43 13 -46 10
-2 -2 -24 3 -48 11 -27 10 -58 13 -84 10 -24 -4 -56 -1 -82 9 -22 8 -43 13
-46 10 -2 -2 -24 3 -48 11 -27 10 -58 13 -84 10 -27 -4 -53 -1 -79 10 -27 11
-53 15 -81 11 -28 -5 -54 -1 -80 10 -32 13 -58 15 -137 9 -79 -5 -107 -3 -141
10 -36 13 -77 15 -287 11 -135 -3 -261 -5 -280 -5 -19 -1 -147 -1 -285 -2
-206 -1 -256 2 -287 15 -29 12 -59 14 -148 10 -89 -5 -119 -3 -152 11 -32 13
-58 15 -119 9 -61 -5 -87 -3 -120 10 -32 13 -59 15 -129 10 -71 -5 -97 -3
-131 10 -34 14 -60 16 -123 11 -63 -5 -89 -3 -119 10 -31 13 -60 15 -160 9
-98 -5 -129 -3 -158 10 -30 13 -63 14 -187 9 -122 -5 -157 -3 -188 9 -32 13
-73 15 -223 12 -147 -4 -192 -2 -221 10 -30 12 -71 13 -207 9 -146 -5 -177 -4
-213 11 -34 13 -61 15 -134 11 -71 -5 -99 -3 -129 10 -31 13 -59 14 -156 9
-100 -6 -126 -4 -162 10 -34 14 -61 16 -143 11 -80 -5 -109 -4 -137 9 -29 12
-64 14 -196 9 -131 -5 -168 -3 -199 9 -32 13 -77 15 -261 10 -190 -4 -227 -2
-263 12 -34 13 -62 15 -169 10 -107 -6 -136 -4 -170 9 -35 14 -69 16 -239 10
-177 -5 -203 -4 -246 12 -42 16 -68 17 -254 11 -181 -6 -213 -4 -248 10 -34
14 -74 16 -314 12 -215 -4 -282 -2 -307 9 -27 11 -220 13 -1045 12 -700 0
-1022 3 -1041 10 -20 8 -526 11 -1681 11 -1108 -1 -1661 3 -1679 9 -39 15
-1227 14 -1264 0 -19 -8 -218 -11 -638 -10 -530 2 -615 0 -647 -14 -47 -19
-172 -20 -226 -1 -22 8 -42 13 -45 10 -2 -2 -23 3 -47 11 -52 18 -166 19 -199
1z m1566 -227 c28 -11 37 -11 68 4 32 15 116 17 1041 17 780 0 1011 -3 1027
-13 34 -19 1889 -20 1936 -1 45 19 110 18 157 -2 35 -15 86 -16 482 -11 362 5
448 3 475 -8 28 -11 211 -13 1113 -8 902 5 1087 4 1120 -8 27 -9 99 -14 234
-16 107 -1 222 -5 255 -8 33 -4 111 -6 173 -6 76 1 123 -3 146 -13 27 -11 76
-13 238 -9 165 4 211 2 239 -10 28 -12 74 -14 231 -10 157 4 202 2 230 -10 29
-12 70 -14 210 -10 142 4 181 2 211 -11 30 -12 66 -14 190 -10 128 5 160 3
193 -11 32 -13 58 -15 140 -10 81 5 108 4 140 -10 30 -12 55 -15 109 -10 54 5
80 3 109 -9 31 -13 62 -15 170 -10 105 5 140 3 169 -9 28 -12 65 -14 180 -10
112 3 152 1 179 -10 27 -11 72 -13 210 -10 147 4 181 2 207 -11 38 -20 64 -20
103 0 28 15 34 15 68 -1 31 -14 54 -16 127 -10 71 5 97 3 128 -9 30 -13 59
-15 140 -10 81 4 110 2 140 -10 31 -13 61 -15 160 -10 100 5 128 3 161 -11 30
-12 55 -15 109 -10 55 5 80 3 110 -10 30 -12 55 -15 101 -10 44 5 72 2 98 -9
29 -12 65 -14 186 -10 109 4 160 2 187 -7 25 -9 103 -14 223 -15 250 -3 219
-4 550 2 256 4 300 3 337 -11 34 -13 62 -15 138 -10 63 4 107 3 130 -5 20 -7
46 -13 58 -14 12 -2 39 -8 60 -15 22 -7 52 -11 67 -7 17 3 45 -1 66 -10 20 -9
47 -13 60 -10 13 4 40 0 60 -9 20 -8 46 -12 58 -9 11 2 40 -2 63 -10 22 -8 43
-13 46 -10 2 2 24 -3 48 -11 27 -10 58 -13 84 -10 26 4 53 1 78 -10 20 -8 47
-13 60 -10 12 3 40 -1 61 -10 24 -10 52 -14 71 -11 19 4 47 0 70 -10 23 -9 51
-13 70 -10 19 4 47 0 69 -9 27 -12 53 -14 90 -10 38 5 63 2 92 -10 23 -10 51
-14 70 -10 18 3 46 -1 69 -10 29 -13 55 -15 116 -9 61 5 87 3 119 -10 22 -9
51 -14 64 -10 13 3 40 -2 61 -10 20 -9 47 -13 59 -10 12 3 49 -5 82 -18 32
-12 79 -23 104 -25 25 -1 65 -5 90 -10 36 -6 46 -12 48 -31 2 -13 -2 -30 -10
-39 -21 -26 -24 -224 -3 -278 9 -25 14 -53 11 -63 -4 -10 1 -36 10 -57 12 -29
14 -55 9 -99 -4 -45 -2 -71 9 -98 20 -48 21 -158 1 -205 -23 -54 -22 -544 1
-599 13 -30 15 -59 10 -140 -5 -80 -3 -110 10 -139 13 -31 15 -72 11 -236 -3
-149 0 -203 9 -221 17 -30 17 -77 -1 -108 -22 -39 -22 -802 1 -855 12 -31 15
-78 12 -273 -2 -172 1 -247 10 -274 10 -27 12 -93 9 -240 -3 -158 0 -211 11
-237 10 -26 12 -71 9 -189 -4 -122 -1 -163 10 -191 11 -26 13 -57 9 -126 -5
-72 -3 -99 10 -130 10 -26 14 -52 10 -80 -5 -28 -1 -54 10 -80 12 -30 14 -55
9 -110 -5 -54 -2 -79 10 -109 14 -32 16 -65 12 -184 -4 -113 -2 -152 10 -180
11 -27 14 -61 9 -148 -4 -89 -2 -121 10 -150 10 -25 14 -51 10 -79 -5 -28 -1
-54 10 -80 10 -26 14 -52 10 -77 -5 -28 3 -73 29 -164 20 -70 33 -134 30 -143
-3 -10 2 -35 11 -56 8 -21 13 -49 9 -62 -3 -13 -1 -32 4 -42 6 -10 13 -37 15
-59 3 -21 10 -52 16 -68 7 -16 9 -47 5 -70 -4 -26 0 -53 10 -79 10 -23 14 -51
11 -70 -4 -18 0 -50 9 -75 8 -24 13 -45 11 -48 -3 -2 0 -15 5 -29 5 -13 11
-43 14 -66 3 -23 14 -71 25 -106 10 -35 16 -76 13 -91 -3 -20 3 -42 22 -74 22
-38 26 -54 21 -86 -4 -25 -1 -53 8 -77 18 -47 30 -155 28 -249 -1 -43 4 -89
13 -114 8 -24 13 -45 11 -47 -2 -3 4 -35 15 -71 10 -37 19 -76 19 -87 0 -11
12 -42 26 -69 20 -37 24 -56 19 -83 -4 -25 -1 -43 13 -67 10 -18 22 -49 26
-71 4 -21 15 -49 24 -63 9 -13 19 -50 24 -81 4 -31 17 -90 29 -131 29 -99 35
-156 18 -176 -12 -14 -35 -16 -170 -11 -124 4 -162 2 -184 -9 -35 -18 -105
-18 -140 0 -22 11 -58 14 -164 10 -108 -4 -144 -2 -173 10 -29 12 -61 14 -148
10 -89 -5 -119 -3 -151 10 -32 13 -61 15 -133 11 -72 -5 -99 -3 -130 10 -32
13 -57 15 -130 10 -71 -5 -99 -3 -127 9 -29 12 -65 14 -188 10 -120 -5 -160
-3 -189 9 -29 11 -72 14 -200 10 -135 -4 -171 -2 -204 12 -29 11 -56 14 -92
10 -37 -5 -62 -2 -90 10 -32 13 -57 15 -130 10 -73 -5 -99 -3 -129 10 -31 13
-59 15 -150 10 -87 -5 -120 -3 -147 8 -28 12 -73 14 -228 10 -164 -4 -200 -2
-235 12 -36 14 -68 16 -242 10 -173 -5 -205 -4 -239 10 -34 15 -70 16 -280 10
-197 -5 -247 -4 -276 8 -28 12 -80 13 -258 10 -190 -4 -230 -2 -264 12 -33 13
-62 15 -152 10 -91 -5 -118 -3 -150 10 -33 14 -76 16 -285 14 -135 -1 -250 -1
-256 1 -5 2 -31 0 -56 -4 -33 -6 -56 -3 -84 8 -34 15 -123 16 -819 15 -543 0
-790 3 -809 10 -42 16 -217 13 -247 -4 -32 -18 -78 -18 -110 0 -36 20 -245 20
-293 0 -47 -19 -98 -19 -145 0 -32 14 -108 16 -567 14 -374 -1 -538 2 -558 10
-19 7 -135 11 -352 11 -274 0 -331 -2 -365 -16 -44 -18 -116 -15 -167 7 -28
11 -37 11 -68 -4 -50 -24 -265 -24 -321 -1 -34 15 -74 16 -321 11 -245 -6
-287 -4 -320 10 -33 13 -74 15 -293 11 -195 -4 -262 -2 -285 8 -41 18 -98 17
-142 -1 -45 -19 -111 -19 -156 0 -38 16 -161 19 -207 6 -14 -4 -38 -3 -54 2
-21 7 -37 6 -62 -6 -28 -14 -56 -15 -162 -10 -108 5 -136 3 -174 -11 -39 -15
-68 -17 -197 -12 -122 4 -158 2 -188 -10 -30 -13 -69 -15 -211 -11 -140 4
-181 2 -210 -10 -30 -12 -83 -14 -346 -8 -264 5 -316 4 -347 -9 -28 -12 -65
-14 -186 -9 -129 5 -157 3 -194 -11 -34 -14 -59 -16 -124 -11 -63 5 -88 3
-119 -10 -33 -14 -62 -16 -172 -11 -107 5 -139 3 -170 -10 -31 -13 -67 -15
-201 -11 -133 4 -171 3 -200 -10 -29 -12 -62 -14 -158 -9 -98 5 -129 3 -160
-9 -26 -11 -45 -14 -64 -7 -14 5 -42 5 -61 1 -19 -5 -71 -6 -115 -3 -61 4 -89
2 -119 -11 -29 -12 -54 -15 -100 -10 -46 5 -71 2 -100 -10 -26 -11 -53 -15
-77 -11 -24 4 -71 -3 -135 -20 -54 -14 -109 -22 -121 -19 -13 3 -62 -6 -109
-21 -72 -22 -97 -25 -153 -19 -49 5 -75 2 -103 -9 -45 -19 -92 -20 -152 -4
-57 15 -92 -5 -102 -57 -5 -29 -10 -36 -28 -33 -19 3 -22 12 -29 103 -5 55 -9
136 -11 180 -1 44 -8 94 -15 110 -8 20 -11 50 -6 90 4 45 2 70 -10 99 -11 27
-15 53 -11 81 5 28 1 54 -10 80 -13 31 -15 56 -9 117 6 68 3 89 -19 157 -24
75 -25 87 -19 219 5 119 3 146 -11 183 -14 34 -16 60 -11 143 6 83 4 108 -10
141 -14 31 -16 55 -10 120 5 62 3 88 -9 117 -13 31 -15 61 -10 167 6 102 4
137 -8 167 -11 30 -14 75 -11 194 2 121 0 163 -12 193 -12 31 -14 63 -9 157 6
100 4 125 -10 162 -14 32 -16 58 -11 103 4 45 2 70 -10 99 -11 27 -15 53 -11
81 5 28 1 54 -10 81 -12 29 -15 55 -10 106 4 50 2 78 -10 107 -14 36 -14 42 1
70 14 28 14 34 0 62 -9 17 -14 38 -10 46 3 9 -2 38 -11 65 -10 31 -14 62 -10
83 5 24 -1 61 -19 121 -17 53 -24 96 -20 111 3 14 -1 46 -9 72 -26 84 -37 148
-31 184 5 23 2 45 -9 65 -21 40 -22 140 -2 148 8 3 28 -2 45 -10 69 -36 154
-2 136 54 -12 39 -105 53 -155 24 -15 -10 -34 -14 -42 -11 -16 6 -28 57 -28
118 0 20 -7 56 -15 80 -9 26 -15 71 -13 113 1 39 -2 89 -7 111 -5 22 -9 77 -7
121 1 56 -3 93 -13 119 -13 29 -15 58 -9 145 6 91 4 116 -10 151 -12 30 -16
57 -11 84 4 27 0 54 -10 79 -12 27 -14 53 -10 90 5 36 2 62 -10 89 -9 23 -13
50 -10 70 4 20 0 47 -10 71 -10 24 -14 51 -11 71 4 19 0 47 -10 70 -8 21 -13
47 -10 57 2 11 -2 38 -10 61 -8 23 -13 50 -10 60 2 10 -2 37 -10 60 -8 23 -13
50 -10 60 2 10 -2 37 -10 60 -8 23 -13 50 -10 60 2 10 -2 37 -10 60 -8 23 -13
50 -10 60 2 10 -2 37 -10 60 -10 26 -13 57 -9 83 4 26 0 53 -11 79 -10 26 -14
52 -10 80 5 28 1 54 -10 80 -12 31 -15 56 -10 111 5 53 3 80 -9 108 -12 27
-14 53 -10 90 5 37 2 62 -10 90 -11 27 -15 53 -11 81 5 27 1 54 -9 79 -10 23
-14 49 -10 67 4 17 0 50 -8 77 -9 26 -20 70 -25 97 -6 28 -15 77 -22 110 -6
33 -15 78 -20 100 -5 22 -14 67 -20 100 -6 33 -16 79 -22 102 -6 23 -7 46 -4
51 3 5 -1 29 -10 53 -8 24 -13 52 -10 62 2 11 -1 40 -9 65 -27 95 -37 152 -30
182 4 19 0 46 -10 75 -10 24 -15 51 -11 60 3 8 1 27 -5 42 -5 15 -11 43 -13
62 -3 32 -17 81 -62 221 -31 98 -77 288 -81 337 -5 50 -4 52 27 68 28 14 57
16 199 12 130 -4 174 -2 201 10 28 11 100 14 385 12 244 -1 358 1 375 9 30 14
82 10 127 -9z"/>
<path d="M23170 20521 c-28 -53 11 -121 68 -121 45 0 58 22 42 71 -21 64 -86
93 -110 50z"/>
<path d="M20800 20470 c-11 -11 -20 -27 -20 -35 0 -27 38 -55 75 -55 46 0 80
32 65 60 -26 49 -86 64 -120 30z"/>
<path d="M23212 20098 c-7 -7 -12 -26 -12 -43 0 -17 5 -36 12 -43 7 -7 26 -12
43 -12 38 0 55 16 55 51 0 46 -67 78 -98 47z"/>
<path d="M20797 20072 c-22 -24 -21 -35 1 -55 19 -17 67 -22 96 -11 22 8 20
47 -2 67 -25 22 -75 21 -95 -1z"/>
<path d="M20812 19698 c-36 -36 13 -126 61 -113 31 9 57 43 57 74 0 38 -17 51
-65 51 -23 0 -46 -5 -53 -12z"/>
<path d="M23240 19670 c-22 -22 -27 -79 -8 -98 31 -31 118 1 118 44 0 20 -54
74 -74 74 -9 0 -25 -9 -36 -20z"/>
<path d="M16380 19610 c-31 -31 -24 -72 15 -83 17 -5 43 -13 59 -17 34 -11 62
1 71 31 8 23 -17 56 -53 70 -55 21 -70 21 -92 -1z"/>
<path d="M14524 19606 c-69 -31 -38 -76 53 -76 28 0 54 -4 57 -9 5 -8 31 -14
118 -27 34 -5 39 -3 50 21 11 25 10 29 -15 51 -15 13 -44 26 -65 29 -20 4 -47
10 -60 16 -33 13 -102 11 -138 -5z"/>
<path d="M15276 19606 c-44 -14 -68 -48 -47 -69 12 -12 44 -15 206 -20 87 -2
90 -1 93 21 2 13 -4 32 -13 42 -27 30 -177 46 -239 26z"/>
<path d="M16857 19590 c-52 -41 -43 -90 18 -90 57 0 112 62 85 95 -18 21 -73
18 -103 -5z"/>
<path d="M17220 19590 c-11 -11 -20 -27 -20 -35 0 -42 87 -74 118 -43 32 32
-4 98 -53 98 -14 0 -34 -9 -45 -20z"/>
<path d="M15824 19586 c-76 -34 -49 -63 66 -72 47 -4 90 -10 95 -14 6 -4 24
-11 42 -14 25 -6 36 -3 52 13 24 24 27 53 9 69 -7 6 -42 13 -78 16 -36 3 -85
8 -110 11 -28 3 -57 0 -76 -9z"/>
<path d="M17632 19558 c-7 -7 -12 -21 -12 -33 0 -36 20 -45 95 -45 73 0 95 10
95 41 0 31 -40 49 -105 49 -34 0 -66 -5 -73 -12z"/>
<path d="M18103 19533 c-20 -8 -15 -38 10 -60 36 -33 63 -43 115 -43 86 0 106
57 32 95 -27 14 -129 20 -157 8z"/>
<path d="M18808 19533 c-39 -6 -54 -28 -40 -58 10 -21 19 -25 54 -25 23 0 56
-5 73 -11 60 -22 106 9 90 59 -10 32 -91 48 -177 35z"/>
<path d="M20893 19488 c-52 -25 -29 -72 40 -82 94 -15 110 -13 126 15 13 24
13 29 -2 53 -16 24 -23 26 -80 25 -34 0 -72 -5 -84 -11z"/>
<path d="M20198 19468 c-14 -14 -16 -23 -8 -38 6 -11 16 -20 23 -21 7 0 30 -2
52 -5 22 -2 77 -7 122 -10 81 -5 83 -5 94 20 24 51 -6 63 -170 69 -82 3 -97 1
-113 -15z"/>
<path d="M19377 19473 c-13 -13 -7 -43 13 -63 26 -26 140 -29 164 -4 43 42 2
74 -96 74 -41 0 -78 -3 -81 -7z"/>
<path d="M21352 19464 c-48 -34 -17 -74 58 -74 23 0 50 -5 61 -10 14 -8 27 -7
47 2 33 16 39 41 18 73 -15 23 -23 25 -89 25 -49 0 -80 -5 -95 -16z"/>
<path d="M21963 19472 c-6 -4 -14 -19 -18 -33 -12 -48 63 -112 105 -89 27 14
42 47 35 71 -13 39 -90 71 -122 51z"/>
<path d="M22454 19440 c-55 -22 -24 -97 48 -114 55 -13 107 34 77 70 -27 33
-94 57 -125 44z"/>
<path d="M22894 19385 c-31 -31 -28 -61 9 -89 l28 -21 37 20 c47 26 51 48 14
85 -37 37 -55 38 -88 5z"/>
<path d="M23450 19340 c-21 -21 -26 -55 -10 -65 6 -3 41 -8 80 -10 76 -3 94 6
88 47 -7 47 -119 67 -158 28z"/>
<path d="M20812 19318 c-34 -34 8 -105 56 -93 40 9 65 38 57 64 -11 36 -87 55
-113 29z"/>
<path d="M24028 19315 c-62 -34 -41 -84 45 -107 41 -11 49 -10 64 4 14 14 14
21 3 48 -13 32 -54 70 -74 70 -6 -1 -23 -7 -38 -15z"/>
<path d="M24533 19279 c-41 -15 -40 -73 1 -89 36 -13 108 -4 123 16 16 22 16
35 0 58 -14 19 -88 29 -124 15z"/>
<path d="M23242 19188 c-7 -7 -12 -41 -12 -84 0 -79 8 -90 58 -78 45 11 52 23
52 88 0 70 -10 86 -55 86 -17 0 -36 -5 -43 -12z"/>
<path d="M25390 19187 c-13 -7 -31 -24 -39 -39 -14 -25 -14 -29 5 -54 11 -15
33 -32 48 -37 23 -8 32 -6 49 12 27 26 28 82 2 111 -21 23 -31 24 -65 7z"/>
<path d="M20792 18998 c-7 -7 -12 -30 -12 -53 0 -49 13 -65 55 -65 40 0 55 16
55 57 0 56 -63 96 -98 61z"/>
<path d="M23266 18757 c-20 -14 -29 -87 -15 -124 10 -27 42 -38 69 -23 17 9
20 21 20 75 0 53 -3 66 -19 75 -25 13 -33 13 -55 -3z"/>
<path d="M20792 18698 c-15 -15 -15 -43 -2 -69 22 -39 120 -15 120 29 0 40
-88 70 -118 40z"/>
<path d="M20775 18560 c-40 -45 28 -100 80 -66 33 22 33 59 0 74 -37 17 -59
15 -80 -8z"/>
<path d="M20986 18498 c-20 -24 -41 -47 -45 -51 -34 -33 -45 -46 -66 -73 -14
-18 -25 -40 -25 -49 0 -27 48 -85 70 -85 10 0 25 -8 32 -18 20 -29 82 -54 124
-50 38 3 39 4 42 45 2 23 8 46 15 51 7 5 86 5 202 0 105 -5 293 -11 420 -14
127 -3 234 -9 239 -14 6 -6 56 -10 112 -10 58 0 106 -4 109 -10 4 -6 88 -10
220 -10 132 0 216 -4 220 -10 10 -17 255 -13 289 5 36 19 70 19 86 0 11 -13 8
-21 -20 -50 -40 -41 -36 -77 9 -93 35 -12 77 9 112 57 13 17 28 31 35 31 21 0
63 40 80 76 23 48 9 76 -47 94 -47 15 -109 43 -201 91 -49 25 -60 28 -83 17
-22 -10 -26 -17 -23 -47 3 -31 7 -36 36 -42 40 -8 60 -25 46 -38 -5 -6 -125
-5 -299 0 -445 15 -529 19 -540 30 -5 5 -73 9 -151 9 -85 0 -145 4 -149 10 -8
13 -51 13 -77 -1 -14 -7 -28 -8 -46 0 -35 13 -279 24 -514 23 -117 -1 -188 2
-188 8 0 12 22 34 74 73 56 44 44 87 -25 87 -31 0 -43 -7 -73 -42z m34 -153
c0 -8 -7 -15 -15 -15 -16 0 -20 12 -8 23 11 12 23 8 23 -8z"/>
<path d="M23258 18434 c-22 -11 -28 -22 -28 -48 0 -18 6 -39 14 -45 22 -18 77
-9 92 14 12 18 11 26 -4 55 -20 40 -36 45 -74 24z"/>
<path d="M20796 18198 c-29 -41 -11 -104 32 -115 33 -8 55 7 66 46 8 28 6 35
-19 61 -34 36 -58 38 -79 8z"/>
<path d="M23213 17970 c-23 -14 -33 -27 -33 -45 0 -32 33 -65 65 -65 14 0 34
9 45 20 11 11 20 31 20 45 0 26 -31 65 -52 65 -7 0 -28 -9 -45 -20z"/>
<path d="M20766 17897 c-23 -17 -34 -100 -16 -122 7 -8 27 -15 45 -15 45 0 59
20 52 77 -5 45 -25 73 -52 73 -6 0 -19 -6 -29 -13z"/>
<path d="M23162 17728 c-7 -7 -12 -39 -12 -74 0 -58 2 -62 28 -73 22 -9 35 -9
55 0 25 11 27 17 27 74 0 69 -10 85 -55 85 -17 0 -36 -5 -43 -12z"/>
<path d="M20777 17443 c-12 -11 -8 -160 5 -187 15 -33 43 -42 73 -22 23 15 25
23 25 90 0 71 -2 76 -31 100 -30 25 -59 33 -72 19z"/>
<path d="M23118 17439 c-34 -19 -19 -92 21 -109 51 -21 108 24 95 76 -10 38
-75 57 -116 33z"/>
<path d="M23112 17097 c-29 -31 -30 -109 -2 -154 21 -36 26 -38 64 -23 24 9
25 13 25 95 0 83 -1 86 -25 95 -35 14 -38 13 -62 -13z"/>
<path d="M20761 16954 c-31 -13 -33 -17 -27 -46 4 -18 10 -53 14 -78 7 -45 7
-45 47 -45 l40 0 0 79 c0 68 -3 80 -20 92 -17 10 -26 10 -54 -2z"/>
<path d="M23138 16654 c-26 -14 -28 -19 -28 -85 0 -63 2 -70 24 -80 17 -8 29
-8 43 0 17 8 21 24 26 83 7 97 -7 114 -65 82z"/>
<path d="M20743 16444 c-20 -9 -18 -150 3 -158 18 -7 63 2 82 17 17 13 16 111
-1 126 -17 13 -67 22 -84 15z"/>
<path d="M23072 16218 c-7 -7 -12 -26 -12 -43 0 -17 5 -36 12 -43 7 -7 26 -12
43 -12 17 0 36 5 43 12 7 7 12 26 12 43 0 17 -5 36 -12 43 -7 7 -26 12 -43 12
-17 0 -36 -5 -43 -12z"/>
<path d="M20742 15827 c-15 -17 -18 -185 -4 -199 18 -18 56 0 80 38 31 49 31
122 -1 152 -26 25 -59 29 -75 9z"/>
<path d="M23064 15776 c-14 -11 -19 -26 -19 -61 0 -51 20 -75 62 -75 26 0 38
19 46 75 10 63 -39 97 -89 61z"/>
<path d="M7873 21125 c-11 -8 -23 -27 -26 -42 -16 -78 -25 -111 -39 -138 -8
-16 -18 -47 -21 -68 -3 -21 -17 -63 -31 -94 -14 -30 -26 -64 -26 -75 0 -10
-11 -40 -24 -66 -13 -26 -29 -68 -36 -92 -16 -61 -38 -100 -54 -100 -8 0 -25
19 -39 43 -25 42 -128 147 -145 147 -5 0 -14 11 -20 25 -7 14 -20 29 -31 33
-10 4 -42 27 -70 52 -67 59 -269 258 -301 297 -48 58 -141 50 -126 -11 7 -29
237 -264 344 -351 54 -44 181 -165 290 -278 50 -52 61 -82 46 -127 -7 -19 -13
-45 -14 -58 0 -12 -7 -33 -15 -45 -8 -12 -24 -54 -35 -92 -25 -81 -56 -157
-111 -273 -21 -45 -39 -93 -39 -106 0 -12 -13 -47 -30 -77 -16 -30 -30 -66
-30 -80 0 -14 -9 -34 -20 -44 -41 -37 -17 -93 52 -123 22 -9 31 -8 52 9 22 17
26 29 26 70 0 27 7 60 15 72 18 28 45 113 45 143 0 12 14 38 30 59 17 21 30
49 30 62 0 14 9 36 20 50 11 14 20 37 20 50 0 14 9 36 20 50 11 14 20 37 20
50 0 13 9 41 20 63 11 22 20 49 20 60 0 11 9 38 20 60 11 22 20 53 20 69 0 16
4 32 9 36 6 3 24 51 42 108 17 56 35 109 40 117 5 8 14 26 20 40 6 14 20 44
30 68 10 23 19 52 19 63 0 11 9 37 20 59 11 22 20 49 20 60 0 12 7 34 15 49
22 43 45 113 45 138 0 12 5 25 10 28 14 9 12 99 -2 113 -16 16 -49 15 -75 -3z"/>
<path d="M12789 19654 c-24 -29 -6 -57 51 -77 69 -25 165 -33 185 -17 22 18
18 54 -7 77 -19 17 -39 22 -121 25 -70 3 -101 0 -108 -8z"/>
<path d="M13412 19590 c-29 -12 -37 -33 -22 -60 10 -19 18 -21 108 -18 l97 3
0 40 0 40 -80 2 c-44 1 -90 -2 -103 -7z"/>
<path d="M20702 14728 c-7 -7 -12 -41 -12 -84 0 -79 8 -90 58 -78 44 11 52 23
52 80 0 50 -2 56 -32 74 -38 23 -50 24 -66 8z"/>
<path d="M23092 14598 c-36 -36 10 -118 66 -118 36 0 52 16 52 52 0 56 -82
102 -118 66z"/>
<path d="M20685 14174 c-10 -11 -14 -25 -10 -38 3 -12 9 -40 12 -64 5 -34 10
-43 30 -48 29 -8 71 9 79 31 10 25 -4 62 -37 100 -35 39 -50 43 -74 19z"/>
<path d="M23069 14154 c-16 -20 -16 -82 0 -112 15 -28 76 -31 89 -4 11 20 10
102 -2 120 -11 18 -71 15 -87 -4z"/>
<path d="M24480 13768 c-17 -7 -188 -10 -515 -9 -366 2 -498 -1 -520 -10 -22
-9 -119 -11 -361 -10 -258 2 -337 0 -355 -10 -19 -10 -105 -13 -400 -10 -325
2 -380 1 -413 -13 -49 -20 -118 -20 -158 0 -26 13 -35 14 -57 3 -20 -9 -128
-11 -447 -10 -345 2 -427 0 -455 -12 -27 -11 -76 -13 -236 -9 -175 4 -207 2
-245 -13 -38 -15 -69 -16 -273 -11 -197 6 -236 4 -268 -9 -32 -13 -74 -15
-290 -9 -206 5 -258 3 -285 -8 -27 -12 -97 -14 -400 -10 -312 4 -372 2 -403
-11 -30 -12 -68 -14 -206 -10 -146 5 -176 3 -215 -12 -40 -15 -74 -16 -278
-12 -178 4 -239 2 -262 -8 -25 -10 -109 -12 -397 -8 -305 5 -372 3 -401 -9
-28 -12 -79 -14 -266 -10 -202 4 -238 2 -277 -13 -37 -14 -65 -16 -164 -11
-97 5 -127 3 -158 -10 -31 -13 -60 -15 -150 -10 -90 6 -118 4 -149 -9 -31 -13
-57 -15 -120 -10 -64 5 -89 3 -120 -10 -34 -14 -66 -16 -222 -11 -189 5 -221
0 -254 -38 -17 -21 -14 -157 5 -202 13 -32 16 -78 14 -279 -1 -180 2 -248 12
-272 9 -23 10 -40 3 -65 -6 -18 -7 -49 -3 -68 4 -19 5 -47 2 -63 -3 -15 2 -47
11 -72 10 -24 15 -53 12 -63 -4 -10 1 -36 9 -56 13 -31 16 -79 14 -279 -2
-159 2 -251 9 -269 14 -35 19 -553 4 -571 -21 -26 -42 -91 -42 -131 0 -37 6
-47 55 -96 l55 -55 439 3 c381 3 443 1 476 -12 52 -22 212 -22 258 0 31 15 36
15 66 0 26 -14 48 -16 114 -10 61 5 91 3 117 -8 28 -11 78 -14 238 -11 174 4
210 2 248 -13 40 -15 84 -16 447 -12 342 5 408 4 437 -9 29 -12 82 -14 285
-12 183 3 256 0 272 -9 29 -16 92 -15 123 3 19 11 70 14 225 14 155 0 206 -3
225 -14 14 -8 39 -14 55 -14 17 0 41 6 55 14 37 21 304 21 355 -1 46 -19 256
-15 322 6 35 12 51 12 92 1 40 -10 57 -10 85 0 29 10 41 10 78 -4 62 -24 371
-25 421 -1 31 15 36 15 65 0 44 -22 284 -23 340 0 33 13 77 14 273 10 129 -3
248 -6 264 -6 17 -1 58 2 92 6 48 5 72 2 105 -11 39 -16 88 -17 523 -15 264 1
496 1 515 1 19 0 217 2 440 5 354 4 410 3 447 -11 34 -13 82 -16 275 -14 128
1 262 -1 298 -5 36 -4 75 -7 88 -6 12 0 39 0 60 0 20 -1 96 -1 167 0 98 0 141
-3 173 -16 28 -10 57 -14 82 -10 24 4 51 0 74 -9 31 -13 146 -14 925 -9 833 6
892 6 933 -11 39 -16 81 -17 443 -14 325 2 406 0 432 -11 28 -12 36 -12 68 3
31 15 73 17 321 17 197 0 292 -4 307 -12 33 -17 201 -19 242 -2 19 7 41 11 49
8 9 -3 34 1 56 10 52 21 178 21 227 1 19 -8 55 -15 80 -15 24 0 60 7 80 15 23
10 69 15 130 15 61 0 106 -5 130 -15 51 -21 270 -21 321 1 28 12 54 14 105 9
43 -4 79 -2 100 6 28 10 45 8 109 -11 67 -20 89 -21 219 -16 79 3 153 5 164 4
11 0 39 0 63 0 73 3 104 2 193 -4 66 -4 95 -2 124 10 54 23 369 23 423 0 28
-12 55 -14 109 -9 56 5 78 3 104 -10 34 -18 73 -16 126 6 27 11 39 11 75 -1
56 -18 241 -20 288 -2 27 10 118 13 380 12 190 -1 359 2 375 5 60 15 105 81
105 154 0 20 -11 70 -25 111 -22 66 -25 93 -25 226 0 138 2 156 25 212 14 33
22 67 19 75 -3 8 4 38 15 68 12 30 21 69 21 87 0 18 12 54 26 78 19 33 25 53
20 75 -3 18 0 45 9 66 8 19 12 45 9 58 -3 12 2 39 10 59 10 24 13 52 10 79 -4
28 -1 56 10 81 10 25 14 51 10 77 -5 27 -1 54 11 86 15 39 17 67 12 187 -4
110 -2 148 9 175 10 24 12 52 8 95 -5 46 -2 71 10 101 10 23 14 50 11 67 -4
15 -1 45 6 65 7 21 12 50 11 65 -1 16 5 44 13 64 10 25 15 70 15 143 0 106 0
108 -30 136 -27 26 -38 29 -99 31 -51 1 -79 7 -106 23 -45 26 -212 74 -237 67
-11 -2 -35 2 -55 10 -26 12 -54 14 -107 9 -51 -5 -80 -3 -104 7 -26 11 -85 14
-288 10 -219 -3 -261 -1 -296 13 -27 10 -54 14 -82 10 -27 -4 -54 -1 -80 10
-31 13 -58 15 -140 10 -82 -5 -108 -3 -141 10 -32 14 -58 16 -140 10 -81 -5
-107 -3 -138 10 -34 14 -107 16 -635 14 -464 -2 -606 1 -636 11 -30 9 -110 11
-330 8 -240 -4 -297 -2 -326 10 -29 12 -83 13 -326 8 -257 -6 -295 -4 -330 10
-34 14 -70 16 -272 11 -194 -5 -239 -3 -269 10 -30 12 -86 14 -322 12 -157 -1
-311 1 -341 5 -30 3 -153 6 -273 6 -183 -1 -226 2 -263 16 -39 15 -68 16 -204
11 -131 -5 -165 -4 -196 9 -32 13 -100 15 -488 13 -322 -1 -459 1 -479 10 -37
14 -432 14 -467 -1z m1047 -240 c19 -7 116 -11 310 -9 217 1 290 -2 315 -12
25 -10 85 -13 259 -10 192 4 233 2 265 -12 30 -12 57 -15 120 -10 64 5 89 3
113 -9 39 -21 72 -20 110 1 26 16 34 16 63 4 26 -10 108 -13 375 -12 273 1
349 -1 376 -12 25 -11 70 -13 189 -10 114 3 163 1 180 -8 18 -10 124 -12 450
-10 323 2 433 -1 450 -10 17 -9 123 -12 430 -10 310 2 412 0 430 -10 17 -10
122 -12 440 -10 363 2 422 0 455 -14 29 -12 55 -15 108 -10 55 5 80 3 110 -9
26 -11 52 -15 80 -10 28 4 54 0 81 -11 29 -12 54 -14 100 -10 43 5 70 3 96 -8
29 -12 66 -14 181 -10 119 4 151 2 183 -12 30 -12 55 -15 109 -10 55 5 80 3
110 -10 29 -12 54 -15 92 -10 41 5 66 1 130 -21 43 -16 83 -34 88 -41 6 -6 33
-13 60 -15 l50 -3 3 -44 c2 -24 -4 -61 -12 -82 -9 -21 -13 -45 -10 -54 4 -8
-1 -33 -10 -56 -10 -25 -14 -53 -10 -73 3 -19 0 -47 -9 -67 -10 -26 -13 -67
-10 -170 4 -107 1 -144 -11 -173 -11 -28 -14 -56 -9 -115 4 -58 2 -90 -10
-124 -8 -25 -13 -55 -10 -65 3 -11 -1 -31 -8 -43 -8 -14 -14 -59 -15 -104 -1
-60 -13 -125 -47 -258 -26 -97 -50 -185 -55 -195 -11 -19 -31 -102 -37 -147
-2 -17 -8 -43 -14 -58 -17 -45 -14 -306 4 -341 8 -15 15 -38 15 -51 0 -43 -19
-48 -172 -42 -87 4 -149 2 -161 -4 -26 -15 -1103 -14 -1140 0 -36 14 -108 14
-144 0 -19 -7 -178 -10 -498 -9 -258 1 -477 1 -485 1 -8 0 -288 0 -621 0 -405
-1 -616 -4 -635 -11 -39 -15 -1739 -15 -1778 0 -19 7 -267 10 -780 9 -566 -1
-757 2 -777 11 -21 10 -32 9 -57 -4 -39 -20 -92 -20 -139 -1 -30 13 -68 15
-192 11 -122 -3 -162 -1 -190 11 -29 12 -63 14 -169 10 -107 -4 -141 -2 -170
10 -31 13 -80 15 -312 11 -216 -4 -282 -2 -308 9 -26 11 -178 13 -815 12 -543
0 -791 3 -810 10 -20 8 -553 11 -1831 11 -1254 -1 -1811 2 -1831 10 -18 7
-200 10 -549 9 -388 -1 -529 1 -551 10 -20 8 -61 10 -130 6 -81 -5 -108 -3
-139 10 -32 14 -60 15 -160 10 -93 -5 -129 -3 -156 8 -28 11 -92 13 -322 10
-244 -3 -293 -1 -325 12 -29 12 -58 14 -129 10 -67 -5 -101 -2 -125 8 -27 10
-82 13 -250 9 -173 -3 -219 -1 -225 10 -5 7 -9 200 -9 428 0 228 -4 429 -9
445 -5 17 -8 77 -7 134 1 70 -3 120 -13 150 -25 79 -37 153 -35 226 1 39 -4
106 -11 149 -10 68 -9 85 4 120 20 52 20 96 1 143 -21 51 -21 233 1 275 l16
31 69 -6 c51 -4 79 -2 107 10 28 12 56 14 119 9 64 -5 90 -3 120 9 29 13 55
15 109 10 55 -5 80 -3 110 10 32 13 62 15 161 11 96 -4 130 -2 159 10 30 13
73 15 243 11 161 -3 213 -1 240 10 21 9 48 12 72 8 26 -5 53 -1 84 10 41 16
84 17 476 12 373 -5 436 -4 469 9 32 13 81 15 294 12 202 -4 263 -1 288 9 26
11 75 13 218 10 147 -4 192 -2 220 9 28 12 94 14 360 12 244 -2 331 1 347 10
16 9 87 13 245 13 123 0 239 0 258 0 19 0 54 -3 78 -7 30 -4 57 -1 87 11 37
14 72 16 217 12 133 -4 181 -2 207 9 23 10 76 14 171 14 158 0 173 -6 152 -64
-16 -42 -15 -101 1 -113 18 -15 63 -24 81 -17 21 8 21 99 1 134 -21 37 -18 48
16 66 28 14 89 16 533 15 275 -1 517 -1 536 -1 19 0 95 -3 169 -6 110 -5 141
-3 177 11 37 14 80 16 306 13 202 -3 271 -1 295 9 43 17 75 16 118 -4 31 -15
40 -15 68 -4 54 22 85 24 127 7 58 -23 352 -23 409 0 33 13 71 15 223 11 139
-4 190 -2 213 8 41 18 1488 21 1532 3z"/>
<path d="M23107 13272 c-25 -27 -22 -92 6 -133 44 -65 87 -42 87 46 0 47 -3
56 -31 79 -36 31 -41 31 -62 8z"/>
<path d="M20720 13090 c-22 -22 -26 -60 -8 -78 7 -7 30 -12 53 -12 23 0 46 5
53 12 32 32 -4 98 -53 98 -14 0 -34 -9 -45 -20z"/>
<path d="M23117 12875 c-17 -16 -16 -38 4 -93 5 -13 9 -36 9 -52 0 -38 31 -57
55 -33 24 24 35 58 35 112 0 53 -11 68 -57 77 -21 4 -35 1 -46 -11z"/>
<path d="M20772 12433 c-27 -24 -37 -96 -16 -117 20 -20 53 -20 82 0 17 12 22
25 22 59 0 34 -5 47 -22 59 -29 20 -41 20 -66 -1z"/>
<path d="M23145 12356 c-17 -12 -18 -18 -7 -53 14 -45 48 -69 86 -59 35 9 48
36 35 75 -17 49 -73 67 -114 37z"/>
<path d="M22130 9938 c-11 -12 -20 -26 -20 -31 0 -20 33 -63 67 -87 19 -14 38
-29 43 -35 116 -133 146 -171 207 -263 25 -37 53 -76 64 -87 10 -11 39 -45 63
-75 25 -30 59 -69 76 -85 29 -29 38 -62 22 -80 -5 -6 -19 -38 -31 -72 -13 -34
-34 -76 -47 -94 -13 -18 -24 -39 -24 -46 0 -7 -18 -50 -39 -95 -72 -152 -121
-263 -121 -273 0 -6 -9 -16 -20 -23 -12 -7 -20 -23 -20 -39 0 -14 -6 -34 -14
-42 -34 -40 -66 -114 -66 -155 0 -36 4 -45 25 -54 14 -7 39 -12 54 -12 24 0
29 6 40 43 7 23 17 49 22 57 11 18 25 50 51 115 26 64 61 137 98 200 16 28 37
75 46 105 9 30 22 62 29 70 14 15 39 78 57 141 5 20 23 51 39 69 35 37 45 33
79 -33 12 -23 41 -61 63 -85 23 -23 60 -65 82 -92 22 -28 63 -77 90 -110 28
-32 61 -73 74 -90 13 -18 33 -36 45 -42 23 -10 68 -75 86 -123 15 -38 26 -45
81 -45 52 0 69 13 69 51 0 20 -28 55 -122 152 -68 69 -141 149 -163 177 -22
28 -71 86 -110 130 -38 43 -83 97 -100 120 -16 24 -49 61 -72 83 -57 54 -57
80 2 153 25 30 45 61 45 69 0 7 19 42 43 77 23 35 50 82 61 105 10 23 27 43
37 46 13 4 19 14 19 36 0 17 9 45 20 63 23 39 26 81 6 97 -19 16 -77 10 -87
-9 -4 -8 -21 -44 -37 -80 -16 -36 -49 -95 -73 -132 -71 -109 -96 -151 -104
-178 -21 -71 -77 -104 -95 -56 -5 13 -14 27 -20 31 -5 3 -19 23 -30 43 -10 20
-36 56 -57 78 -44 48 -83 100 -83 111 0 4 -27 36 -59 70 -33 35 -61 67 -63 71
-1 5 -40 48 -84 96 -87 92 -109 102 -144 64z"/>
<path d="M12603 574 c-13 -14 -25 -29 -28 -33 -4 -8 38 -61 49 -61 3 0 17 11
32 25 l27 25 -24 28 c-13 15 -26 30 -29 34 -3 4 -15 -4 -27 -18z"/>
</g>
</svg>
